%TF.GenerationSoftware,KiCad,Pcbnew,(5.0.0)*%
%TF.CreationDate,2019-05-29T21:58:33+03:00*%
%TF.ProjectId,Telemetry,54656C656D657472792E6B696361645F,0.1*%
%TF.SameCoordinates,Original*%
%TF.FileFunction,Legend,Bot*%
%TF.FilePolarity,Positive*%
%FSLAX46Y46*%
G04 Gerber Fmt 4.6, Leading zero omitted, Abs format (unit mm)*
G04 Created by KiCad (PCBNEW (5.0.0)) date 05/29/19 21:58:33*
%MOMM*%
%LPD*%
G01*
G04 APERTURE LIST*
%ADD10C,0.300000*%
%ADD11C,0.010000*%
%ADD12O,1.670000X1.120000*%
%ADD13O,1.070000X1.370000*%
%ADD14C,8.160000*%
%ADD15R,1.120000X1.120000*%
%ADD16O,1.120000X1.120000*%
%ADD17C,1.660000*%
%ADD18R,1.660000X1.660000*%
%ADD19R,1.200000X1.200000*%
%ADD20O,1.200000X1.200000*%
%ADD21R,2.392000X2.392000*%
%ADD22O,2.392000X2.392000*%
%ADD23O,2.060000X2.060000*%
%ADD24R,2.060000X2.060000*%
%ADD25R,2.160000X3.960000*%
%ADD26O,2.160000X3.960000*%
%ADD27C,1.860000*%
%ADD28O,6.360000X10.360000*%
%ADD29O,2.087200X2.087200*%
%ADD30R,2.087200X2.087200*%
%ADD31O,2.087200X2.392000*%
%ADD32R,2.087200X2.392000*%
%ADD33R,11.120000X9.520000*%
%ADD34C,3.560000*%
%ADD35C,2.358980*%
%ADD36R,1.360000X1.360000*%
%ADD37O,1.360000X1.360000*%
%ADD38C,1.560000*%
%ADD39C,1.160000*%
%ADD40C,1.010000*%
G04 APERTURE END LIST*
D10*
X151107142Y-117378571D02*
X151107142Y-115878571D01*
X150464285Y-117378571D02*
X150464285Y-116592857D01*
X150535714Y-116450000D01*
X150678571Y-116378571D01*
X150892857Y-116378571D01*
X151035714Y-116450000D01*
X151107142Y-116521428D01*
X149964285Y-116378571D02*
X149392857Y-116378571D01*
X149750000Y-115878571D02*
X149750000Y-117164285D01*
X149678571Y-117307142D01*
X149535714Y-117378571D01*
X149392857Y-117378571D01*
X149107142Y-116378571D02*
X148535714Y-116378571D01*
X148892857Y-115878571D02*
X148892857Y-117164285D01*
X148821428Y-117307142D01*
X148678571Y-117378571D01*
X148535714Y-117378571D01*
X148035714Y-116378571D02*
X148035714Y-117878571D01*
X148035714Y-116450000D02*
X147892857Y-116378571D01*
X147607142Y-116378571D01*
X147464285Y-116450000D01*
X147392857Y-116521428D01*
X147321428Y-116664285D01*
X147321428Y-117092857D01*
X147392857Y-117235714D01*
X147464285Y-117307142D01*
X147607142Y-117378571D01*
X147892857Y-117378571D01*
X148035714Y-117307142D01*
X146750000Y-117307142D02*
X146607142Y-117378571D01*
X146321428Y-117378571D01*
X146178571Y-117307142D01*
X146107142Y-117164285D01*
X146107142Y-117092857D01*
X146178571Y-116950000D01*
X146321428Y-116878571D01*
X146535714Y-116878571D01*
X146678571Y-116807142D01*
X146750000Y-116664285D01*
X146750000Y-116592857D01*
X146678571Y-116450000D01*
X146535714Y-116378571D01*
X146321428Y-116378571D01*
X146178571Y-116450000D01*
X145464285Y-117235714D02*
X145392857Y-117307142D01*
X145464285Y-117378571D01*
X145535714Y-117307142D01*
X145464285Y-117235714D01*
X145464285Y-117378571D01*
X145464285Y-116450000D02*
X145392857Y-116521428D01*
X145464285Y-116592857D01*
X145535714Y-116521428D01*
X145464285Y-116450000D01*
X145464285Y-116592857D01*
X143678571Y-115807142D02*
X144964285Y-117735714D01*
X142107142Y-115807142D02*
X143392857Y-117735714D01*
X140964285Y-116378571D02*
X140964285Y-117592857D01*
X141035714Y-117735714D01*
X141107142Y-117807142D01*
X141250000Y-117878571D01*
X141464285Y-117878571D01*
X141607142Y-117807142D01*
X140964285Y-117307142D02*
X141107142Y-117378571D01*
X141392857Y-117378571D01*
X141535714Y-117307142D01*
X141607142Y-117235714D01*
X141678571Y-117092857D01*
X141678571Y-116664285D01*
X141607142Y-116521428D01*
X141535714Y-116450000D01*
X141392857Y-116378571D01*
X141107142Y-116378571D01*
X140964285Y-116450000D01*
X140250000Y-117378571D02*
X140250000Y-116378571D01*
X140250000Y-115878571D02*
X140321428Y-115950000D01*
X140250000Y-116021428D01*
X140178571Y-115950000D01*
X140250000Y-115878571D01*
X140250000Y-116021428D01*
X139750000Y-116378571D02*
X139178571Y-116378571D01*
X139535714Y-115878571D02*
X139535714Y-117164285D01*
X139464285Y-117307142D01*
X139321428Y-117378571D01*
X139178571Y-117378571D01*
X138678571Y-117378571D02*
X138678571Y-115878571D01*
X138035714Y-117378571D02*
X138035714Y-116592857D01*
X138107142Y-116450000D01*
X138250000Y-116378571D01*
X138464285Y-116378571D01*
X138607142Y-116450000D01*
X138678571Y-116521428D01*
X136678571Y-116378571D02*
X136678571Y-117378571D01*
X137321428Y-116378571D02*
X137321428Y-117164285D01*
X137250000Y-117307142D01*
X137107142Y-117378571D01*
X136892857Y-117378571D01*
X136749999Y-117307142D01*
X136678571Y-117235714D01*
X135964285Y-117378571D02*
X135964285Y-115878571D01*
X135964285Y-116450000D02*
X135821428Y-116378571D01*
X135535714Y-116378571D01*
X135392857Y-116450000D01*
X135321428Y-116521428D01*
X135249999Y-116664285D01*
X135249999Y-117092857D01*
X135321428Y-117235714D01*
X135392857Y-117307142D01*
X135535714Y-117378571D01*
X135821428Y-117378571D01*
X135964285Y-117307142D01*
X134607142Y-117235714D02*
X134535714Y-117307142D01*
X134607142Y-117378571D01*
X134678571Y-117307142D01*
X134607142Y-117235714D01*
X134607142Y-117378571D01*
X133249999Y-117307142D02*
X133392857Y-117378571D01*
X133678571Y-117378571D01*
X133821428Y-117307142D01*
X133892857Y-117235714D01*
X133964285Y-117092857D01*
X133964285Y-116664285D01*
X133892857Y-116521428D01*
X133821428Y-116450000D01*
X133678571Y-116378571D01*
X133392857Y-116378571D01*
X133249999Y-116450000D01*
X132392857Y-117378571D02*
X132535714Y-117307142D01*
X132607142Y-117235714D01*
X132678571Y-117092857D01*
X132678571Y-116664285D01*
X132607142Y-116521428D01*
X132535714Y-116450000D01*
X132392857Y-116378571D01*
X132178571Y-116378571D01*
X132035714Y-116450000D01*
X131964285Y-116521428D01*
X131892857Y-116664285D01*
X131892857Y-117092857D01*
X131964285Y-117235714D01*
X132035714Y-117307142D01*
X132178571Y-117378571D01*
X132392857Y-117378571D01*
X131249999Y-117378571D02*
X131249999Y-116378571D01*
X131249999Y-116521428D02*
X131178571Y-116450000D01*
X131035714Y-116378571D01*
X130821428Y-116378571D01*
X130678571Y-116450000D01*
X130607142Y-116592857D01*
X130607142Y-117378571D01*
X130607142Y-116592857D02*
X130535714Y-116450000D01*
X130392857Y-116378571D01*
X130178571Y-116378571D01*
X130035714Y-116450000D01*
X129964285Y-116592857D01*
X129964285Y-117378571D01*
X128178571Y-115807142D02*
X129464285Y-117735714D01*
X127892857Y-116378571D02*
X127321428Y-116378571D01*
X127678571Y-117378571D02*
X127678571Y-116092857D01*
X127607142Y-115950000D01*
X127464285Y-115878571D01*
X127321428Y-115878571D01*
X126821428Y-117378571D02*
X126821428Y-116378571D01*
X126821428Y-115878571D02*
X126892857Y-115950000D01*
X126821428Y-116021428D01*
X126749999Y-115950000D01*
X126821428Y-115878571D01*
X126821428Y-116021428D01*
X126107142Y-116378571D02*
X126107142Y-117378571D01*
X126107142Y-116521428D02*
X126035714Y-116450000D01*
X125892857Y-116378571D01*
X125678571Y-116378571D01*
X125535714Y-116450000D01*
X125464285Y-116592857D01*
X125464285Y-117378571D01*
X124107142Y-117378571D02*
X124107142Y-115878571D01*
X124107142Y-117307142D02*
X124249999Y-117378571D01*
X124535714Y-117378571D01*
X124678571Y-117307142D01*
X124749999Y-117235714D01*
X124821428Y-117092857D01*
X124821428Y-116664285D01*
X124749999Y-116521428D01*
X124678571Y-116450000D01*
X124535714Y-116378571D01*
X124249999Y-116378571D01*
X124107142Y-116450000D01*
X122821428Y-117307142D02*
X122964285Y-117378571D01*
X123249999Y-117378571D01*
X123392857Y-117307142D01*
X123464285Y-117164285D01*
X123464285Y-116592857D01*
X123392857Y-116450000D01*
X123249999Y-116378571D01*
X122964285Y-116378571D01*
X122821428Y-116450000D01*
X122749999Y-116592857D01*
X122749999Y-116735714D01*
X123464285Y-116878571D01*
X122107142Y-117378571D02*
X122107142Y-116378571D01*
X122107142Y-116664285D02*
X122035714Y-116521428D01*
X121964285Y-116450000D01*
X121821428Y-116378571D01*
X121678571Y-116378571D01*
X121249999Y-117307142D02*
X121107142Y-117378571D01*
X120821428Y-117378571D01*
X120678571Y-117307142D01*
X120607142Y-117164285D01*
X120607142Y-117092857D01*
X120678571Y-116950000D01*
X120821428Y-116878571D01*
X121035714Y-116878571D01*
X121178571Y-116807142D01*
X121249999Y-116664285D01*
X121249999Y-116592857D01*
X121178571Y-116450000D01*
X121035714Y-116378571D01*
X120821428Y-116378571D01*
X120678571Y-116450000D01*
X119392857Y-117307142D02*
X119535714Y-117378571D01*
X119821428Y-117378571D01*
X119964285Y-117307142D01*
X120035714Y-117164285D01*
X120035714Y-116592857D01*
X119964285Y-116450000D01*
X119821428Y-116378571D01*
X119535714Y-116378571D01*
X119392857Y-116450000D01*
X119321428Y-116592857D01*
X119321428Y-116735714D01*
X120035714Y-116878571D01*
X118107142Y-117307142D02*
X118249999Y-117378571D01*
X118535714Y-117378571D01*
X118678571Y-117307142D01*
X118749999Y-117164285D01*
X118749999Y-116592857D01*
X118678571Y-116450000D01*
X118535714Y-116378571D01*
X118249999Y-116378571D01*
X118107142Y-116450000D01*
X118035714Y-116592857D01*
X118035714Y-116735714D01*
X118749999Y-116878571D01*
X116321428Y-115807142D02*
X117607142Y-117735714D01*
X115821428Y-117378571D02*
X115821428Y-116378571D01*
X115821428Y-116664285D02*
X115749999Y-116521428D01*
X115678571Y-116450000D01*
X115535714Y-116378571D01*
X115392857Y-116378571D01*
X114249999Y-117307142D02*
X114392857Y-117378571D01*
X114678571Y-117378571D01*
X114821428Y-117307142D01*
X114892857Y-117235714D01*
X114964285Y-117092857D01*
X114964285Y-116664285D01*
X114892857Y-116521428D01*
X114821428Y-116450000D01*
X114678571Y-116378571D01*
X114392857Y-116378571D01*
X114249999Y-116450000D01*
X113821428Y-116378571D02*
X113249999Y-116378571D01*
X113607142Y-115878571D02*
X113607142Y-117164285D01*
X113535714Y-117307142D01*
X113392857Y-117378571D01*
X113249999Y-117378571D01*
X112178571Y-117307142D02*
X112321428Y-117378571D01*
X112607142Y-117378571D01*
X112749999Y-117307142D01*
X112821428Y-117164285D01*
X112821428Y-116592857D01*
X112749999Y-116450000D01*
X112607142Y-116378571D01*
X112321428Y-116378571D01*
X112178571Y-116450000D01*
X112107142Y-116592857D01*
X112107142Y-116735714D01*
X112821428Y-116878571D01*
X111249999Y-117378571D02*
X111392857Y-117307142D01*
X111464285Y-117164285D01*
X111464285Y-115878571D01*
X110107142Y-117307142D02*
X110249999Y-117378571D01*
X110535714Y-117378571D01*
X110678571Y-117307142D01*
X110749999Y-117164285D01*
X110749999Y-116592857D01*
X110678571Y-116450000D01*
X110535714Y-116378571D01*
X110249999Y-116378571D01*
X110107142Y-116450000D01*
X110035714Y-116592857D01*
X110035714Y-116735714D01*
X110749999Y-116878571D01*
X109392857Y-117378571D02*
X109392857Y-116378571D01*
X109392857Y-116521428D02*
X109321428Y-116450000D01*
X109178571Y-116378571D01*
X108964285Y-116378571D01*
X108821428Y-116450000D01*
X108749999Y-116592857D01*
X108749999Y-117378571D01*
X108749999Y-116592857D02*
X108678571Y-116450000D01*
X108535714Y-116378571D01*
X108321428Y-116378571D01*
X108178571Y-116450000D01*
X108107142Y-116592857D01*
X108107142Y-117378571D01*
X106821428Y-117307142D02*
X106964285Y-117378571D01*
X107249999Y-117378571D01*
X107392857Y-117307142D01*
X107464285Y-117164285D01*
X107464285Y-116592857D01*
X107392857Y-116450000D01*
X107249999Y-116378571D01*
X106964285Y-116378571D01*
X106821428Y-116450000D01*
X106749999Y-116592857D01*
X106749999Y-116735714D01*
X107464285Y-116878571D01*
X106321428Y-116378571D02*
X105749999Y-116378571D01*
X106107142Y-115878571D02*
X106107142Y-117164285D01*
X106035714Y-117307142D01*
X105892857Y-117378571D01*
X105749999Y-117378571D01*
X105249999Y-117378571D02*
X105249999Y-116378571D01*
X105249999Y-116664285D02*
X105178571Y-116521428D01*
X105107142Y-116450000D01*
X104964285Y-116378571D01*
X104821428Y-116378571D01*
X104464285Y-116378571D02*
X104107142Y-117378571D01*
X103749999Y-116378571D02*
X104107142Y-117378571D01*
X104249999Y-117735714D01*
X104321428Y-117807142D01*
X104464285Y-117878571D01*
D11*
G36*
X66580197Y-99900640D02*
X66411324Y-100796427D01*
X65788204Y-101053298D01*
X65165084Y-101310168D01*
X64417547Y-100801849D01*
X64208198Y-100660316D01*
X64018957Y-100533945D01*
X63858657Y-100428507D01*
X63736126Y-100349770D01*
X63660198Y-100303505D01*
X63639520Y-100293529D01*
X63602269Y-100319186D01*
X63522668Y-100390115D01*
X63409639Y-100497257D01*
X63272105Y-100631550D01*
X63118988Y-100783934D01*
X62959211Y-100945347D01*
X62801695Y-101106730D01*
X62655363Y-101259022D01*
X62529137Y-101393162D01*
X62431940Y-101500089D01*
X62372693Y-101570742D01*
X62358529Y-101594388D01*
X62378913Y-101637979D01*
X62436059Y-101733481D01*
X62523959Y-101871550D01*
X62636604Y-102042845D01*
X62767987Y-102238025D01*
X62844118Y-102349352D01*
X62982882Y-102552633D01*
X63106189Y-102736073D01*
X63208055Y-102890542D01*
X63282499Y-103006909D01*
X63323539Y-103076042D01*
X63329706Y-103090570D01*
X63315726Y-103131860D01*
X63277618Y-103228092D01*
X63221133Y-103365734D01*
X63152020Y-103531258D01*
X63076030Y-103711132D01*
X62998911Y-103891828D01*
X62926415Y-104059814D01*
X62864291Y-104201560D01*
X62818288Y-104303537D01*
X62794157Y-104352214D01*
X62792733Y-104354130D01*
X62754842Y-104363425D01*
X62653931Y-104384160D01*
X62500460Y-104414298D01*
X62304888Y-104451801D01*
X62077675Y-104494629D01*
X61945109Y-104519326D01*
X61702321Y-104565553D01*
X61483026Y-104609540D01*
X61298319Y-104648881D01*
X61159295Y-104681169D01*
X61077048Y-104703997D01*
X61060515Y-104711240D01*
X61044322Y-104760261D01*
X61031256Y-104870977D01*
X61021309Y-105030438D01*
X61014472Y-105225700D01*
X61010736Y-105443814D01*
X61010093Y-105671835D01*
X61012532Y-105896815D01*
X61018047Y-106105809D01*
X61026626Y-106285868D01*
X61038263Y-106424047D01*
X61052948Y-106507398D01*
X61061755Y-106524750D01*
X61114401Y-106545548D01*
X61225957Y-106575282D01*
X61381665Y-106610459D01*
X61566771Y-106647586D01*
X61631387Y-106659597D01*
X61942929Y-106716662D01*
X62189024Y-106762618D01*
X62377805Y-106799293D01*
X62517402Y-106828513D01*
X62615948Y-106852104D01*
X62681574Y-106871892D01*
X62722411Y-106889706D01*
X62746591Y-106907370D01*
X62749974Y-106910861D01*
X62783745Y-106967100D01*
X62835263Y-107076547D01*
X62899383Y-107225800D01*
X62970961Y-107401459D01*
X63044854Y-107590121D01*
X63115917Y-107778385D01*
X63179007Y-107952848D01*
X63228979Y-108100108D01*
X63260688Y-108206764D01*
X63268992Y-108259413D01*
X63268300Y-108261257D01*
X63240164Y-108304292D01*
X63176335Y-108398978D01*
X63083520Y-108535460D01*
X62968427Y-108703882D01*
X62837763Y-108894390D01*
X62800552Y-108948529D01*
X62667871Y-109144804D01*
X62551117Y-109323886D01*
X62456651Y-109475492D01*
X62390832Y-109589338D01*
X62360022Y-109655141D01*
X62358529Y-109663225D01*
X62384416Y-109705715D01*
X62455946Y-109789891D01*
X62563924Y-109906705D01*
X62699154Y-110047110D01*
X62852442Y-110202061D01*
X63014591Y-110362509D01*
X63176407Y-110519409D01*
X63328694Y-110663713D01*
X63462257Y-110786376D01*
X63567900Y-110878350D01*
X63636428Y-110930589D01*
X63655386Y-110939118D01*
X63699513Y-110919029D01*
X63789858Y-110864849D01*
X63911705Y-110785704D01*
X64005454Y-110722001D01*
X64175322Y-110605110D01*
X64376488Y-110467476D01*
X64578267Y-110330063D01*
X64686750Y-110256519D01*
X65053942Y-110008155D01*
X65362174Y-110174813D01*
X65502596Y-110247822D01*
X65622004Y-110304571D01*
X65702798Y-110336937D01*
X65723364Y-110341441D01*
X65748094Y-110308189D01*
X65796882Y-110214224D01*
X65866087Y-110068213D01*
X65952065Y-109878824D01*
X66051176Y-109654724D01*
X66159776Y-109404581D01*
X66274225Y-109137063D01*
X66390880Y-108860836D01*
X66506099Y-108584568D01*
X66616240Y-108316927D01*
X66717661Y-108066580D01*
X66806720Y-107842195D01*
X66879775Y-107652439D01*
X66933184Y-107505980D01*
X66963305Y-107411485D01*
X66968149Y-107379031D01*
X66929755Y-107337636D01*
X66845692Y-107270438D01*
X66733533Y-107191400D01*
X66724119Y-107185147D01*
X66434232Y-106953103D01*
X66200488Y-106682386D01*
X66024913Y-106381653D01*
X65909531Y-106059561D01*
X65856370Y-105724765D01*
X65867453Y-105385922D01*
X65944808Y-105051688D01*
X66090460Y-104730719D01*
X66133312Y-104660495D01*
X66356198Y-104376927D01*
X66619509Y-104149218D01*
X66914135Y-103978551D01*
X67230959Y-103866112D01*
X67560870Y-103813083D01*
X67894754Y-103820651D01*
X68223497Y-103889998D01*
X68537986Y-104022309D01*
X68829107Y-104218768D01*
X68919160Y-104298506D01*
X69148347Y-104548108D01*
X69315354Y-104810868D01*
X69429915Y-105105399D01*
X69493719Y-105397075D01*
X69509470Y-105725012D01*
X69456949Y-106054577D01*
X69341490Y-106374630D01*
X69168429Y-106674032D01*
X68943101Y-106941643D01*
X68670840Y-107166325D01*
X68635058Y-107190008D01*
X68521698Y-107267568D01*
X68435522Y-107334768D01*
X68394323Y-107377675D01*
X68393724Y-107379031D01*
X68402569Y-107425446D01*
X68437631Y-107530786D01*
X68495267Y-107686388D01*
X68571834Y-107883584D01*
X68663686Y-108113710D01*
X68767183Y-108368101D01*
X68878679Y-108638090D01*
X68994532Y-108915012D01*
X69111097Y-109190201D01*
X69224733Y-109454993D01*
X69331794Y-109700721D01*
X69428638Y-109918721D01*
X69511621Y-110100326D01*
X69577099Y-110236871D01*
X69621431Y-110319690D01*
X69639283Y-110341441D01*
X69693834Y-110324504D01*
X69795905Y-110279077D01*
X69927895Y-110213280D01*
X70000474Y-110174813D01*
X70308705Y-110008155D01*
X70675897Y-110256519D01*
X70863340Y-110383754D01*
X71068557Y-110523773D01*
X71260867Y-110655612D01*
X71357193Y-110722001D01*
X71492673Y-110812976D01*
X71607393Y-110885071D01*
X71686388Y-110929154D01*
X71712046Y-110938473D01*
X71749391Y-110913334D01*
X71832042Y-110843154D01*
X71951985Y-110735220D01*
X72101209Y-110596818D01*
X72271699Y-110435235D01*
X72379526Y-110331488D01*
X72568172Y-110146135D01*
X72731205Y-109980351D01*
X72862032Y-109841227D01*
X72954065Y-109735856D01*
X73000713Y-109671329D01*
X73005188Y-109658234D01*
X72984420Y-109608425D01*
X72927031Y-109507713D01*
X72839387Y-109366295D01*
X72727854Y-109194367D01*
X72598797Y-109002124D01*
X72562096Y-108948529D01*
X72428368Y-108753733D01*
X72308393Y-108578353D01*
X72208879Y-108432243D01*
X72136533Y-108325258D01*
X72098064Y-108267255D01*
X72094347Y-108261257D01*
X72099905Y-108215032D01*
X72129407Y-108113398D01*
X72177709Y-107969758D01*
X72239667Y-107797514D01*
X72310137Y-107610066D01*
X72383975Y-107420818D01*
X72456037Y-107243171D01*
X72521178Y-107090527D01*
X72574255Y-106976288D01*
X72610123Y-106913856D01*
X72612673Y-106910861D01*
X72634606Y-106893019D01*
X72671652Y-106875374D01*
X72731941Y-106856101D01*
X72823604Y-106833374D01*
X72954774Y-106805364D01*
X73133582Y-106770247D01*
X73368158Y-106726195D01*
X73666635Y-106671382D01*
X73731260Y-106659597D01*
X73922794Y-106622591D01*
X74089769Y-106586389D01*
X74217432Y-106554485D01*
X74291024Y-106530372D01*
X74300892Y-106524750D01*
X74317153Y-106474910D01*
X74330370Y-106363532D01*
X74340536Y-106203563D01*
X74347640Y-106007950D01*
X74351674Y-105789640D01*
X74352630Y-105561579D01*
X74350498Y-105336714D01*
X74345269Y-105127991D01*
X74336935Y-104948358D01*
X74325487Y-104810762D01*
X74310916Y-104728148D01*
X74302132Y-104711240D01*
X74253230Y-104694184D01*
X74141873Y-104666436D01*
X73979156Y-104630403D01*
X73776174Y-104588493D01*
X73544021Y-104543111D01*
X73417538Y-104519326D01*
X73177555Y-104474465D01*
X72963549Y-104433825D01*
X72785978Y-104399446D01*
X72655302Y-104373365D01*
X72581982Y-104357621D01*
X72569915Y-104354130D01*
X72549519Y-104314779D01*
X72506406Y-104219993D01*
X72446321Y-104083315D01*
X72375013Y-103918286D01*
X72298227Y-103738447D01*
X72221710Y-103557340D01*
X72151210Y-103388507D01*
X72092473Y-103245488D01*
X72051246Y-103141826D01*
X72033276Y-103091061D01*
X72032941Y-103088842D01*
X72053313Y-103048796D01*
X72110427Y-102956639D01*
X72198279Y-102821533D01*
X72310867Y-102652635D01*
X72442189Y-102459105D01*
X72518529Y-102347941D01*
X72657636Y-102144116D01*
X72781188Y-101959063D01*
X72883158Y-101802146D01*
X72957517Y-101682724D01*
X72998237Y-101610160D01*
X73004118Y-101593893D01*
X72978837Y-101556030D01*
X72908948Y-101475186D01*
X72803377Y-101360419D01*
X72671052Y-101220785D01*
X72520901Y-101065342D01*
X72361852Y-100903146D01*
X72202833Y-100743254D01*
X72052771Y-100594724D01*
X71920594Y-100466613D01*
X71815230Y-100367977D01*
X71745607Y-100307873D01*
X71722315Y-100293529D01*
X71684390Y-100313699D01*
X71593683Y-100370363D01*
X71459011Y-100457753D01*
X71289195Y-100570100D01*
X71093054Y-100701638D01*
X70945100Y-100801849D01*
X70197564Y-101310168D01*
X69574444Y-101053298D01*
X68951324Y-100796427D01*
X68613576Y-99004853D01*
X66749071Y-99004853D01*
X66580197Y-99900640D01*
X66580197Y-99900640D01*
G37*
X66580197Y-99900640D02*
X66411324Y-100796427D01*
X65788204Y-101053298D01*
X65165084Y-101310168D01*
X64417547Y-100801849D01*
X64208198Y-100660316D01*
X64018957Y-100533945D01*
X63858657Y-100428507D01*
X63736126Y-100349770D01*
X63660198Y-100303505D01*
X63639520Y-100293529D01*
X63602269Y-100319186D01*
X63522668Y-100390115D01*
X63409639Y-100497257D01*
X63272105Y-100631550D01*
X63118988Y-100783934D01*
X62959211Y-100945347D01*
X62801695Y-101106730D01*
X62655363Y-101259022D01*
X62529137Y-101393162D01*
X62431940Y-101500089D01*
X62372693Y-101570742D01*
X62358529Y-101594388D01*
X62378913Y-101637979D01*
X62436059Y-101733481D01*
X62523959Y-101871550D01*
X62636604Y-102042845D01*
X62767987Y-102238025D01*
X62844118Y-102349352D01*
X62982882Y-102552633D01*
X63106189Y-102736073D01*
X63208055Y-102890542D01*
X63282499Y-103006909D01*
X63323539Y-103076042D01*
X63329706Y-103090570D01*
X63315726Y-103131860D01*
X63277618Y-103228092D01*
X63221133Y-103365734D01*
X63152020Y-103531258D01*
X63076030Y-103711132D01*
X62998911Y-103891828D01*
X62926415Y-104059814D01*
X62864291Y-104201560D01*
X62818288Y-104303537D01*
X62794157Y-104352214D01*
X62792733Y-104354130D01*
X62754842Y-104363425D01*
X62653931Y-104384160D01*
X62500460Y-104414298D01*
X62304888Y-104451801D01*
X62077675Y-104494629D01*
X61945109Y-104519326D01*
X61702321Y-104565553D01*
X61483026Y-104609540D01*
X61298319Y-104648881D01*
X61159295Y-104681169D01*
X61077048Y-104703997D01*
X61060515Y-104711240D01*
X61044322Y-104760261D01*
X61031256Y-104870977D01*
X61021309Y-105030438D01*
X61014472Y-105225700D01*
X61010736Y-105443814D01*
X61010093Y-105671835D01*
X61012532Y-105896815D01*
X61018047Y-106105809D01*
X61026626Y-106285868D01*
X61038263Y-106424047D01*
X61052948Y-106507398D01*
X61061755Y-106524750D01*
X61114401Y-106545548D01*
X61225957Y-106575282D01*
X61381665Y-106610459D01*
X61566771Y-106647586D01*
X61631387Y-106659597D01*
X61942929Y-106716662D01*
X62189024Y-106762618D01*
X62377805Y-106799293D01*
X62517402Y-106828513D01*
X62615948Y-106852104D01*
X62681574Y-106871892D01*
X62722411Y-106889706D01*
X62746591Y-106907370D01*
X62749974Y-106910861D01*
X62783745Y-106967100D01*
X62835263Y-107076547D01*
X62899383Y-107225800D01*
X62970961Y-107401459D01*
X63044854Y-107590121D01*
X63115917Y-107778385D01*
X63179007Y-107952848D01*
X63228979Y-108100108D01*
X63260688Y-108206764D01*
X63268992Y-108259413D01*
X63268300Y-108261257D01*
X63240164Y-108304292D01*
X63176335Y-108398978D01*
X63083520Y-108535460D01*
X62968427Y-108703882D01*
X62837763Y-108894390D01*
X62800552Y-108948529D01*
X62667871Y-109144804D01*
X62551117Y-109323886D01*
X62456651Y-109475492D01*
X62390832Y-109589338D01*
X62360022Y-109655141D01*
X62358529Y-109663225D01*
X62384416Y-109705715D01*
X62455946Y-109789891D01*
X62563924Y-109906705D01*
X62699154Y-110047110D01*
X62852442Y-110202061D01*
X63014591Y-110362509D01*
X63176407Y-110519409D01*
X63328694Y-110663713D01*
X63462257Y-110786376D01*
X63567900Y-110878350D01*
X63636428Y-110930589D01*
X63655386Y-110939118D01*
X63699513Y-110919029D01*
X63789858Y-110864849D01*
X63911705Y-110785704D01*
X64005454Y-110722001D01*
X64175322Y-110605110D01*
X64376488Y-110467476D01*
X64578267Y-110330063D01*
X64686750Y-110256519D01*
X65053942Y-110008155D01*
X65362174Y-110174813D01*
X65502596Y-110247822D01*
X65622004Y-110304571D01*
X65702798Y-110336937D01*
X65723364Y-110341441D01*
X65748094Y-110308189D01*
X65796882Y-110214224D01*
X65866087Y-110068213D01*
X65952065Y-109878824D01*
X66051176Y-109654724D01*
X66159776Y-109404581D01*
X66274225Y-109137063D01*
X66390880Y-108860836D01*
X66506099Y-108584568D01*
X66616240Y-108316927D01*
X66717661Y-108066580D01*
X66806720Y-107842195D01*
X66879775Y-107652439D01*
X66933184Y-107505980D01*
X66963305Y-107411485D01*
X66968149Y-107379031D01*
X66929755Y-107337636D01*
X66845692Y-107270438D01*
X66733533Y-107191400D01*
X66724119Y-107185147D01*
X66434232Y-106953103D01*
X66200488Y-106682386D01*
X66024913Y-106381653D01*
X65909531Y-106059561D01*
X65856370Y-105724765D01*
X65867453Y-105385922D01*
X65944808Y-105051688D01*
X66090460Y-104730719D01*
X66133312Y-104660495D01*
X66356198Y-104376927D01*
X66619509Y-104149218D01*
X66914135Y-103978551D01*
X67230959Y-103866112D01*
X67560870Y-103813083D01*
X67894754Y-103820651D01*
X68223497Y-103889998D01*
X68537986Y-104022309D01*
X68829107Y-104218768D01*
X68919160Y-104298506D01*
X69148347Y-104548108D01*
X69315354Y-104810868D01*
X69429915Y-105105399D01*
X69493719Y-105397075D01*
X69509470Y-105725012D01*
X69456949Y-106054577D01*
X69341490Y-106374630D01*
X69168429Y-106674032D01*
X68943101Y-106941643D01*
X68670840Y-107166325D01*
X68635058Y-107190008D01*
X68521698Y-107267568D01*
X68435522Y-107334768D01*
X68394323Y-107377675D01*
X68393724Y-107379031D01*
X68402569Y-107425446D01*
X68437631Y-107530786D01*
X68495267Y-107686388D01*
X68571834Y-107883584D01*
X68663686Y-108113710D01*
X68767183Y-108368101D01*
X68878679Y-108638090D01*
X68994532Y-108915012D01*
X69111097Y-109190201D01*
X69224733Y-109454993D01*
X69331794Y-109700721D01*
X69428638Y-109918721D01*
X69511621Y-110100326D01*
X69577099Y-110236871D01*
X69621431Y-110319690D01*
X69639283Y-110341441D01*
X69693834Y-110324504D01*
X69795905Y-110279077D01*
X69927895Y-110213280D01*
X70000474Y-110174813D01*
X70308705Y-110008155D01*
X70675897Y-110256519D01*
X70863340Y-110383754D01*
X71068557Y-110523773D01*
X71260867Y-110655612D01*
X71357193Y-110722001D01*
X71492673Y-110812976D01*
X71607393Y-110885071D01*
X71686388Y-110929154D01*
X71712046Y-110938473D01*
X71749391Y-110913334D01*
X71832042Y-110843154D01*
X71951985Y-110735220D01*
X72101209Y-110596818D01*
X72271699Y-110435235D01*
X72379526Y-110331488D01*
X72568172Y-110146135D01*
X72731205Y-109980351D01*
X72862032Y-109841227D01*
X72954065Y-109735856D01*
X73000713Y-109671329D01*
X73005188Y-109658234D01*
X72984420Y-109608425D01*
X72927031Y-109507713D01*
X72839387Y-109366295D01*
X72727854Y-109194367D01*
X72598797Y-109002124D01*
X72562096Y-108948529D01*
X72428368Y-108753733D01*
X72308393Y-108578353D01*
X72208879Y-108432243D01*
X72136533Y-108325258D01*
X72098064Y-108267255D01*
X72094347Y-108261257D01*
X72099905Y-108215032D01*
X72129407Y-108113398D01*
X72177709Y-107969758D01*
X72239667Y-107797514D01*
X72310137Y-107610066D01*
X72383975Y-107420818D01*
X72456037Y-107243171D01*
X72521178Y-107090527D01*
X72574255Y-106976288D01*
X72610123Y-106913856D01*
X72612673Y-106910861D01*
X72634606Y-106893019D01*
X72671652Y-106875374D01*
X72731941Y-106856101D01*
X72823604Y-106833374D01*
X72954774Y-106805364D01*
X73133582Y-106770247D01*
X73368158Y-106726195D01*
X73666635Y-106671382D01*
X73731260Y-106659597D01*
X73922794Y-106622591D01*
X74089769Y-106586389D01*
X74217432Y-106554485D01*
X74291024Y-106530372D01*
X74300892Y-106524750D01*
X74317153Y-106474910D01*
X74330370Y-106363532D01*
X74340536Y-106203563D01*
X74347640Y-106007950D01*
X74351674Y-105789640D01*
X74352630Y-105561579D01*
X74350498Y-105336714D01*
X74345269Y-105127991D01*
X74336935Y-104948358D01*
X74325487Y-104810762D01*
X74310916Y-104728148D01*
X74302132Y-104711240D01*
X74253230Y-104694184D01*
X74141873Y-104666436D01*
X73979156Y-104630403D01*
X73776174Y-104588493D01*
X73544021Y-104543111D01*
X73417538Y-104519326D01*
X73177555Y-104474465D01*
X72963549Y-104433825D01*
X72785978Y-104399446D01*
X72655302Y-104373365D01*
X72581982Y-104357621D01*
X72569915Y-104354130D01*
X72549519Y-104314779D01*
X72506406Y-104219993D01*
X72446321Y-104083315D01*
X72375013Y-103918286D01*
X72298227Y-103738447D01*
X72221710Y-103557340D01*
X72151210Y-103388507D01*
X72092473Y-103245488D01*
X72051246Y-103141826D01*
X72033276Y-103091061D01*
X72032941Y-103088842D01*
X72053313Y-103048796D01*
X72110427Y-102956639D01*
X72198279Y-102821533D01*
X72310867Y-102652635D01*
X72442189Y-102459105D01*
X72518529Y-102347941D01*
X72657636Y-102144116D01*
X72781188Y-101959063D01*
X72883158Y-101802146D01*
X72957517Y-101682724D01*
X72998237Y-101610160D01*
X73004118Y-101593893D01*
X72978837Y-101556030D01*
X72908948Y-101475186D01*
X72803377Y-101360419D01*
X72671052Y-101220785D01*
X72520901Y-101065342D01*
X72361852Y-100903146D01*
X72202833Y-100743254D01*
X72052771Y-100594724D01*
X71920594Y-100466613D01*
X71815230Y-100367977D01*
X71745607Y-100307873D01*
X71722315Y-100293529D01*
X71684390Y-100313699D01*
X71593683Y-100370363D01*
X71459011Y-100457753D01*
X71289195Y-100570100D01*
X71093054Y-100701638D01*
X70945100Y-100801849D01*
X70197564Y-101310168D01*
X69574444Y-101053298D01*
X68951324Y-100796427D01*
X68613576Y-99004853D01*
X66749071Y-99004853D01*
X66580197Y-99900640D01*
%LPC*%
D12*
X155350000Y-52425000D03*
X155350000Y-59675000D03*
D13*
X152670000Y-53625000D03*
X152670000Y-58475000D03*
D14*
X115100000Y-46400000D03*
X105100000Y-46400000D03*
X83100000Y-46400000D03*
X73100000Y-46400000D03*
X65000000Y-73500000D03*
X65000000Y-83500000D03*
D15*
X129100000Y-57100000D03*
D16*
X129100000Y-55830000D03*
D17*
X117300000Y-105450000D03*
D18*
X114800000Y-105450000D03*
D19*
X127000000Y-51300000D03*
D20*
X128270000Y-51300000D03*
D21*
X138300000Y-59400000D03*
D22*
X135760000Y-59400000D03*
X149250000Y-67640000D03*
D21*
X149250000Y-65100000D03*
D23*
X148450000Y-107290000D03*
D24*
X148450000Y-104750000D03*
D23*
X148450000Y-100590000D03*
D24*
X148450000Y-98050000D03*
D23*
X148450000Y-93850000D03*
D24*
X148450000Y-91310000D03*
D25*
X77300000Y-115000000D03*
D26*
X81110000Y-115000000D03*
D24*
X148450000Y-84800000D03*
D23*
X148450000Y-87340000D03*
D24*
X148450000Y-78100000D03*
D23*
X148450000Y-80640000D03*
D24*
X148450000Y-71500000D03*
D23*
X148450000Y-74040000D03*
D27*
X118500000Y-58910000D03*
X118500000Y-55090000D03*
X118500000Y-57000000D03*
D28*
X97100000Y-51500000D03*
X97100000Y-62500000D03*
D27*
X86500000Y-58910000D03*
X86500000Y-55090000D03*
X86500000Y-57000000D03*
D28*
X65100000Y-51500000D03*
X65100000Y-62500000D03*
D26*
X91210000Y-115000000D03*
D25*
X87400000Y-115000000D03*
D29*
X137680000Y-47310000D03*
X137680000Y-49850000D03*
X135140000Y-47310000D03*
X135140000Y-49850000D03*
X132600000Y-47310000D03*
D30*
X132600000Y-49850000D03*
D18*
X110500000Y-82000000D03*
D17*
X108000000Y-82000000D03*
D18*
X110400000Y-73700000D03*
D17*
X107900000Y-73700000D03*
X88300000Y-76800000D03*
D18*
X90800000Y-76800000D03*
D29*
X155290000Y-67630000D03*
X152750000Y-67630000D03*
X155290000Y-65090000D03*
X152750000Y-65090000D03*
X155290000Y-62550000D03*
D30*
X152750000Y-62550000D03*
D31*
X137480000Y-67350000D03*
X140020000Y-67350000D03*
X142560000Y-67350000D03*
D32*
X145100000Y-67350000D03*
D33*
X99375000Y-74400000D03*
D30*
X132600000Y-55700000D03*
D29*
X132600000Y-53160000D03*
X135140000Y-55700000D03*
X135140000Y-53160000D03*
X137680000Y-55700000D03*
X137680000Y-53160000D03*
X140220000Y-55700000D03*
X140220000Y-53160000D03*
X142760000Y-55700000D03*
X142760000Y-53160000D03*
X145300000Y-55700000D03*
X145300000Y-53160000D03*
D34*
X64000000Y-42000000D03*
X64000000Y-116000000D03*
X156000000Y-42000000D03*
X156000000Y-116000000D03*
D24*
X119200000Y-82000000D03*
D23*
X119200000Y-84540000D03*
D35*
X140840000Y-44000000D03*
X143380000Y-44000000D03*
X148460000Y-44000000D03*
X151000000Y-44000000D03*
X145920000Y-44000000D03*
D36*
X150970000Y-48100000D03*
D37*
X149700000Y-48100000D03*
D38*
X99400000Y-78300000D03*
X99400000Y-70300000D03*
X104150000Y-74400000D03*
X94600000Y-74400000D03*
X94600000Y-78450000D03*
X94600000Y-70300000D03*
D39*
X116850000Y-77200000D03*
D38*
X104150000Y-70300000D03*
X104150000Y-78450000D03*
D40*
X131000000Y-70700000D03*
X131456193Y-63272459D03*
X141800000Y-62700000D03*
D39*
X126725003Y-59100000D03*
X86320000Y-86490000D03*
X84000000Y-81800000D03*
X72000000Y-78700000D03*
X70500000Y-77100000D03*
X74700000Y-70200000D03*
X85100000Y-70800000D03*
X90700000Y-73300000D03*
X93300000Y-101400000D03*
X74800000Y-109800000D03*
X61100000Y-79500000D03*
D38*
X140100000Y-88500000D03*
X140200000Y-94800000D03*
X139800000Y-101700000D03*
X139900000Y-108300000D03*
X143100000Y-102900000D03*
X143200000Y-96300000D03*
X143400000Y-89800000D03*
X143300000Y-82900000D03*
X139900000Y-81700000D03*
X143500000Y-76500000D03*
X140470000Y-76280000D03*
X145200000Y-75800000D03*
X145200000Y-82400000D03*
X145000000Y-89100000D03*
X145000000Y-95800000D03*
X145000000Y-102500000D03*
X145400000Y-109000000D03*
X143300000Y-109800000D03*
X82700000Y-98000000D03*
X73400000Y-97900000D03*
X85500000Y-103000000D03*
X75500000Y-103400000D03*
X81400000Y-101300000D03*
X80100000Y-101300000D03*
X78800000Y-101300000D03*
X88800000Y-101300000D03*
X90100000Y-101300000D03*
X91400000Y-101300000D03*
D40*
X124900000Y-98900000D03*
X133900000Y-81500000D03*
D38*
X112100000Y-108400000D03*
X103700000Y-106900000D03*
D39*
X123800000Y-95000000D03*
X123000000Y-95500000D03*
X120900000Y-101500000D03*
X120900000Y-102400000D03*
X121800000Y-101900000D03*
X108100000Y-104000000D03*
D40*
X123300000Y-101900000D03*
X124200000Y-74800000D03*
X122500000Y-79300000D03*
X130600000Y-87750000D03*
D38*
X130700000Y-110600000D03*
X130700000Y-108350000D03*
X126400000Y-108550000D03*
X126400000Y-110600000D03*
D40*
X121150000Y-88100000D03*
X89400000Y-40250000D03*
X91150000Y-44900000D03*
X89350000Y-48400000D03*
X91000000Y-52850000D03*
X89900000Y-54400000D03*
X123850000Y-47300000D03*
X121950000Y-42850000D03*
X123600000Y-54900000D03*
X122100000Y-56800000D03*
X121650000Y-48400000D03*
X123150000Y-41450000D03*
X117400000Y-67560000D03*
X118010000Y-68500000D03*
X122910916Y-65270984D03*
X129440000Y-75740000D03*
X125820000Y-93740000D03*
D38*
X105900000Y-70200000D03*
X105900000Y-74400000D03*
X105900000Y-78500000D03*
X105900000Y-77100000D03*
X105900000Y-75800000D03*
X105900000Y-73000000D03*
X105900000Y-71600000D03*
D40*
X125800000Y-59100000D03*
X129700000Y-51500000D03*
X133000000Y-69350000D03*
D38*
X127300000Y-94700000D03*
X128600000Y-94700000D03*
X130000000Y-94700000D03*
X131400000Y-94700000D03*
D40*
X136000000Y-62800000D03*
D39*
X119800000Y-73200000D03*
X117400000Y-62800000D03*
X122900000Y-61900000D03*
D40*
X128400000Y-79500000D03*
X139249861Y-45125000D03*
X121960000Y-67450000D03*
X122870000Y-66120000D03*
D38*
X92400000Y-58500000D03*
X85900000Y-94700000D03*
X81800000Y-96300000D03*
X108100000Y-109800000D03*
X106100000Y-110000000D03*
X69600000Y-62500000D03*
X69600000Y-61000000D03*
X69600000Y-59400000D03*
X69600000Y-64000000D03*
X68600000Y-58000000D03*
X69600000Y-65500000D03*
X68500000Y-66900000D03*
X92400000Y-62400000D03*
X92400000Y-61100000D03*
X92400000Y-59800000D03*
X92400000Y-63700000D03*
X92400000Y-65000000D03*
X68499999Y-70000001D03*
X68500000Y-77000000D03*
X70400000Y-73600000D03*
X69950000Y-71600000D03*
X69800000Y-75500000D03*
X110400000Y-75500000D03*
X110400000Y-76900000D03*
X110400000Y-78400000D03*
X110400000Y-79800000D03*
X111800000Y-79800000D03*
X111800000Y-78400000D03*
X111800000Y-76900000D03*
X111800000Y-75500000D03*
D40*
X123060135Y-94104774D03*
X77600000Y-74450000D03*
X111400000Y-69100000D03*
D39*
X90750000Y-57100000D03*
D38*
X116050000Y-72600000D03*
D40*
X94200000Y-40250000D03*
X126500000Y-44450000D03*
X126500000Y-86400000D03*
X131262902Y-65031998D03*
X128600000Y-81800000D03*
X127300000Y-73800000D03*
X129700000Y-74700000D03*
X135900000Y-66000000D03*
X139600000Y-72700000D03*
D38*
X65200000Y-45400000D03*
X66700000Y-45500000D03*
X63700000Y-45500000D03*
X69400000Y-51400000D03*
X69400000Y-52800000D03*
X69400000Y-54200000D03*
X69400000Y-50000000D03*
X101300000Y-52300000D03*
X101300000Y-49500000D03*
X101300000Y-53700000D03*
X101300000Y-50900000D03*
X95700000Y-45500000D03*
X98700000Y-45500000D03*
X97200000Y-45400000D03*
D40*
X126075000Y-61900000D03*
X133816699Y-75583496D03*
X130440380Y-67059620D03*
X136100000Y-65100000D03*
X134500000Y-62800000D03*
X132975000Y-74000000D03*
X128100000Y-64500000D03*
X133650000Y-74750000D03*
X127425000Y-61920000D03*
X134900000Y-76500000D03*
X129480760Y-67019240D03*
X87300000Y-49800000D03*
X125500000Y-67700000D03*
X121636330Y-51386330D03*
X125500000Y-71100000D03*
X101900000Y-108400000D03*
X150150000Y-57638360D03*
D39*
X93600000Y-84250000D03*
X104450000Y-83550000D03*
D40*
X126600000Y-75700000D03*
X131250000Y-64100000D03*
X122700000Y-63200000D03*
X123810000Y-71380000D03*
X120550000Y-89700000D03*
X120650000Y-86100000D03*
X125630000Y-63510000D03*
X122780000Y-92100000D03*
X129523619Y-61966381D03*
X122740000Y-93010000D03*
X134499990Y-79990000D03*
X130099625Y-58519341D03*
X134500000Y-67200000D03*
X134593948Y-69350000D03*
X139000000Y-69500000D03*
X146006859Y-65441157D03*
X148900000Y-61900000D03*
M02*
