%TF.GenerationSoftware,KiCad,Pcbnew,(5.0.0)*%
%TF.CreationDate,2019-06-23T21:00:31+03:00*%
%TF.ProjectId,Telemetry,54656C656D657472792E6B696361645F,0.1*%
%TF.SameCoordinates,Original*%
%TF.FileFunction,Copper,L2,Inr,Plane*%
%TF.FilePolarity,Positive*%
%FSLAX46Y46*%
G04 Gerber Fmt 4.6, Leading zero omitted, Abs format (unit mm)*
G04 Created by KiCad (PCBNEW (5.0.0)) date 06/23/19 21:00:31*
%MOMM*%
%LPD*%
G01*
G04 APERTURE LIST*
%ADD10O,1.550000X1.000000*%
%ADD11O,0.950000X1.250000*%
%ADD12C,7.800000*%
%ADD13R,1.000000X1.000000*%
%ADD14O,1.000000X1.000000*%
%ADD15C,1.300000*%
%ADD16R,1.300000X1.300000*%
%ADD17R,2.032000X2.032000*%
%ADD18O,2.032000X2.032000*%
%ADD19O,1.700000X1.700000*%
%ADD20R,1.700000X1.700000*%
%ADD21R,1.800000X3.600000*%
%ADD22O,1.800000X3.600000*%
%ADD23C,1.500000*%
%ADD24O,6.000000X10.000000*%
%ADD25O,1.727200X2.032000*%
%ADD26R,1.727200X2.032000*%
%ADD27R,1.727200X1.727200*%
%ADD28O,1.727200X1.727200*%
%ADD29C,1.998980*%
%ADD30C,1.200000*%
%ADD31C,0.800000*%
%ADD32C,0.650000*%
%ADD33C,0.220000*%
G04 APERTURE END LIST*
D10*
X155350000Y-52425000D03*
X155350000Y-59675000D03*
D11*
X152670000Y-53625000D03*
X152670000Y-58475000D03*
D12*
X115100000Y-46400000D03*
X105100000Y-46400000D03*
X83100000Y-46400000D03*
X73100000Y-46400000D03*
X65000000Y-73500000D03*
X65000000Y-83500000D03*
D13*
X129100000Y-57100000D03*
D14*
X129100000Y-55830000D03*
D15*
X117300000Y-105450000D03*
D16*
X114800000Y-105450000D03*
D13*
X127000000Y-51300000D03*
D14*
X128270000Y-51300000D03*
D17*
X138300000Y-59400000D03*
D18*
X135760000Y-59400000D03*
X149250000Y-67640000D03*
D17*
X149250000Y-65100000D03*
D19*
X148450000Y-107290000D03*
D20*
X148450000Y-104750000D03*
D19*
X148450000Y-93840000D03*
D20*
X148450000Y-91300000D03*
D19*
X148450000Y-100540000D03*
D20*
X148450000Y-98000000D03*
D21*
X77300000Y-115000000D03*
D22*
X81110000Y-115000000D03*
D20*
X148450000Y-84800000D03*
D19*
X148450000Y-87340000D03*
D20*
X148450000Y-78100000D03*
D19*
X148450000Y-80640000D03*
D20*
X148450000Y-71500000D03*
D19*
X148450000Y-74040000D03*
D23*
X118500000Y-58910000D03*
X118500000Y-55090000D03*
X118500000Y-57000000D03*
D24*
X97100000Y-51500000D03*
X97100000Y-62500000D03*
D23*
X86500000Y-58910000D03*
X86500000Y-55090000D03*
X86500000Y-57000000D03*
D24*
X65100000Y-51500000D03*
X65100000Y-62500000D03*
D22*
X91210000Y-115000000D03*
D21*
X87400000Y-115000000D03*
D16*
X110500000Y-82000000D03*
D15*
X108000000Y-82000000D03*
D16*
X110400000Y-73700000D03*
D15*
X107900000Y-73700000D03*
X88300000Y-76800000D03*
D16*
X90800000Y-76800000D03*
D25*
X137480000Y-67350000D03*
X140020000Y-67350000D03*
X142560000Y-67350000D03*
D26*
X145100000Y-67350000D03*
D27*
X132600000Y-55700000D03*
D28*
X132600000Y-53160000D03*
X135140000Y-55700000D03*
X135140000Y-53160000D03*
X137680000Y-55700000D03*
X137680000Y-53160000D03*
X140220000Y-55700000D03*
X140220000Y-53160000D03*
X142760000Y-55700000D03*
X142760000Y-53160000D03*
X145300000Y-55700000D03*
X145300000Y-53160000D03*
D20*
X119200000Y-82000000D03*
D19*
X119200000Y-84540000D03*
D29*
X140840000Y-44000000D03*
X143380000Y-44000000D03*
X148460000Y-44000000D03*
X151000000Y-44000000D03*
X145920000Y-44000000D03*
D13*
X153000000Y-48300000D03*
D14*
X153000000Y-47030000D03*
D27*
X152750000Y-62550000D03*
D28*
X155290000Y-62550000D03*
X152750000Y-65090000D03*
X155290000Y-65090000D03*
X152750000Y-67630000D03*
X155290000Y-67630000D03*
X137680000Y-46960000D03*
X137680000Y-49500000D03*
X135140000Y-46960000D03*
X135140000Y-49500000D03*
X132600000Y-46960000D03*
D27*
X132600000Y-49500000D03*
D30*
X99400000Y-78300000D03*
X99400000Y-70300000D03*
X104150000Y-74400000D03*
X94600000Y-74400000D03*
X94600000Y-78450000D03*
X94600000Y-70300000D03*
D31*
X116850000Y-77200000D03*
D30*
X104150000Y-70300000D03*
X104150000Y-78450000D03*
D32*
X131000000Y-70700000D03*
X131456193Y-63272459D03*
X141800000Y-62700000D03*
D31*
X126725003Y-59100000D03*
X86320000Y-86490000D03*
X84000000Y-81800000D03*
X72000000Y-78700000D03*
X70500000Y-77100000D03*
X74700000Y-70200000D03*
X85100000Y-70800000D03*
X90700000Y-73300000D03*
X93300000Y-101400000D03*
X74800000Y-109800000D03*
X61100000Y-79500000D03*
D30*
X140100000Y-88500000D03*
X140100000Y-95300000D03*
X143200000Y-96300000D03*
X143400000Y-89800000D03*
X143300000Y-82900000D03*
X139900000Y-81700000D03*
X143500000Y-76500000D03*
X140470000Y-76280000D03*
X145200000Y-75800000D03*
X145200000Y-82400000D03*
X145000000Y-89100000D03*
X138800000Y-93100000D03*
X145000000Y-95700000D03*
X82700000Y-98000000D03*
X73400000Y-97900000D03*
X85500000Y-103000000D03*
X75500000Y-103400000D03*
X81400000Y-101300000D03*
X80100000Y-101300000D03*
X78800000Y-101300000D03*
X88800000Y-101300000D03*
X90100000Y-101300000D03*
X91400000Y-101300000D03*
D32*
X124900000Y-98900000D03*
X133900000Y-81500000D03*
D30*
X112100000Y-108400000D03*
X103700000Y-106900000D03*
D31*
X123800000Y-95000000D03*
X123000000Y-95500000D03*
X120900000Y-101500000D03*
X120900000Y-102400000D03*
X121800000Y-101900000D03*
X108100000Y-104000000D03*
D32*
X123300000Y-101900000D03*
X124200000Y-74800000D03*
X122500000Y-79300000D03*
X130600000Y-87750000D03*
D30*
X130700000Y-110600000D03*
X130700000Y-108350000D03*
X126400000Y-108550000D03*
X126400000Y-110600000D03*
D32*
X121150000Y-88100000D03*
X89400000Y-40250000D03*
X89350000Y-48400000D03*
X91000000Y-52850000D03*
X89900000Y-54400000D03*
X121950000Y-42850000D03*
X123600000Y-54900000D03*
X122100000Y-56800000D03*
X123150000Y-41450000D03*
X117400000Y-67560000D03*
X118010000Y-68500000D03*
X122910916Y-65270984D03*
X129440000Y-75740000D03*
X125820000Y-93740000D03*
D30*
X105900000Y-70200000D03*
X105900000Y-74400000D03*
X105900000Y-78500000D03*
X105900000Y-77100000D03*
X105900000Y-75800000D03*
X105900000Y-73000000D03*
X105900000Y-71600000D03*
D32*
X136600000Y-104200000D03*
X136900000Y-96500000D03*
X138100000Y-70500000D03*
X125800000Y-59100000D03*
X129700000Y-51500000D03*
X133000000Y-69350000D03*
D30*
X127300000Y-94700000D03*
X128600000Y-94700000D03*
X130000000Y-94700000D03*
X131400000Y-94700000D03*
D32*
X136000000Y-62800000D03*
D31*
X119800000Y-73200000D03*
X117400000Y-62800000D03*
X122900000Y-61900000D03*
D32*
X128400000Y-79500000D03*
X121960000Y-67450000D03*
X122870000Y-66120000D03*
X136000010Y-101300000D03*
X138300000Y-44500000D03*
D30*
X92400000Y-58500000D03*
X85900000Y-94700000D03*
X81800000Y-96300000D03*
X108100000Y-109800000D03*
X106100000Y-110000000D03*
X69600000Y-62500000D03*
X69600000Y-61000000D03*
X69600000Y-59400000D03*
X69600000Y-64000000D03*
X68600000Y-58000000D03*
X69600000Y-65500000D03*
X68500000Y-66900000D03*
X92400000Y-62400000D03*
X92400000Y-61100000D03*
X92400000Y-59800000D03*
X92400000Y-63700000D03*
X92400000Y-65000000D03*
X68499999Y-70000001D03*
X68500000Y-77000000D03*
X70400000Y-73600000D03*
X69950000Y-71600000D03*
X69800000Y-75500000D03*
X110400000Y-75500000D03*
X110400000Y-76900000D03*
X110400000Y-78400000D03*
X110400000Y-79800000D03*
X111800000Y-79800000D03*
X111800000Y-78400000D03*
X111800000Y-76900000D03*
X111800000Y-75500000D03*
D32*
X123060135Y-94104774D03*
X77600000Y-74450000D03*
X111400000Y-69100000D03*
D31*
X90750000Y-57100000D03*
D30*
X116050000Y-72600000D03*
D32*
X94200000Y-40250000D03*
X126500000Y-44450000D03*
X126500000Y-86400000D03*
X131262902Y-65031998D03*
X128600000Y-81800000D03*
X127300000Y-73800000D03*
X129700000Y-74700000D03*
X135900000Y-66000000D03*
X139600000Y-72700000D03*
D30*
X65200000Y-45400000D03*
X66700000Y-45500000D03*
X63700000Y-45500000D03*
X69400000Y-51400000D03*
X69400000Y-52800000D03*
X69400000Y-54200000D03*
X69400000Y-50000000D03*
X101300000Y-52300000D03*
X101300000Y-49500000D03*
X101300000Y-53700000D03*
X101300000Y-50900000D03*
X95700000Y-45500000D03*
X98700000Y-45500000D03*
X97200000Y-45400000D03*
D32*
X126075000Y-61900000D03*
X87300000Y-49800000D03*
X125500000Y-67700000D03*
X121636330Y-51386330D03*
X125500000Y-71100000D03*
X101900000Y-108400000D03*
X150150000Y-57638360D03*
D31*
X93600000Y-84250000D03*
X104450000Y-83550000D03*
D32*
X126600000Y-75700000D03*
X131250000Y-64100000D03*
X122700000Y-63200000D03*
X123810000Y-71380000D03*
X120550000Y-89700000D03*
X120650000Y-86100000D03*
X125630000Y-63510000D03*
X122780000Y-92100000D03*
X129523619Y-61966381D03*
X122740000Y-93010000D03*
X134499990Y-79990000D03*
X130099625Y-58519341D03*
X134500000Y-67200000D03*
X134593948Y-69350000D03*
X139000000Y-69500000D03*
X146006859Y-65441157D03*
X148900000Y-61900000D03*
X137275000Y-88100000D03*
X137275000Y-90800000D03*
X127425000Y-61920000D03*
X133650000Y-74750000D03*
X136100000Y-65100000D03*
X134500000Y-62800000D03*
X132975000Y-74000000D03*
X128100000Y-64500000D03*
X134900000Y-76500000D03*
X129480760Y-67019240D03*
X133816699Y-75583496D03*
X130440380Y-67059620D03*
D33*
G36*
X159490001Y-119490000D02*
X60510000Y-119490000D01*
X60510000Y-115600186D01*
X61990000Y-115600186D01*
X61990000Y-116399814D01*
X62296004Y-117138573D01*
X62861427Y-117703996D01*
X63600186Y-118010000D01*
X64399814Y-118010000D01*
X65138573Y-117703996D01*
X65703996Y-117138573D01*
X66010000Y-116399814D01*
X66010000Y-115600186D01*
X65703996Y-114861427D01*
X65138573Y-114296004D01*
X64399814Y-113990000D01*
X63600186Y-113990000D01*
X62861427Y-114296004D01*
X62296004Y-114861427D01*
X61990000Y-115600186D01*
X60510000Y-115600186D01*
X60510000Y-113200000D01*
X75981968Y-113200000D01*
X75981968Y-116800000D01*
X76013789Y-116959974D01*
X76104407Y-117095593D01*
X76240026Y-117186211D01*
X76400000Y-117218032D01*
X78200000Y-117218032D01*
X78359974Y-117186211D01*
X78495593Y-117095593D01*
X78586211Y-116959974D01*
X78618032Y-116800000D01*
X78618032Y-113970979D01*
X79800000Y-113970979D01*
X79800001Y-116029022D01*
X79876008Y-116411136D01*
X80165544Y-116844457D01*
X80598865Y-117133993D01*
X81110000Y-117235664D01*
X81621136Y-117133993D01*
X82054457Y-116844457D01*
X82343993Y-116411136D01*
X82420000Y-116029022D01*
X82420000Y-113970978D01*
X82343993Y-113588864D01*
X82084163Y-113200000D01*
X86081968Y-113200000D01*
X86081968Y-116800000D01*
X86113789Y-116959974D01*
X86204407Y-117095593D01*
X86340026Y-117186211D01*
X86500000Y-117218032D01*
X88300000Y-117218032D01*
X88459974Y-117186211D01*
X88595593Y-117095593D01*
X88686211Y-116959974D01*
X88718032Y-116800000D01*
X88718032Y-113970979D01*
X89900000Y-113970979D01*
X89900001Y-116029022D01*
X89976008Y-116411136D01*
X90265544Y-116844457D01*
X90698865Y-117133993D01*
X91210000Y-117235664D01*
X91721136Y-117133993D01*
X92154457Y-116844457D01*
X92443993Y-116411136D01*
X92520000Y-116029022D01*
X92520000Y-115600186D01*
X153990000Y-115600186D01*
X153990000Y-116399814D01*
X154296004Y-117138573D01*
X154861427Y-117703996D01*
X155600186Y-118010000D01*
X156399814Y-118010000D01*
X157138573Y-117703996D01*
X157703996Y-117138573D01*
X158010000Y-116399814D01*
X158010000Y-115600186D01*
X157703996Y-114861427D01*
X157138573Y-114296004D01*
X156399814Y-113990000D01*
X155600186Y-113990000D01*
X154861427Y-114296004D01*
X154296004Y-114861427D01*
X153990000Y-115600186D01*
X92520000Y-115600186D01*
X92520000Y-113970978D01*
X92443993Y-113588864D01*
X92154457Y-113155543D01*
X91721135Y-112866007D01*
X91210000Y-112764336D01*
X90698864Y-112866007D01*
X90265543Y-113155543D01*
X89976007Y-113588865D01*
X89900000Y-113970979D01*
X88718032Y-113970979D01*
X88718032Y-113200000D01*
X88686211Y-113040026D01*
X88595593Y-112904407D01*
X88459974Y-112813789D01*
X88300000Y-112781968D01*
X86500000Y-112781968D01*
X86340026Y-112813789D01*
X86204407Y-112904407D01*
X86113789Y-113040026D01*
X86081968Y-113200000D01*
X82084163Y-113200000D01*
X82054457Y-113155543D01*
X81621135Y-112866007D01*
X81110000Y-112764336D01*
X80598864Y-112866007D01*
X80165543Y-113155543D01*
X79876007Y-113588865D01*
X79800000Y-113970979D01*
X78618032Y-113970979D01*
X78618032Y-113200000D01*
X78586211Y-113040026D01*
X78495593Y-112904407D01*
X78359974Y-112813789D01*
X78200000Y-112781968D01*
X76400000Y-112781968D01*
X76240026Y-112813789D01*
X76104407Y-112904407D01*
X76013789Y-113040026D01*
X75981968Y-113200000D01*
X60510000Y-113200000D01*
X60510000Y-109799099D01*
X105090000Y-109799099D01*
X105090000Y-110200901D01*
X105243763Y-110572119D01*
X105527881Y-110856237D01*
X105899099Y-111010000D01*
X106300901Y-111010000D01*
X106672119Y-110856237D01*
X106956237Y-110572119D01*
X107110000Y-110200901D01*
X107110000Y-110049185D01*
X107243763Y-110372119D01*
X107527881Y-110656237D01*
X107899099Y-110810000D01*
X108300901Y-110810000D01*
X108672119Y-110656237D01*
X108956237Y-110372119D01*
X109110000Y-110000901D01*
X109110000Y-109599099D01*
X108956237Y-109227881D01*
X108672119Y-108943763D01*
X108300901Y-108790000D01*
X107899099Y-108790000D01*
X107527881Y-108943763D01*
X107243763Y-109227881D01*
X107090000Y-109599099D01*
X107090000Y-109750815D01*
X106956237Y-109427881D01*
X106672119Y-109143763D01*
X106300901Y-108990000D01*
X105899099Y-108990000D01*
X105527881Y-109143763D01*
X105243763Y-109427881D01*
X105090000Y-109799099D01*
X60510000Y-109799099D01*
X60510000Y-108253799D01*
X101165000Y-108253799D01*
X101165000Y-108546201D01*
X101276897Y-108816344D01*
X101483656Y-109023103D01*
X101753799Y-109135000D01*
X102046201Y-109135000D01*
X102316344Y-109023103D01*
X102523103Y-108816344D01*
X102635000Y-108546201D01*
X102635000Y-108253799D01*
X102523103Y-107983656D01*
X102316344Y-107776897D01*
X102046201Y-107665000D01*
X101753799Y-107665000D01*
X101483656Y-107776897D01*
X101276897Y-107983656D01*
X101165000Y-108253799D01*
X60510000Y-108253799D01*
X60510000Y-104800000D01*
X113731968Y-104800000D01*
X113731968Y-106100000D01*
X113763789Y-106259974D01*
X113854407Y-106395593D01*
X113990026Y-106486211D01*
X114150000Y-106518032D01*
X115450000Y-106518032D01*
X115609974Y-106486211D01*
X115745593Y-106395593D01*
X115787911Y-106332259D01*
X116877360Y-106332259D01*
X116957074Y-106474920D01*
X117375398Y-106528135D01*
X117642926Y-106474920D01*
X117722640Y-106332259D01*
X117300000Y-105909619D01*
X116877360Y-106332259D01*
X115787911Y-106332259D01*
X115836211Y-106259974D01*
X115868032Y-106100000D01*
X115868032Y-105525398D01*
X116221865Y-105525398D01*
X116275080Y-105792926D01*
X116417741Y-105872640D01*
X116840381Y-105450000D01*
X117759619Y-105450000D01*
X118182259Y-105872640D01*
X118324920Y-105792926D01*
X118378135Y-105374602D01*
X118324920Y-105107074D01*
X118182259Y-105027360D01*
X117759619Y-105450000D01*
X116840381Y-105450000D01*
X116417741Y-105027360D01*
X116275080Y-105107074D01*
X116221865Y-105525398D01*
X115868032Y-105525398D01*
X115868032Y-104800000D01*
X115836211Y-104640026D01*
X115787912Y-104567741D01*
X116877360Y-104567741D01*
X117300000Y-104990381D01*
X117722640Y-104567741D01*
X117642926Y-104425080D01*
X117224602Y-104371865D01*
X116957074Y-104425080D01*
X116877360Y-104567741D01*
X115787912Y-104567741D01*
X115745593Y-104504407D01*
X115609974Y-104413789D01*
X115450000Y-104381968D01*
X114150000Y-104381968D01*
X113990026Y-104413789D01*
X113854407Y-104504407D01*
X113763789Y-104640026D01*
X113731968Y-104800000D01*
X60510000Y-104800000D01*
X60510000Y-101153799D01*
X135265010Y-101153799D01*
X135265010Y-101446201D01*
X135376907Y-101716344D01*
X135583666Y-101923103D01*
X135853809Y-102035000D01*
X136146211Y-102035000D01*
X136416354Y-101923103D01*
X136623113Y-101716344D01*
X136735010Y-101446201D01*
X136735010Y-101153799D01*
X136623113Y-100883656D01*
X136416354Y-100676897D01*
X136146211Y-100565000D01*
X135853809Y-100565000D01*
X135583666Y-100676897D01*
X135376907Y-100883656D01*
X135265010Y-101153799D01*
X60510000Y-101153799D01*
X60510000Y-98100000D01*
X140790000Y-98100000D01*
X140790000Y-109600000D01*
X140798373Y-109642095D01*
X140822218Y-109677782D01*
X141622218Y-110477782D01*
X141657905Y-110501627D01*
X141700000Y-110510000D01*
X148700000Y-110510000D01*
X148742095Y-110501627D01*
X148777782Y-110477782D01*
X150277782Y-108977782D01*
X150301627Y-108942095D01*
X150310000Y-108900000D01*
X150310000Y-97000000D01*
X150301627Y-96957905D01*
X150277782Y-96922218D01*
X149677782Y-96322218D01*
X149642095Y-96298373D01*
X149600000Y-96290000D01*
X144700000Y-96290000D01*
X144657905Y-96298373D01*
X144622218Y-96322218D01*
X143854436Y-97090000D01*
X141800000Y-97090000D01*
X141757905Y-97098373D01*
X141722218Y-97122218D01*
X140822218Y-98022218D01*
X140798373Y-98057905D01*
X140790000Y-98100000D01*
X60510000Y-98100000D01*
X60510000Y-96099099D01*
X80790000Y-96099099D01*
X80790000Y-96500901D01*
X80943763Y-96872119D01*
X81227881Y-97156237D01*
X81599099Y-97310000D01*
X82000901Y-97310000D01*
X82372119Y-97156237D01*
X82656237Y-96872119D01*
X82810000Y-96500901D01*
X82810000Y-96099099D01*
X82656237Y-95727881D01*
X82372119Y-95443763D01*
X82000901Y-95290000D01*
X81599099Y-95290000D01*
X81227881Y-95443763D01*
X80943763Y-95727881D01*
X80790000Y-96099099D01*
X60510000Y-96099099D01*
X60510000Y-94499099D01*
X84890000Y-94499099D01*
X84890000Y-94900901D01*
X85043763Y-95272119D01*
X85327881Y-95556237D01*
X85699099Y-95710000D01*
X86100901Y-95710000D01*
X86472119Y-95556237D01*
X86756237Y-95272119D01*
X86910000Y-94900901D01*
X86910000Y-94499099D01*
X86756237Y-94127881D01*
X86472119Y-93843763D01*
X86100901Y-93690000D01*
X85699099Y-93690000D01*
X85327881Y-93843763D01*
X85043763Y-94127881D01*
X84890000Y-94499099D01*
X60510000Y-94499099D01*
X60510000Y-92863799D01*
X122005000Y-92863799D01*
X122005000Y-93156201D01*
X122116897Y-93426344D01*
X122323656Y-93633103D01*
X122442947Y-93682515D01*
X122437032Y-93688430D01*
X122325135Y-93958573D01*
X122325135Y-94250975D01*
X122437032Y-94521118D01*
X122643791Y-94727877D01*
X122913934Y-94839774D01*
X123206336Y-94839774D01*
X123476479Y-94727877D01*
X123683238Y-94521118D01*
X123692358Y-94499099D01*
X126290000Y-94499099D01*
X126290000Y-94900901D01*
X126443763Y-95272119D01*
X126727881Y-95556237D01*
X127099099Y-95710000D01*
X127500901Y-95710000D01*
X127872119Y-95556237D01*
X127950000Y-95478356D01*
X128027881Y-95556237D01*
X128399099Y-95710000D01*
X128800901Y-95710000D01*
X129172119Y-95556237D01*
X129300000Y-95428356D01*
X129427881Y-95556237D01*
X129799099Y-95710000D01*
X130200901Y-95710000D01*
X130572119Y-95556237D01*
X130700000Y-95428356D01*
X130827881Y-95556237D01*
X131199099Y-95710000D01*
X131600901Y-95710000D01*
X131972119Y-95556237D01*
X132256237Y-95272119D01*
X132410000Y-94900901D01*
X132410000Y-94499099D01*
X132256237Y-94127881D01*
X131972119Y-93843763D01*
X131963035Y-93840000D01*
X147165316Y-93840000D01*
X147263107Y-94331627D01*
X147541591Y-94748409D01*
X147958373Y-95026893D01*
X148325906Y-95100000D01*
X148574094Y-95100000D01*
X148941627Y-95026893D01*
X149358409Y-94748409D01*
X149636893Y-94331627D01*
X149734684Y-93840000D01*
X149636893Y-93348373D01*
X149358409Y-92931591D01*
X148941627Y-92653107D01*
X148574094Y-92580000D01*
X148325906Y-92580000D01*
X147958373Y-92653107D01*
X147541591Y-92931591D01*
X147263107Y-93348373D01*
X147165316Y-93840000D01*
X131963035Y-93840000D01*
X131600901Y-93690000D01*
X131199099Y-93690000D01*
X130827881Y-93843763D01*
X130700000Y-93971644D01*
X130572119Y-93843763D01*
X130200901Y-93690000D01*
X129799099Y-93690000D01*
X129427881Y-93843763D01*
X129300000Y-93971644D01*
X129172119Y-93843763D01*
X128800901Y-93690000D01*
X128399099Y-93690000D01*
X128027881Y-93843763D01*
X127950000Y-93921644D01*
X127872119Y-93843763D01*
X127500901Y-93690000D01*
X127099099Y-93690000D01*
X126727881Y-93843763D01*
X126443763Y-94127881D01*
X126290000Y-94499099D01*
X123692358Y-94499099D01*
X123795135Y-94250975D01*
X123795135Y-93958573D01*
X123683238Y-93688430D01*
X123476479Y-93481671D01*
X123357188Y-93432259D01*
X123363103Y-93426344D01*
X123475000Y-93156201D01*
X123475000Y-92863799D01*
X123363103Y-92593656D01*
X123344447Y-92575000D01*
X123403103Y-92516344D01*
X123515000Y-92246201D01*
X123515000Y-91953799D01*
X123403103Y-91683656D01*
X123196344Y-91476897D01*
X122926201Y-91365000D01*
X122633799Y-91365000D01*
X122363656Y-91476897D01*
X122156897Y-91683656D01*
X122045000Y-91953799D01*
X122045000Y-92246201D01*
X122156897Y-92516344D01*
X122175553Y-92535000D01*
X122116897Y-92593656D01*
X122005000Y-92863799D01*
X60510000Y-92863799D01*
X60510000Y-90653799D01*
X136540000Y-90653799D01*
X136540000Y-90946201D01*
X136651897Y-91216344D01*
X136858656Y-91423103D01*
X137128799Y-91535000D01*
X137421201Y-91535000D01*
X137691344Y-91423103D01*
X137898103Y-91216344D01*
X138010000Y-90946201D01*
X138010000Y-90653799D01*
X137925584Y-90450000D01*
X147181968Y-90450000D01*
X147181968Y-92150000D01*
X147213789Y-92309974D01*
X147304407Y-92445593D01*
X147440026Y-92536211D01*
X147600000Y-92568032D01*
X149300000Y-92568032D01*
X149459974Y-92536211D01*
X149595593Y-92445593D01*
X149686211Y-92309974D01*
X149718032Y-92150000D01*
X149718032Y-90450000D01*
X149686211Y-90290026D01*
X149595593Y-90154407D01*
X149459974Y-90063789D01*
X149300000Y-90031968D01*
X147600000Y-90031968D01*
X147440026Y-90063789D01*
X147304407Y-90154407D01*
X147213789Y-90290026D01*
X147181968Y-90450000D01*
X137925584Y-90450000D01*
X137898103Y-90383656D01*
X137691344Y-90176897D01*
X137421201Y-90065000D01*
X137128799Y-90065000D01*
X136858656Y-90176897D01*
X136651897Y-90383656D01*
X136540000Y-90653799D01*
X60510000Y-90653799D01*
X60510000Y-89553799D01*
X119815000Y-89553799D01*
X119815000Y-89846201D01*
X119926897Y-90116344D01*
X120133656Y-90323103D01*
X120403799Y-90435000D01*
X120696201Y-90435000D01*
X120966344Y-90323103D01*
X121173103Y-90116344D01*
X121285000Y-89846201D01*
X121285000Y-89553799D01*
X121173103Y-89283656D01*
X120966344Y-89076897D01*
X120696201Y-88965000D01*
X120403799Y-88965000D01*
X120133656Y-89076897D01*
X119926897Y-89283656D01*
X119815000Y-89553799D01*
X60510000Y-89553799D01*
X60510000Y-87953799D01*
X136540000Y-87953799D01*
X136540000Y-88246201D01*
X136651897Y-88516344D01*
X136858656Y-88723103D01*
X137128799Y-88835000D01*
X137421201Y-88835000D01*
X137691344Y-88723103D01*
X137898103Y-88516344D01*
X138010000Y-88246201D01*
X138010000Y-87953799D01*
X137898103Y-87683656D01*
X137691344Y-87476897D01*
X137421201Y-87365000D01*
X137128799Y-87365000D01*
X136858656Y-87476897D01*
X136651897Y-87683656D01*
X136540000Y-87953799D01*
X60510000Y-87953799D01*
X60510000Y-87098216D01*
X62660434Y-87098216D01*
X63190568Y-87504628D01*
X64860807Y-87892233D01*
X66552238Y-87611161D01*
X66809432Y-87504628D01*
X67024176Y-87340000D01*
X147165316Y-87340000D01*
X147263107Y-87831627D01*
X147541591Y-88248409D01*
X147958373Y-88526893D01*
X148325906Y-88600000D01*
X148574094Y-88600000D01*
X148941627Y-88526893D01*
X149358409Y-88248409D01*
X149636893Y-87831627D01*
X149734684Y-87340000D01*
X149636893Y-86848373D01*
X149358409Y-86431591D01*
X148941627Y-86153107D01*
X148574094Y-86080000D01*
X148325906Y-86080000D01*
X147958373Y-86153107D01*
X147541591Y-86431591D01*
X147263107Y-86848373D01*
X147165316Y-87340000D01*
X67024176Y-87340000D01*
X67339566Y-87098216D01*
X66195149Y-85953799D01*
X119915000Y-85953799D01*
X119915000Y-86246201D01*
X120026897Y-86516344D01*
X120233656Y-86723103D01*
X120503799Y-86835000D01*
X120796201Y-86835000D01*
X121066344Y-86723103D01*
X121273103Y-86516344D01*
X121381852Y-86253799D01*
X125765000Y-86253799D01*
X125765000Y-86546201D01*
X125876897Y-86816344D01*
X126083656Y-87023103D01*
X126353799Y-87135000D01*
X126646201Y-87135000D01*
X126916344Y-87023103D01*
X127123103Y-86816344D01*
X127235000Y-86546201D01*
X127235000Y-86253799D01*
X127123103Y-85983656D01*
X126916344Y-85776897D01*
X126646201Y-85665000D01*
X126353799Y-85665000D01*
X126083656Y-85776897D01*
X125876897Y-85983656D01*
X125765000Y-86253799D01*
X121381852Y-86253799D01*
X121385000Y-86246201D01*
X121385000Y-85953799D01*
X121273103Y-85683656D01*
X121066344Y-85476897D01*
X120796201Y-85365000D01*
X120503799Y-85365000D01*
X120233656Y-85476897D01*
X120026897Y-85683656D01*
X119915000Y-85953799D01*
X66195149Y-85953799D01*
X65000000Y-84758650D01*
X62660434Y-87098216D01*
X60510000Y-87098216D01*
X60510000Y-83360807D01*
X60607767Y-83360807D01*
X60888839Y-85052238D01*
X60995372Y-85309432D01*
X61401784Y-85839566D01*
X63741350Y-83500000D01*
X66258650Y-83500000D01*
X68598216Y-85839566D01*
X69004628Y-85309432D01*
X69287875Y-84088881D01*
X92790000Y-84088881D01*
X92790000Y-84411119D01*
X92913315Y-84708828D01*
X93141172Y-84936685D01*
X93438881Y-85060000D01*
X93761119Y-85060000D01*
X94058828Y-84936685D01*
X94286685Y-84708828D01*
X94356615Y-84540000D01*
X117915316Y-84540000D01*
X118013107Y-85031627D01*
X118291591Y-85448409D01*
X118708373Y-85726893D01*
X119075906Y-85800000D01*
X119324094Y-85800000D01*
X119691627Y-85726893D01*
X120108409Y-85448409D01*
X120386893Y-85031627D01*
X120484684Y-84540000D01*
X120386893Y-84048373D01*
X120321163Y-83950000D01*
X147181968Y-83950000D01*
X147181968Y-85650000D01*
X147213789Y-85809974D01*
X147304407Y-85945593D01*
X147440026Y-86036211D01*
X147600000Y-86068032D01*
X149300000Y-86068032D01*
X149459974Y-86036211D01*
X149595593Y-85945593D01*
X149686211Y-85809974D01*
X149718032Y-85650000D01*
X149718032Y-83950000D01*
X149686211Y-83790026D01*
X149595593Y-83654407D01*
X149459974Y-83563789D01*
X149300000Y-83531968D01*
X147600000Y-83531968D01*
X147440026Y-83563789D01*
X147304407Y-83654407D01*
X147213789Y-83790026D01*
X147181968Y-83950000D01*
X120321163Y-83950000D01*
X120108409Y-83631591D01*
X119691627Y-83353107D01*
X119324094Y-83280000D01*
X119075906Y-83280000D01*
X118708373Y-83353107D01*
X118291591Y-83631591D01*
X118013107Y-84048373D01*
X117915316Y-84540000D01*
X94356615Y-84540000D01*
X94410000Y-84411119D01*
X94410000Y-84088881D01*
X94286685Y-83791172D01*
X94058828Y-83563315D01*
X93761119Y-83440000D01*
X93438881Y-83440000D01*
X93141172Y-83563315D01*
X92913315Y-83791172D01*
X92790000Y-84088881D01*
X69287875Y-84088881D01*
X69392233Y-83639193D01*
X69350638Y-83388881D01*
X103640000Y-83388881D01*
X103640000Y-83711119D01*
X103763315Y-84008828D01*
X103991172Y-84236685D01*
X104288881Y-84360000D01*
X104611119Y-84360000D01*
X104908828Y-84236685D01*
X105136685Y-84008828D01*
X105260000Y-83711119D01*
X105260000Y-83388881D01*
X105136685Y-83091172D01*
X104927772Y-82882259D01*
X107577360Y-82882259D01*
X107657074Y-83024920D01*
X108075398Y-83078135D01*
X108342926Y-83024920D01*
X108422640Y-82882259D01*
X108000000Y-82459619D01*
X107577360Y-82882259D01*
X104927772Y-82882259D01*
X104908828Y-82863315D01*
X104611119Y-82740000D01*
X104288881Y-82740000D01*
X103991172Y-82863315D01*
X103763315Y-83091172D01*
X103640000Y-83388881D01*
X69350638Y-83388881D01*
X69132371Y-82075398D01*
X106921865Y-82075398D01*
X106975080Y-82342926D01*
X107117741Y-82422640D01*
X107540381Y-82000000D01*
X108459619Y-82000000D01*
X108882259Y-82422640D01*
X109024920Y-82342926D01*
X109078135Y-81924602D01*
X109024920Y-81657074D01*
X108882259Y-81577360D01*
X108459619Y-82000000D01*
X107540381Y-82000000D01*
X107117741Y-81577360D01*
X106975080Y-81657074D01*
X106921865Y-82075398D01*
X69132371Y-82075398D01*
X69111161Y-81947762D01*
X69004628Y-81690568D01*
X68598216Y-81160434D01*
X66258650Y-83500000D01*
X63741350Y-83500000D01*
X61401784Y-81160434D01*
X60995372Y-81690568D01*
X60607767Y-83360807D01*
X60510000Y-83360807D01*
X60510000Y-79901784D01*
X62660434Y-79901784D01*
X65000000Y-82241350D01*
X66123609Y-81117741D01*
X107577360Y-81117741D01*
X108000000Y-81540381D01*
X108190381Y-81350000D01*
X109431968Y-81350000D01*
X109431968Y-82650000D01*
X109463789Y-82809974D01*
X109554407Y-82945593D01*
X109690026Y-83036211D01*
X109850000Y-83068032D01*
X111150000Y-83068032D01*
X111309974Y-83036211D01*
X111445593Y-82945593D01*
X111536211Y-82809974D01*
X111568032Y-82650000D01*
X111568032Y-82527500D01*
X117940000Y-82527500D01*
X117940000Y-82931554D01*
X118002419Y-83082246D01*
X118117754Y-83197581D01*
X118268446Y-83260000D01*
X118672500Y-83260000D01*
X118775000Y-83157500D01*
X118775000Y-82425000D01*
X119625000Y-82425000D01*
X119625000Y-83157500D01*
X119727500Y-83260000D01*
X120131554Y-83260000D01*
X120282246Y-83197581D01*
X120397581Y-83082246D01*
X120460000Y-82931554D01*
X120460000Y-82527500D01*
X120357500Y-82425000D01*
X119625000Y-82425000D01*
X118775000Y-82425000D01*
X118042500Y-82425000D01*
X117940000Y-82527500D01*
X111568032Y-82527500D01*
X111568032Y-81653799D01*
X127865000Y-81653799D01*
X127865000Y-81946201D01*
X127976897Y-82216344D01*
X128183656Y-82423103D01*
X128453799Y-82535000D01*
X128746201Y-82535000D01*
X129016344Y-82423103D01*
X129223103Y-82216344D01*
X129335000Y-81946201D01*
X129335000Y-81653799D01*
X129223103Y-81383656D01*
X129016344Y-81176897D01*
X128746201Y-81065000D01*
X128453799Y-81065000D01*
X128183656Y-81176897D01*
X127976897Y-81383656D01*
X127865000Y-81653799D01*
X111568032Y-81653799D01*
X111568032Y-81350000D01*
X111536211Y-81190026D01*
X111454974Y-81068446D01*
X117940000Y-81068446D01*
X117940000Y-81472500D01*
X118042500Y-81575000D01*
X118775000Y-81575000D01*
X118775000Y-80842500D01*
X119625000Y-80842500D01*
X119625000Y-81575000D01*
X120357500Y-81575000D01*
X120460000Y-81472500D01*
X120460000Y-81068446D01*
X120397581Y-80917754D01*
X120282246Y-80802419D01*
X120131554Y-80740000D01*
X119727500Y-80740000D01*
X119625000Y-80842500D01*
X118775000Y-80842500D01*
X118672500Y-80740000D01*
X118268446Y-80740000D01*
X118117754Y-80802419D01*
X118002419Y-80917754D01*
X117940000Y-81068446D01*
X111454974Y-81068446D01*
X111445593Y-81054407D01*
X111309974Y-80963789D01*
X111150000Y-80931968D01*
X109850000Y-80931968D01*
X109690026Y-80963789D01*
X109554407Y-81054407D01*
X109463789Y-81190026D01*
X109431968Y-81350000D01*
X108190381Y-81350000D01*
X108422640Y-81117741D01*
X108342926Y-80975080D01*
X107924602Y-80921865D01*
X107657074Y-80975080D01*
X107577360Y-81117741D01*
X66123609Y-81117741D01*
X67339566Y-79901784D01*
X66809432Y-79495372D01*
X65139193Y-79107767D01*
X63447762Y-79388839D01*
X63190568Y-79495372D01*
X62660434Y-79901784D01*
X60510000Y-79901784D01*
X60510000Y-72642688D01*
X60690000Y-72642688D01*
X60690000Y-74357312D01*
X61346158Y-75941419D01*
X62558581Y-77153842D01*
X64142688Y-77810000D01*
X65857312Y-77810000D01*
X67441419Y-77153842D01*
X67490000Y-77105261D01*
X67490000Y-77200901D01*
X67643763Y-77572119D01*
X67927881Y-77856237D01*
X68299099Y-78010000D01*
X68700901Y-78010000D01*
X69072119Y-77856237D01*
X69246097Y-77682259D01*
X87877360Y-77682259D01*
X87957074Y-77824920D01*
X88375398Y-77878135D01*
X88642926Y-77824920D01*
X88722640Y-77682259D01*
X88300000Y-77259619D01*
X87877360Y-77682259D01*
X69246097Y-77682259D01*
X69356237Y-77572119D01*
X69510000Y-77200901D01*
X69510000Y-76875398D01*
X87221865Y-76875398D01*
X87275080Y-77142926D01*
X87417741Y-77222640D01*
X87840381Y-76800000D01*
X88759619Y-76800000D01*
X89182259Y-77222640D01*
X89324920Y-77142926D01*
X89378135Y-76724602D01*
X89324920Y-76457074D01*
X89182259Y-76377360D01*
X88759619Y-76800000D01*
X87840381Y-76800000D01*
X87417741Y-76377360D01*
X87275080Y-76457074D01*
X87221865Y-76875398D01*
X69510000Y-76875398D01*
X69510000Y-76799099D01*
X69356237Y-76427881D01*
X69324694Y-76396338D01*
X69599099Y-76510000D01*
X70000901Y-76510000D01*
X70372119Y-76356237D01*
X70656237Y-76072119D01*
X70720182Y-75917741D01*
X87877360Y-75917741D01*
X88300000Y-76340381D01*
X88490381Y-76150000D01*
X89731968Y-76150000D01*
X89731968Y-77450000D01*
X89763789Y-77609974D01*
X89854407Y-77745593D01*
X89990026Y-77836211D01*
X90150000Y-77868032D01*
X91450000Y-77868032D01*
X91609974Y-77836211D01*
X91745593Y-77745593D01*
X91836211Y-77609974D01*
X91868032Y-77450000D01*
X91868032Y-76150000D01*
X91836211Y-75990026D01*
X91745593Y-75854407D01*
X91609974Y-75763789D01*
X91450000Y-75731968D01*
X90150000Y-75731968D01*
X89990026Y-75763789D01*
X89854407Y-75854407D01*
X89763789Y-75990026D01*
X89731968Y-76150000D01*
X88490381Y-76150000D01*
X88722640Y-75917741D01*
X88642926Y-75775080D01*
X88224602Y-75721865D01*
X87957074Y-75775080D01*
X87877360Y-75917741D01*
X70720182Y-75917741D01*
X70810000Y-75700901D01*
X70810000Y-75299099D01*
X70656237Y-74927881D01*
X70372119Y-74643763D01*
X70290608Y-74610000D01*
X70600901Y-74610000D01*
X70972119Y-74456237D01*
X71124557Y-74303799D01*
X76865000Y-74303799D01*
X76865000Y-74596201D01*
X76976897Y-74866344D01*
X77183656Y-75073103D01*
X77453799Y-75185000D01*
X77746201Y-75185000D01*
X78016344Y-75073103D01*
X78223103Y-74866344D01*
X78335000Y-74596201D01*
X78335000Y-74582259D01*
X107477360Y-74582259D01*
X107557074Y-74724920D01*
X107975398Y-74778135D01*
X108242926Y-74724920D01*
X108322640Y-74582259D01*
X107900000Y-74159619D01*
X107477360Y-74582259D01*
X78335000Y-74582259D01*
X78335000Y-74303799D01*
X78223103Y-74033656D01*
X78016344Y-73826897D01*
X77892015Y-73775398D01*
X106821865Y-73775398D01*
X106875080Y-74042926D01*
X107017741Y-74122640D01*
X107440381Y-73700000D01*
X108359619Y-73700000D01*
X108782259Y-74122640D01*
X108924920Y-74042926D01*
X108978135Y-73624602D01*
X108924920Y-73357074D01*
X108782259Y-73277360D01*
X108359619Y-73700000D01*
X107440381Y-73700000D01*
X107017741Y-73277360D01*
X106875080Y-73357074D01*
X106821865Y-73775398D01*
X77892015Y-73775398D01*
X77746201Y-73715000D01*
X77453799Y-73715000D01*
X77183656Y-73826897D01*
X76976897Y-74033656D01*
X76865000Y-74303799D01*
X71124557Y-74303799D01*
X71256237Y-74172119D01*
X71410000Y-73800901D01*
X71410000Y-73399099D01*
X71256237Y-73027881D01*
X71046097Y-72817741D01*
X107477360Y-72817741D01*
X107900000Y-73240381D01*
X108090381Y-73050000D01*
X109331968Y-73050000D01*
X109331968Y-74350000D01*
X109363789Y-74509974D01*
X109454407Y-74645593D01*
X109590026Y-74736211D01*
X109711308Y-74760336D01*
X109543763Y-74927881D01*
X109390000Y-75299099D01*
X109390000Y-75700901D01*
X109543763Y-76072119D01*
X109671644Y-76200000D01*
X109543763Y-76327881D01*
X109390000Y-76699099D01*
X109390000Y-77100901D01*
X109543763Y-77472119D01*
X109721644Y-77650000D01*
X109543763Y-77827881D01*
X109390000Y-78199099D01*
X109390000Y-78600901D01*
X109543763Y-78972119D01*
X109671644Y-79100000D01*
X109543763Y-79227881D01*
X109390000Y-79599099D01*
X109390000Y-80000901D01*
X109543763Y-80372119D01*
X109827881Y-80656237D01*
X110199099Y-80810000D01*
X110600901Y-80810000D01*
X110972119Y-80656237D01*
X111100000Y-80528356D01*
X111227881Y-80656237D01*
X111599099Y-80810000D01*
X112000901Y-80810000D01*
X112372119Y-80656237D01*
X112656237Y-80372119D01*
X112810000Y-80000901D01*
X112810000Y-79599099D01*
X112708394Y-79353799D01*
X127665000Y-79353799D01*
X127665000Y-79646201D01*
X127776897Y-79916344D01*
X127983656Y-80123103D01*
X128253799Y-80235000D01*
X128546201Y-80235000D01*
X128816344Y-80123103D01*
X129023103Y-79916344D01*
X129053152Y-79843799D01*
X133764990Y-79843799D01*
X133764990Y-80136201D01*
X133876887Y-80406344D01*
X134083646Y-80613103D01*
X134353789Y-80725000D01*
X134646191Y-80725000D01*
X134851398Y-80640000D01*
X147165316Y-80640000D01*
X147263107Y-81131627D01*
X147541591Y-81548409D01*
X147958373Y-81826893D01*
X148325906Y-81900000D01*
X148574094Y-81900000D01*
X148941627Y-81826893D01*
X149358409Y-81548409D01*
X149636893Y-81131627D01*
X149734684Y-80640000D01*
X149636893Y-80148373D01*
X149358409Y-79731591D01*
X148941627Y-79453107D01*
X148574094Y-79380000D01*
X148325906Y-79380000D01*
X147958373Y-79453107D01*
X147541591Y-79731591D01*
X147263107Y-80148373D01*
X147165316Y-80640000D01*
X134851398Y-80640000D01*
X134916334Y-80613103D01*
X135123093Y-80406344D01*
X135234990Y-80136201D01*
X135234990Y-79843799D01*
X135123093Y-79573656D01*
X134916334Y-79366897D01*
X134646191Y-79255000D01*
X134353789Y-79255000D01*
X134083646Y-79366897D01*
X133876887Y-79573656D01*
X133764990Y-79843799D01*
X129053152Y-79843799D01*
X129135000Y-79646201D01*
X129135000Y-79353799D01*
X129023103Y-79083656D01*
X128816344Y-78876897D01*
X128546201Y-78765000D01*
X128253799Y-78765000D01*
X127983656Y-78876897D01*
X127776897Y-79083656D01*
X127665000Y-79353799D01*
X112708394Y-79353799D01*
X112656237Y-79227881D01*
X112528356Y-79100000D01*
X112656237Y-78972119D01*
X112810000Y-78600901D01*
X112810000Y-78199099D01*
X112656237Y-77827881D01*
X112478356Y-77650000D01*
X112656237Y-77472119D01*
X112748241Y-77250000D01*
X147181968Y-77250000D01*
X147181968Y-78950000D01*
X147213789Y-79109974D01*
X147304407Y-79245593D01*
X147440026Y-79336211D01*
X147600000Y-79368032D01*
X149300000Y-79368032D01*
X149459974Y-79336211D01*
X149595593Y-79245593D01*
X149686211Y-79109974D01*
X149718032Y-78950000D01*
X149718032Y-77250000D01*
X149686211Y-77090026D01*
X149595593Y-76954407D01*
X149459974Y-76863789D01*
X149300000Y-76831968D01*
X147600000Y-76831968D01*
X147440026Y-76863789D01*
X147304407Y-76954407D01*
X147213789Y-77090026D01*
X147181968Y-77250000D01*
X112748241Y-77250000D01*
X112810000Y-77100901D01*
X112810000Y-76699099D01*
X112656237Y-76327881D01*
X112528356Y-76200000D01*
X112656237Y-76072119D01*
X112810000Y-75700901D01*
X112810000Y-75553799D01*
X125865000Y-75553799D01*
X125865000Y-75846201D01*
X125976897Y-76116344D01*
X126183656Y-76323103D01*
X126453799Y-76435000D01*
X126746201Y-76435000D01*
X127016344Y-76323103D01*
X127223103Y-76116344D01*
X127335000Y-75846201D01*
X127335000Y-75553799D01*
X127223103Y-75283656D01*
X127016344Y-75076897D01*
X126746201Y-74965000D01*
X126453799Y-74965000D01*
X126183656Y-75076897D01*
X125976897Y-75283656D01*
X125865000Y-75553799D01*
X112810000Y-75553799D01*
X112810000Y-75299099D01*
X112656237Y-74927881D01*
X112372119Y-74643763D01*
X112154926Y-74553799D01*
X128965000Y-74553799D01*
X128965000Y-74846201D01*
X129076897Y-75116344D01*
X129283656Y-75323103D01*
X129553799Y-75435000D01*
X129846201Y-75435000D01*
X130116344Y-75323103D01*
X130323103Y-75116344D01*
X130435000Y-74846201D01*
X130435000Y-74553799D01*
X130323103Y-74283656D01*
X130116344Y-74076897D01*
X129846201Y-73965000D01*
X129553799Y-73965000D01*
X129283656Y-74076897D01*
X129076897Y-74283656D01*
X128965000Y-74553799D01*
X112154926Y-74553799D01*
X112000901Y-74490000D01*
X111599099Y-74490000D01*
X111392330Y-74575646D01*
X111436211Y-74509974D01*
X111468032Y-74350000D01*
X111468032Y-73050000D01*
X111436211Y-72890026D01*
X111345593Y-72754407D01*
X111209974Y-72663789D01*
X111050000Y-72631968D01*
X109750000Y-72631968D01*
X109590026Y-72663789D01*
X109454407Y-72754407D01*
X109363789Y-72890026D01*
X109331968Y-73050000D01*
X108090381Y-73050000D01*
X108322640Y-72817741D01*
X108242926Y-72675080D01*
X107824602Y-72621865D01*
X107557074Y-72675080D01*
X107477360Y-72817741D01*
X71046097Y-72817741D01*
X70972119Y-72743763D01*
X70600901Y-72590000D01*
X70199185Y-72590000D01*
X70522119Y-72456237D01*
X70579257Y-72399099D01*
X115040000Y-72399099D01*
X115040000Y-72800901D01*
X115193763Y-73172119D01*
X115477881Y-73456237D01*
X115849099Y-73610000D01*
X116250901Y-73610000D01*
X116622119Y-73456237D01*
X116906237Y-73172119D01*
X116961425Y-73038881D01*
X118990000Y-73038881D01*
X118990000Y-73361119D01*
X119113315Y-73658828D01*
X119341172Y-73886685D01*
X119638881Y-74010000D01*
X119961119Y-74010000D01*
X120258828Y-73886685D01*
X120486685Y-73658828D01*
X120488768Y-73653799D01*
X126565000Y-73653799D01*
X126565000Y-73946201D01*
X126676897Y-74216344D01*
X126883656Y-74423103D01*
X127153799Y-74535000D01*
X127446201Y-74535000D01*
X127716344Y-74423103D01*
X127923103Y-74216344D01*
X128035000Y-73946201D01*
X128035000Y-73853799D01*
X132240000Y-73853799D01*
X132240000Y-74146201D01*
X132351897Y-74416344D01*
X132558656Y-74623103D01*
X132828799Y-74735000D01*
X132915000Y-74735000D01*
X132915000Y-74896201D01*
X133026897Y-75166344D01*
X133145008Y-75284455D01*
X133081699Y-75437295D01*
X133081699Y-75729697D01*
X133193596Y-75999840D01*
X133400355Y-76206599D01*
X133670498Y-76318496D01*
X133962900Y-76318496D01*
X134224508Y-76210134D01*
X134165000Y-76353799D01*
X134165000Y-76646201D01*
X134276897Y-76916344D01*
X134483656Y-77123103D01*
X134753799Y-77235000D01*
X135046201Y-77235000D01*
X135316344Y-77123103D01*
X135523103Y-76916344D01*
X135635000Y-76646201D01*
X135635000Y-76353799D01*
X135523103Y-76083656D01*
X135316344Y-75876897D01*
X135046201Y-75765000D01*
X134753799Y-75765000D01*
X134492191Y-75873362D01*
X134551699Y-75729697D01*
X134551699Y-75437295D01*
X134439802Y-75167152D01*
X134321691Y-75049041D01*
X134385000Y-74896201D01*
X134385000Y-74603799D01*
X134273103Y-74333656D01*
X134066344Y-74126897D01*
X133856557Y-74040000D01*
X147165316Y-74040000D01*
X147263107Y-74531627D01*
X147541591Y-74948409D01*
X147958373Y-75226893D01*
X148325906Y-75300000D01*
X148574094Y-75300000D01*
X148941627Y-75226893D01*
X149358409Y-74948409D01*
X149636893Y-74531627D01*
X149734684Y-74040000D01*
X149636893Y-73548373D01*
X149358409Y-73131591D01*
X148941627Y-72853107D01*
X148574094Y-72780000D01*
X148325906Y-72780000D01*
X147958373Y-72853107D01*
X147541591Y-73131591D01*
X147263107Y-73548373D01*
X147165316Y-74040000D01*
X133856557Y-74040000D01*
X133796201Y-74015000D01*
X133710000Y-74015000D01*
X133710000Y-73853799D01*
X133598103Y-73583656D01*
X133391344Y-73376897D01*
X133121201Y-73265000D01*
X132828799Y-73265000D01*
X132558656Y-73376897D01*
X132351897Y-73583656D01*
X132240000Y-73853799D01*
X128035000Y-73853799D01*
X128035000Y-73653799D01*
X127923103Y-73383656D01*
X127716344Y-73176897D01*
X127446201Y-73065000D01*
X127153799Y-73065000D01*
X126883656Y-73176897D01*
X126676897Y-73383656D01*
X126565000Y-73653799D01*
X120488768Y-73653799D01*
X120610000Y-73361119D01*
X120610000Y-73038881D01*
X120486685Y-72741172D01*
X120299312Y-72553799D01*
X138865000Y-72553799D01*
X138865000Y-72846201D01*
X138976897Y-73116344D01*
X139183656Y-73323103D01*
X139453799Y-73435000D01*
X139746201Y-73435000D01*
X140016344Y-73323103D01*
X140223103Y-73116344D01*
X140335000Y-72846201D01*
X140335000Y-72553799D01*
X140223103Y-72283656D01*
X140016344Y-72076897D01*
X139746201Y-71965000D01*
X139453799Y-71965000D01*
X139183656Y-72076897D01*
X138976897Y-72283656D01*
X138865000Y-72553799D01*
X120299312Y-72553799D01*
X120258828Y-72513315D01*
X119961119Y-72390000D01*
X119638881Y-72390000D01*
X119341172Y-72513315D01*
X119113315Y-72741172D01*
X118990000Y-73038881D01*
X116961425Y-73038881D01*
X117060000Y-72800901D01*
X117060000Y-72399099D01*
X116906237Y-72027881D01*
X116622119Y-71743763D01*
X116250901Y-71590000D01*
X115849099Y-71590000D01*
X115477881Y-71743763D01*
X115193763Y-72027881D01*
X115040000Y-72399099D01*
X70579257Y-72399099D01*
X70806237Y-72172119D01*
X70960000Y-71800901D01*
X70960000Y-71399099D01*
X70891531Y-71233799D01*
X123075000Y-71233799D01*
X123075000Y-71526201D01*
X123186897Y-71796344D01*
X123393656Y-72003103D01*
X123663799Y-72115000D01*
X123956201Y-72115000D01*
X124226344Y-72003103D01*
X124433103Y-71796344D01*
X124545000Y-71526201D01*
X124545000Y-71233799D01*
X124433103Y-70963656D01*
X124423246Y-70953799D01*
X124765000Y-70953799D01*
X124765000Y-71246201D01*
X124876897Y-71516344D01*
X125083656Y-71723103D01*
X125353799Y-71835000D01*
X125646201Y-71835000D01*
X125916344Y-71723103D01*
X126123103Y-71516344D01*
X126235000Y-71246201D01*
X126235000Y-70953799D01*
X126123103Y-70683656D01*
X126089447Y-70650000D01*
X147181968Y-70650000D01*
X147181968Y-72350000D01*
X147213789Y-72509974D01*
X147304407Y-72645593D01*
X147440026Y-72736211D01*
X147600000Y-72768032D01*
X149300000Y-72768032D01*
X149459974Y-72736211D01*
X149595593Y-72645593D01*
X149686211Y-72509974D01*
X149718032Y-72350000D01*
X149718032Y-70650000D01*
X149686211Y-70490026D01*
X149595593Y-70354407D01*
X149459974Y-70263789D01*
X149300000Y-70231968D01*
X147600000Y-70231968D01*
X147440026Y-70263789D01*
X147304407Y-70354407D01*
X147213789Y-70490026D01*
X147181968Y-70650000D01*
X126089447Y-70650000D01*
X125916344Y-70476897D01*
X125646201Y-70365000D01*
X125353799Y-70365000D01*
X125083656Y-70476897D01*
X124876897Y-70683656D01*
X124765000Y-70953799D01*
X124423246Y-70953799D01*
X124226344Y-70756897D01*
X123956201Y-70645000D01*
X123663799Y-70645000D01*
X123393656Y-70756897D01*
X123186897Y-70963656D01*
X123075000Y-71233799D01*
X70891531Y-71233799D01*
X70806237Y-71027881D01*
X70522119Y-70743763D01*
X70150901Y-70590000D01*
X69749099Y-70590000D01*
X69377881Y-70743763D01*
X69093763Y-71027881D01*
X68940000Y-71399099D01*
X68940000Y-71749428D01*
X68653842Y-71058581D01*
X68605262Y-71010001D01*
X68700900Y-71010001D01*
X69072118Y-70856238D01*
X69356236Y-70572120D01*
X69509999Y-70200902D01*
X69509999Y-69799100D01*
X69356236Y-69427882D01*
X69072118Y-69143764D01*
X68700900Y-68990001D01*
X68299098Y-68990001D01*
X67927880Y-69143764D01*
X67643762Y-69427882D01*
X67489999Y-69799100D01*
X67489999Y-69894738D01*
X67441419Y-69846158D01*
X65857312Y-69190000D01*
X64142688Y-69190000D01*
X62558581Y-69846158D01*
X61346158Y-71058581D01*
X60690000Y-72642688D01*
X60510000Y-72642688D01*
X60510000Y-68953799D01*
X110665000Y-68953799D01*
X110665000Y-69246201D01*
X110776897Y-69516344D01*
X110983656Y-69723103D01*
X111253799Y-69835000D01*
X111546201Y-69835000D01*
X111816344Y-69723103D01*
X112023103Y-69516344D01*
X112135000Y-69246201D01*
X112135000Y-69203799D01*
X132265000Y-69203799D01*
X132265000Y-69496201D01*
X132376897Y-69766344D01*
X132583656Y-69973103D01*
X132853799Y-70085000D01*
X133146201Y-70085000D01*
X133416344Y-69973103D01*
X133623103Y-69766344D01*
X133735000Y-69496201D01*
X133735000Y-69203799D01*
X133858948Y-69203799D01*
X133858948Y-69496201D01*
X133970845Y-69766344D01*
X134177604Y-69973103D01*
X134447747Y-70085000D01*
X134740149Y-70085000D01*
X135010292Y-69973103D01*
X135217051Y-69766344D01*
X135328948Y-69496201D01*
X135328948Y-69353799D01*
X138265000Y-69353799D01*
X138265000Y-69646201D01*
X138376897Y-69916344D01*
X138583656Y-70123103D01*
X138853799Y-70235000D01*
X139146201Y-70235000D01*
X139416344Y-70123103D01*
X139623103Y-69916344D01*
X139735000Y-69646201D01*
X139735000Y-69353799D01*
X139623103Y-69083656D01*
X139416344Y-68876897D01*
X139146201Y-68765000D01*
X138853799Y-68765000D01*
X138583656Y-68876897D01*
X138376897Y-69083656D01*
X138265000Y-69353799D01*
X135328948Y-69353799D01*
X135328948Y-69203799D01*
X135217051Y-68933656D01*
X135010292Y-68726897D01*
X134740149Y-68615000D01*
X134447747Y-68615000D01*
X134177604Y-68726897D01*
X133970845Y-68933656D01*
X133858948Y-69203799D01*
X133735000Y-69203799D01*
X133623103Y-68933656D01*
X133416344Y-68726897D01*
X133146201Y-68615000D01*
X132853799Y-68615000D01*
X132583656Y-68726897D01*
X132376897Y-68933656D01*
X132265000Y-69203799D01*
X112135000Y-69203799D01*
X112135000Y-68953799D01*
X112023103Y-68683656D01*
X111816344Y-68476897D01*
X111546201Y-68365000D01*
X111253799Y-68365000D01*
X110983656Y-68476897D01*
X110776897Y-68683656D01*
X110665000Y-68953799D01*
X60510000Y-68953799D01*
X60510000Y-60164149D01*
X61690000Y-60164149D01*
X61690001Y-64835852D01*
X61887852Y-65830516D01*
X62641529Y-66958472D01*
X63769485Y-67712149D01*
X65100000Y-67976805D01*
X66430516Y-67712149D01*
X67490000Y-67004224D01*
X67490000Y-67100901D01*
X67643763Y-67472119D01*
X67927881Y-67756237D01*
X68299099Y-67910000D01*
X68700901Y-67910000D01*
X69072119Y-67756237D01*
X69356237Y-67472119D01*
X69510000Y-67100901D01*
X69510000Y-66699099D01*
X69431673Y-66510000D01*
X69800901Y-66510000D01*
X70172119Y-66356237D01*
X70456237Y-66072119D01*
X70610000Y-65700901D01*
X70610000Y-65299099D01*
X70456237Y-64927881D01*
X70278356Y-64750000D01*
X70456237Y-64572119D01*
X70610000Y-64200901D01*
X70610000Y-63799099D01*
X70456237Y-63427881D01*
X70278356Y-63250000D01*
X70456237Y-63072119D01*
X70610000Y-62700901D01*
X70610000Y-62299099D01*
X70456237Y-61927881D01*
X70278356Y-61750000D01*
X70456237Y-61572119D01*
X70610000Y-61200901D01*
X70610000Y-60799099D01*
X70456237Y-60427881D01*
X70228356Y-60200000D01*
X70456237Y-59972119D01*
X70610000Y-59600901D01*
X70610000Y-59199099D01*
X70456237Y-58827881D01*
X70307618Y-58679262D01*
X85340000Y-58679262D01*
X85340000Y-59140738D01*
X85516599Y-59567087D01*
X85842913Y-59893401D01*
X86269262Y-60070000D01*
X86730738Y-60070000D01*
X87157087Y-59893401D01*
X87483401Y-59567087D01*
X87660000Y-59140738D01*
X87660000Y-58679262D01*
X87502532Y-58299099D01*
X91390000Y-58299099D01*
X91390000Y-58700901D01*
X91543763Y-59072119D01*
X91621644Y-59150000D01*
X91543763Y-59227881D01*
X91390000Y-59599099D01*
X91390000Y-60000901D01*
X91543763Y-60372119D01*
X91621644Y-60450000D01*
X91543763Y-60527881D01*
X91390000Y-60899099D01*
X91390000Y-61300901D01*
X91543763Y-61672119D01*
X91621644Y-61750000D01*
X91543763Y-61827881D01*
X91390000Y-62199099D01*
X91390000Y-62600901D01*
X91543763Y-62972119D01*
X91621644Y-63050000D01*
X91543763Y-63127881D01*
X91390000Y-63499099D01*
X91390000Y-63900901D01*
X91543763Y-64272119D01*
X91621644Y-64350000D01*
X91543763Y-64427881D01*
X91390000Y-64799099D01*
X91390000Y-65200901D01*
X91543763Y-65572119D01*
X91827881Y-65856237D01*
X92199099Y-66010000D01*
X92600901Y-66010000D01*
X92972119Y-65856237D01*
X93256237Y-65572119D01*
X93410000Y-65200901D01*
X93410000Y-64799099D01*
X93256237Y-64427881D01*
X93178356Y-64350000D01*
X93256237Y-64272119D01*
X93410000Y-63900901D01*
X93410000Y-63499099D01*
X93256237Y-63127881D01*
X93178356Y-63050000D01*
X93256237Y-62972119D01*
X93410000Y-62600901D01*
X93410000Y-62199099D01*
X93256237Y-61827881D01*
X93178356Y-61750000D01*
X93256237Y-61672119D01*
X93410000Y-61300901D01*
X93410000Y-60899099D01*
X93256237Y-60527881D01*
X93178356Y-60450000D01*
X93256237Y-60372119D01*
X93342380Y-60164149D01*
X93690000Y-60164149D01*
X93690001Y-64835852D01*
X93887852Y-65830516D01*
X94641529Y-66958472D01*
X95769485Y-67712149D01*
X97100000Y-67976805D01*
X98430516Y-67712149D01*
X99041654Y-67303799D01*
X121225000Y-67303799D01*
X121225000Y-67596201D01*
X121336897Y-67866344D01*
X121543656Y-68073103D01*
X121813799Y-68185000D01*
X122106201Y-68185000D01*
X122376344Y-68073103D01*
X122583103Y-67866344D01*
X122695000Y-67596201D01*
X122695000Y-67553799D01*
X124765000Y-67553799D01*
X124765000Y-67846201D01*
X124876897Y-68116344D01*
X125083656Y-68323103D01*
X125353799Y-68435000D01*
X125646201Y-68435000D01*
X125916344Y-68323103D01*
X126123103Y-68116344D01*
X126154128Y-68041441D01*
X136349788Y-68041441D01*
X136642102Y-68432922D01*
X136866081Y-68618268D01*
X137048200Y-68590988D01*
X137048200Y-67858000D01*
X136381878Y-67858000D01*
X136349788Y-68041441D01*
X126154128Y-68041441D01*
X126235000Y-67846201D01*
X126235000Y-67553799D01*
X126123103Y-67283656D01*
X125916344Y-67076897D01*
X125646201Y-66965000D01*
X125353799Y-66965000D01*
X125083656Y-67076897D01*
X124876897Y-67283656D01*
X124765000Y-67553799D01*
X122695000Y-67553799D01*
X122695000Y-67303799D01*
X122583103Y-67033656D01*
X122422486Y-66873039D01*
X128745760Y-66873039D01*
X128745760Y-67165441D01*
X128857657Y-67435584D01*
X129064416Y-67642343D01*
X129334559Y-67754240D01*
X129626961Y-67754240D01*
X129897104Y-67642343D01*
X129940380Y-67599067D01*
X130024036Y-67682723D01*
X130294179Y-67794620D01*
X130586581Y-67794620D01*
X130856724Y-67682723D01*
X131063483Y-67475964D01*
X131175380Y-67205821D01*
X131175380Y-67053799D01*
X133765000Y-67053799D01*
X133765000Y-67346201D01*
X133876897Y-67616344D01*
X134083656Y-67823103D01*
X134353799Y-67935000D01*
X134646201Y-67935000D01*
X134916344Y-67823103D01*
X135123103Y-67616344D01*
X135235000Y-67346201D01*
X135235000Y-67053799D01*
X135123103Y-66783656D01*
X134916344Y-66576897D01*
X134646201Y-66465000D01*
X134353799Y-66465000D01*
X134083656Y-66576897D01*
X133876897Y-66783656D01*
X133765000Y-67053799D01*
X131175380Y-67053799D01*
X131175380Y-66913419D01*
X131063483Y-66643276D01*
X130856724Y-66436517D01*
X130586581Y-66324620D01*
X130294179Y-66324620D01*
X130024036Y-66436517D01*
X129980760Y-66479793D01*
X129897104Y-66396137D01*
X129626961Y-66284240D01*
X129334559Y-66284240D01*
X129064416Y-66396137D01*
X128857657Y-66602896D01*
X128745760Y-66873039D01*
X122422486Y-66873039D01*
X122376344Y-66826897D01*
X122106201Y-66715000D01*
X121813799Y-66715000D01*
X121543656Y-66826897D01*
X121336897Y-67033656D01*
X121225000Y-67303799D01*
X99041654Y-67303799D01*
X99558472Y-66958472D01*
X100216410Y-65973799D01*
X122135000Y-65973799D01*
X122135000Y-66266201D01*
X122246897Y-66536344D01*
X122453656Y-66743103D01*
X122723799Y-66855000D01*
X123016201Y-66855000D01*
X123286344Y-66743103D01*
X123493103Y-66536344D01*
X123605000Y-66266201D01*
X123605000Y-65973799D01*
X123555295Y-65853799D01*
X135165000Y-65853799D01*
X135165000Y-66146201D01*
X135276897Y-66416344D01*
X135483656Y-66623103D01*
X135753799Y-66735000D01*
X136046201Y-66735000D01*
X136230745Y-66658559D01*
X136349788Y-66658559D01*
X136381878Y-66842000D01*
X137048200Y-66842000D01*
X137048200Y-66109012D01*
X137911800Y-66109012D01*
X137911800Y-66842000D01*
X138343600Y-66842000D01*
X138343600Y-67858000D01*
X137911800Y-67858000D01*
X137911800Y-68590988D01*
X138093919Y-68618268D01*
X138317898Y-68432922D01*
X138343600Y-68398501D01*
X138343600Y-68740002D01*
X138753600Y-68740002D01*
X138753600Y-67664034D01*
X138820295Y-67999333D01*
X139101786Y-68420614D01*
X139523066Y-68702105D01*
X140020000Y-68800951D01*
X140516933Y-68702105D01*
X140938214Y-68420614D01*
X141219705Y-67999334D01*
X141290000Y-67645936D01*
X141360295Y-67999333D01*
X141641786Y-68420614D01*
X142063066Y-68702105D01*
X142560000Y-68800951D01*
X143056933Y-68702105D01*
X143478214Y-68420614D01*
X143759705Y-67999334D01*
X143818368Y-67704415D01*
X143818368Y-68366000D01*
X143850189Y-68525974D01*
X143940807Y-68661593D01*
X144076426Y-68752211D01*
X144236400Y-68784032D01*
X145963600Y-68784032D01*
X146123574Y-68752211D01*
X146259193Y-68661593D01*
X146349811Y-68525974D01*
X146381632Y-68366000D01*
X146381632Y-67640000D01*
X147796064Y-67640000D01*
X147906738Y-68196397D01*
X148221912Y-68668088D01*
X148693603Y-68983262D01*
X149109556Y-69066000D01*
X149390444Y-69066000D01*
X149806397Y-68983262D01*
X150278088Y-68668088D01*
X150561508Y-68243919D01*
X151634132Y-68243919D01*
X151755768Y-68426026D01*
X152136075Y-68745908D01*
X152318200Y-68725708D01*
X152318200Y-68061800D01*
X153181800Y-68061800D01*
X153181800Y-68725708D01*
X153363925Y-68745908D01*
X153744232Y-68426026D01*
X153865868Y-68243919D01*
X154174132Y-68243919D01*
X154295768Y-68426026D01*
X154676075Y-68745908D01*
X154858200Y-68725708D01*
X154858200Y-68061800D01*
X155721800Y-68061800D01*
X155721800Y-68725708D01*
X155903925Y-68745908D01*
X156284232Y-68426026D01*
X156405868Y-68243919D01*
X156378588Y-68061800D01*
X155721800Y-68061800D01*
X154858200Y-68061800D01*
X154201412Y-68061800D01*
X154174132Y-68243919D01*
X153865868Y-68243919D01*
X153838588Y-68061800D01*
X153181800Y-68061800D01*
X152318200Y-68061800D01*
X151661412Y-68061800D01*
X151634132Y-68243919D01*
X150561508Y-68243919D01*
X150593262Y-68196397D01*
X150703936Y-67640000D01*
X150593262Y-67083603D01*
X150278088Y-66611912D01*
X150161532Y-66534032D01*
X150266000Y-66534032D01*
X150425974Y-66502211D01*
X150561593Y-66411593D01*
X150598471Y-66356400D01*
X151359998Y-66356400D01*
X151359998Y-66766400D01*
X151836107Y-66766400D01*
X151755768Y-66833974D01*
X151634132Y-67016081D01*
X151661412Y-67198200D01*
X152318200Y-67198200D01*
X152318200Y-66766400D01*
X153181800Y-66766400D01*
X153181800Y-67198200D01*
X153838588Y-67198200D01*
X153865868Y-67016081D01*
X153744232Y-66833974D01*
X153663893Y-66766400D01*
X154376107Y-66766400D01*
X154295768Y-66833974D01*
X154174132Y-67016081D01*
X154201412Y-67198200D01*
X154858200Y-67198200D01*
X154858200Y-66766400D01*
X155721800Y-66766400D01*
X155721800Y-67198200D01*
X156378588Y-67198200D01*
X156405868Y-67016081D01*
X156284232Y-66833974D01*
X156203893Y-66766400D01*
X156680002Y-66766400D01*
X156680002Y-66356400D01*
X155451635Y-66356400D01*
X155786934Y-66289705D01*
X156208214Y-66008214D01*
X156489705Y-65586934D01*
X156588551Y-65090000D01*
X156489705Y-64593066D01*
X156208214Y-64171786D01*
X155786934Y-63890295D01*
X155433536Y-63820000D01*
X155786934Y-63749705D01*
X156208214Y-63468214D01*
X156489705Y-63046934D01*
X156588551Y-62550000D01*
X156489705Y-62053066D01*
X156208214Y-61631786D01*
X155786934Y-61350295D01*
X155415438Y-61276400D01*
X155164562Y-61276400D01*
X154793066Y-61350295D01*
X154371786Y-61631786D01*
X154090295Y-62053066D01*
X154031632Y-62347986D01*
X154031632Y-61686400D01*
X153999811Y-61526426D01*
X153909193Y-61390807D01*
X153773574Y-61300189D01*
X153613600Y-61268368D01*
X151886400Y-61268368D01*
X151726426Y-61300189D01*
X151590807Y-61390807D01*
X151500189Y-61526426D01*
X151468368Y-61686400D01*
X151468368Y-63413600D01*
X151500189Y-63573574D01*
X151590807Y-63709193D01*
X151726426Y-63799811D01*
X151886400Y-63831632D01*
X152547985Y-63831632D01*
X152253066Y-63890295D01*
X151831786Y-64171786D01*
X151550295Y-64593066D01*
X151451449Y-65090000D01*
X151550295Y-65586934D01*
X151831786Y-66008214D01*
X152253066Y-66289705D01*
X152588365Y-66356400D01*
X151359998Y-66356400D01*
X150598471Y-66356400D01*
X150652211Y-66275974D01*
X150684032Y-66116000D01*
X150684032Y-64084000D01*
X150652211Y-63924026D01*
X150561593Y-63788407D01*
X150425974Y-63697789D01*
X150266000Y-63665968D01*
X148234000Y-63665968D01*
X148074026Y-63697789D01*
X147938407Y-63788407D01*
X147847789Y-63924026D01*
X147815968Y-64084000D01*
X147815968Y-66116000D01*
X147847789Y-66275974D01*
X147938407Y-66411593D01*
X148074026Y-66502211D01*
X148234000Y-66534032D01*
X148338468Y-66534032D01*
X148221912Y-66611912D01*
X147906738Y-67083603D01*
X147796064Y-67640000D01*
X146381632Y-67640000D01*
X146381632Y-66334000D01*
X146349811Y-66174026D01*
X146308276Y-66111864D01*
X146423203Y-66064260D01*
X146629962Y-65857501D01*
X146741859Y-65587358D01*
X146741859Y-65294956D01*
X146629962Y-65024813D01*
X146423203Y-64818054D01*
X146153060Y-64706157D01*
X145860658Y-64706157D01*
X145590515Y-64818054D01*
X145383756Y-65024813D01*
X145271859Y-65294956D01*
X145271859Y-65587358D01*
X145383756Y-65857501D01*
X145442223Y-65915968D01*
X144236400Y-65915968D01*
X144076426Y-65947789D01*
X143940807Y-66038407D01*
X143850189Y-66174026D01*
X143818368Y-66334000D01*
X143818368Y-66995586D01*
X143759705Y-66700667D01*
X143478214Y-66279386D01*
X143056934Y-65997895D01*
X142560000Y-65899049D01*
X142063067Y-65997895D01*
X141641787Y-66279386D01*
X141360295Y-66700666D01*
X141290000Y-67054064D01*
X141219705Y-66700667D01*
X140938214Y-66279386D01*
X140516934Y-65997895D01*
X140020000Y-65899049D01*
X139523067Y-65997895D01*
X139101787Y-66279386D01*
X138820295Y-66700666D01*
X138753600Y-67035965D01*
X138753600Y-65959998D01*
X138343600Y-65959998D01*
X138343600Y-66301499D01*
X138317898Y-66267078D01*
X138093919Y-66081732D01*
X137911800Y-66109012D01*
X137048200Y-66109012D01*
X136866081Y-66081732D01*
X136642102Y-66267078D01*
X136349788Y-66658559D01*
X136230745Y-66658559D01*
X136316344Y-66623103D01*
X136523103Y-66416344D01*
X136635000Y-66146201D01*
X136635000Y-65853799D01*
X136561966Y-65677481D01*
X136723103Y-65516344D01*
X136835000Y-65246201D01*
X136835000Y-64953799D01*
X136723103Y-64683656D01*
X136516344Y-64476897D01*
X136246201Y-64365000D01*
X135953799Y-64365000D01*
X135683656Y-64476897D01*
X135476897Y-64683656D01*
X135365000Y-64953799D01*
X135365000Y-65246201D01*
X135438034Y-65422519D01*
X135276897Y-65583656D01*
X135165000Y-65853799D01*
X123555295Y-65853799D01*
X123493103Y-65703656D01*
X123286344Y-65496897D01*
X123016201Y-65385000D01*
X122723799Y-65385000D01*
X122453656Y-65496897D01*
X122246897Y-65703656D01*
X122135000Y-65973799D01*
X100216410Y-65973799D01*
X100312149Y-65830516D01*
X100510000Y-64835852D01*
X100510000Y-64353799D01*
X127365000Y-64353799D01*
X127365000Y-64646201D01*
X127476897Y-64916344D01*
X127683656Y-65123103D01*
X127953799Y-65235000D01*
X128246201Y-65235000D01*
X128516344Y-65123103D01*
X128723103Y-64916344D01*
X128835000Y-64646201D01*
X128835000Y-64353799D01*
X128723103Y-64083656D01*
X128593246Y-63953799D01*
X130515000Y-63953799D01*
X130515000Y-64246201D01*
X130626897Y-64516344D01*
X130683003Y-64572450D01*
X130639799Y-64615654D01*
X130527902Y-64885797D01*
X130527902Y-65178199D01*
X130639799Y-65448342D01*
X130846558Y-65655101D01*
X131116701Y-65766998D01*
X131409103Y-65766998D01*
X131679246Y-65655101D01*
X131886005Y-65448342D01*
X131997902Y-65178199D01*
X131997902Y-64885797D01*
X131886005Y-64615654D01*
X131829899Y-64559548D01*
X131873103Y-64516344D01*
X131985000Y-64246201D01*
X131985000Y-63953799D01*
X131873103Y-63683656D01*
X131666344Y-63476897D01*
X131396201Y-63365000D01*
X131103799Y-63365000D01*
X130833656Y-63476897D01*
X130626897Y-63683656D01*
X130515000Y-63953799D01*
X128593246Y-63953799D01*
X128516344Y-63876897D01*
X128246201Y-63765000D01*
X127953799Y-63765000D01*
X127683656Y-63876897D01*
X127476897Y-64083656D01*
X127365000Y-64353799D01*
X100510000Y-64353799D01*
X100510000Y-62638881D01*
X116590000Y-62638881D01*
X116590000Y-62961119D01*
X116713315Y-63258828D01*
X116941172Y-63486685D01*
X117238881Y-63610000D01*
X117561119Y-63610000D01*
X117858828Y-63486685D01*
X118086685Y-63258828D01*
X118171610Y-63053799D01*
X121965000Y-63053799D01*
X121965000Y-63346201D01*
X122076897Y-63616344D01*
X122283656Y-63823103D01*
X122553799Y-63935000D01*
X122846201Y-63935000D01*
X123116344Y-63823103D01*
X123323103Y-63616344D01*
X123427710Y-63363799D01*
X124895000Y-63363799D01*
X124895000Y-63656201D01*
X125006897Y-63926344D01*
X125213656Y-64133103D01*
X125483799Y-64245000D01*
X125776201Y-64245000D01*
X126046344Y-64133103D01*
X126253103Y-63926344D01*
X126365000Y-63656201D01*
X126365000Y-63363799D01*
X126253103Y-63093656D01*
X126046344Y-62886897D01*
X125776201Y-62775000D01*
X125483799Y-62775000D01*
X125213656Y-62886897D01*
X125006897Y-63093656D01*
X124895000Y-63363799D01*
X123427710Y-63363799D01*
X123435000Y-63346201D01*
X123435000Y-63053799D01*
X123323103Y-62783656D01*
X123194287Y-62654840D01*
X123358828Y-62586685D01*
X123586685Y-62358828D01*
X123710000Y-62061119D01*
X123710000Y-61753799D01*
X125340000Y-61753799D01*
X125340000Y-62046201D01*
X125451897Y-62316344D01*
X125658656Y-62523103D01*
X125928799Y-62635000D01*
X126221201Y-62635000D01*
X126491344Y-62523103D01*
X126698103Y-62316344D01*
X126745858Y-62201054D01*
X126801897Y-62336344D01*
X127008656Y-62543103D01*
X127278799Y-62655000D01*
X127571201Y-62655000D01*
X127841344Y-62543103D01*
X128048103Y-62336344D01*
X128160000Y-62066201D01*
X128160000Y-61820180D01*
X128788619Y-61820180D01*
X128788619Y-62112582D01*
X128900516Y-62382725D01*
X129107275Y-62589484D01*
X129377418Y-62701381D01*
X129669820Y-62701381D01*
X129784693Y-62653799D01*
X133765000Y-62653799D01*
X133765000Y-62946201D01*
X133876897Y-63216344D01*
X134083656Y-63423103D01*
X134353799Y-63535000D01*
X134646201Y-63535000D01*
X134916344Y-63423103D01*
X135123103Y-63216344D01*
X135235000Y-62946201D01*
X135235000Y-62653799D01*
X135265000Y-62653799D01*
X135265000Y-62946201D01*
X135376897Y-63216344D01*
X135583656Y-63423103D01*
X135853799Y-63535000D01*
X136146201Y-63535000D01*
X136416344Y-63423103D01*
X136623103Y-63216344D01*
X136735000Y-62946201D01*
X136735000Y-62653799D01*
X136623103Y-62383656D01*
X136416344Y-62176897D01*
X136146201Y-62065000D01*
X135853799Y-62065000D01*
X135583656Y-62176897D01*
X135376897Y-62383656D01*
X135265000Y-62653799D01*
X135235000Y-62653799D01*
X135123103Y-62383656D01*
X134916344Y-62176897D01*
X134646201Y-62065000D01*
X134353799Y-62065000D01*
X134083656Y-62176897D01*
X133876897Y-62383656D01*
X133765000Y-62653799D01*
X129784693Y-62653799D01*
X129939963Y-62589484D01*
X130146722Y-62382725D01*
X130258619Y-62112582D01*
X130258619Y-61820180D01*
X130231124Y-61753799D01*
X148165000Y-61753799D01*
X148165000Y-62046201D01*
X148276897Y-62316344D01*
X148483656Y-62523103D01*
X148753799Y-62635000D01*
X149046201Y-62635000D01*
X149316344Y-62523103D01*
X149523103Y-62316344D01*
X149635000Y-62046201D01*
X149635000Y-61753799D01*
X149523103Y-61483656D01*
X149316344Y-61276897D01*
X149046201Y-61165000D01*
X148753799Y-61165000D01*
X148483656Y-61276897D01*
X148276897Y-61483656D01*
X148165000Y-61753799D01*
X130231124Y-61753799D01*
X130146722Y-61550037D01*
X129939963Y-61343278D01*
X129669820Y-61231381D01*
X129377418Y-61231381D01*
X129107275Y-61343278D01*
X128900516Y-61550037D01*
X128788619Y-61820180D01*
X128160000Y-61820180D01*
X128160000Y-61773799D01*
X128048103Y-61503656D01*
X127841344Y-61296897D01*
X127571201Y-61185000D01*
X127278799Y-61185000D01*
X127008656Y-61296897D01*
X126801897Y-61503656D01*
X126754142Y-61618946D01*
X126698103Y-61483656D01*
X126491344Y-61276897D01*
X126221201Y-61165000D01*
X125928799Y-61165000D01*
X125658656Y-61276897D01*
X125451897Y-61483656D01*
X125340000Y-61753799D01*
X123710000Y-61753799D01*
X123710000Y-61738881D01*
X123586685Y-61441172D01*
X123358828Y-61213315D01*
X123061119Y-61090000D01*
X122738881Y-61090000D01*
X122441172Y-61213315D01*
X122213315Y-61441172D01*
X122090000Y-61738881D01*
X122090000Y-62061119D01*
X122213315Y-62358828D01*
X122388115Y-62533628D01*
X122283656Y-62576897D01*
X122076897Y-62783656D01*
X121965000Y-63053799D01*
X118171610Y-63053799D01*
X118210000Y-62961119D01*
X118210000Y-62638881D01*
X118086685Y-62341172D01*
X117858828Y-62113315D01*
X117561119Y-61990000D01*
X117238881Y-61990000D01*
X116941172Y-62113315D01*
X116713315Y-62341172D01*
X116590000Y-62638881D01*
X100510000Y-62638881D01*
X100510000Y-60164148D01*
X100312149Y-59169484D01*
X99984593Y-58679262D01*
X117340000Y-58679262D01*
X117340000Y-59140738D01*
X117516599Y-59567087D01*
X117842913Y-59893401D01*
X118269262Y-60070000D01*
X118730738Y-60070000D01*
X119157087Y-59893401D01*
X119483401Y-59567087D01*
X119660000Y-59140738D01*
X119660000Y-58953799D01*
X125065000Y-58953799D01*
X125065000Y-59246201D01*
X125176897Y-59516344D01*
X125383656Y-59723103D01*
X125653799Y-59835000D01*
X125946201Y-59835000D01*
X126216344Y-59723103D01*
X126423103Y-59516344D01*
X126471294Y-59400000D01*
X134306064Y-59400000D01*
X134416738Y-59956397D01*
X134731912Y-60428088D01*
X135203603Y-60743262D01*
X135619556Y-60826000D01*
X135900444Y-60826000D01*
X136316397Y-60743262D01*
X136788088Y-60428088D01*
X136865968Y-60311532D01*
X136865968Y-60416000D01*
X136897789Y-60575974D01*
X136988407Y-60711593D01*
X137124026Y-60802211D01*
X137284000Y-60834032D01*
X139316000Y-60834032D01*
X139475974Y-60802211D01*
X139611593Y-60711593D01*
X139702211Y-60575974D01*
X139734032Y-60416000D01*
X139734032Y-60058800D01*
X154249895Y-60058800D01*
X154292297Y-60104609D01*
X154516281Y-60371434D01*
X154825325Y-60532234D01*
X154962500Y-60458238D01*
X154962500Y-59925000D01*
X155737500Y-59925000D01*
X155737500Y-60458238D01*
X155874675Y-60532234D01*
X156183719Y-60371434D01*
X156407703Y-60104609D01*
X156450105Y-60058800D01*
X156392826Y-59925000D01*
X155737500Y-59925000D01*
X154962500Y-59925000D01*
X154307174Y-59925000D01*
X154249895Y-60058800D01*
X139734032Y-60058800D01*
X139734032Y-58919384D01*
X151850107Y-58919384D01*
X152025174Y-59210735D01*
X152298410Y-59412913D01*
X152302058Y-59429888D01*
X152432500Y-59370587D01*
X152432500Y-58787500D01*
X152907500Y-58787500D01*
X152907500Y-59370587D01*
X153037942Y-59429888D01*
X153041590Y-59412913D01*
X153206080Y-59291200D01*
X154249895Y-59291200D01*
X154307174Y-59425000D01*
X154962500Y-59425000D01*
X154962500Y-58891762D01*
X155737500Y-58891762D01*
X155737500Y-59425000D01*
X156392826Y-59425000D01*
X156450105Y-59291200D01*
X156407703Y-59245391D01*
X156183719Y-58978566D01*
X155874675Y-58817766D01*
X155737500Y-58891762D01*
X154962500Y-58891762D01*
X154825325Y-58817766D01*
X154516281Y-58978566D01*
X154292297Y-59245391D01*
X154249895Y-59291200D01*
X153206080Y-59291200D01*
X153314826Y-59210735D01*
X153489893Y-58919384D01*
X153423351Y-58787500D01*
X152907500Y-58787500D01*
X152432500Y-58787500D01*
X151916649Y-58787500D01*
X151850107Y-58919384D01*
X139734032Y-58919384D01*
X139734032Y-58384000D01*
X139702211Y-58224026D01*
X139611593Y-58088407D01*
X139475974Y-57997789D01*
X139316000Y-57965968D01*
X137284000Y-57965968D01*
X137124026Y-57997789D01*
X136988407Y-58088407D01*
X136897789Y-58224026D01*
X136865968Y-58384000D01*
X136865968Y-58488468D01*
X136788088Y-58371912D01*
X136316397Y-58056738D01*
X135900444Y-57974000D01*
X135619556Y-57974000D01*
X135203603Y-58056738D01*
X134731912Y-58371912D01*
X134416738Y-58843603D01*
X134306064Y-59400000D01*
X126471294Y-59400000D01*
X126535000Y-59246201D01*
X126535000Y-58953799D01*
X126423103Y-58683656D01*
X126216344Y-58476897D01*
X125946201Y-58365000D01*
X125653799Y-58365000D01*
X125383656Y-58476897D01*
X125176897Y-58683656D01*
X125065000Y-58953799D01*
X119660000Y-58953799D01*
X119660000Y-58679262D01*
X119483401Y-58252913D01*
X119157087Y-57926599D01*
X118730738Y-57750000D01*
X118719670Y-57750000D01*
X118500000Y-57530330D01*
X118280330Y-57750000D01*
X118269262Y-57750000D01*
X117842913Y-57926599D01*
X117516599Y-58252913D01*
X117340000Y-58679262D01*
X99984593Y-58679262D01*
X99558472Y-58041528D01*
X98430515Y-57287851D01*
X97500116Y-57102783D01*
X117321749Y-57102783D01*
X117372105Y-57355938D01*
X117518503Y-57451167D01*
X117969670Y-57000000D01*
X119030330Y-57000000D01*
X119481497Y-57451167D01*
X119627895Y-57355938D01*
X119678251Y-56897217D01*
X119627895Y-56644062D01*
X119481497Y-56548833D01*
X119030330Y-57000000D01*
X117969670Y-57000000D01*
X117518503Y-56548833D01*
X117372105Y-56644062D01*
X117321749Y-57102783D01*
X97500116Y-57102783D01*
X97100000Y-57023195D01*
X95769484Y-57287851D01*
X94641528Y-58041528D01*
X93887851Y-59169485D01*
X93690000Y-60164149D01*
X93342380Y-60164149D01*
X93410000Y-60000901D01*
X93410000Y-59599099D01*
X93256237Y-59227881D01*
X93178356Y-59150000D01*
X93256237Y-59072119D01*
X93410000Y-58700901D01*
X93410000Y-58299099D01*
X93256237Y-57927881D01*
X92972119Y-57643763D01*
X92600901Y-57490000D01*
X92199099Y-57490000D01*
X91827881Y-57643763D01*
X91543763Y-57927881D01*
X91390000Y-58299099D01*
X87502532Y-58299099D01*
X87483401Y-58252913D01*
X87157087Y-57926599D01*
X86730738Y-57750000D01*
X86719670Y-57750000D01*
X86500000Y-57530330D01*
X86280330Y-57750000D01*
X86269262Y-57750000D01*
X85842913Y-57926599D01*
X85516599Y-58252913D01*
X85340000Y-58679262D01*
X70307618Y-58679262D01*
X70172119Y-58543763D01*
X69800901Y-58390000D01*
X69531673Y-58390000D01*
X69610000Y-58200901D01*
X69610000Y-57799099D01*
X69456237Y-57427881D01*
X69172119Y-57143763D01*
X69073185Y-57102783D01*
X85321749Y-57102783D01*
X85372105Y-57355938D01*
X85518503Y-57451167D01*
X85969670Y-57000000D01*
X87030330Y-57000000D01*
X87481497Y-57451167D01*
X87627895Y-57355938D01*
X87673677Y-56938881D01*
X89940000Y-56938881D01*
X89940000Y-57261119D01*
X90063315Y-57558828D01*
X90291172Y-57786685D01*
X90588881Y-57910000D01*
X90911119Y-57910000D01*
X91208828Y-57786685D01*
X91436685Y-57558828D01*
X91560000Y-57261119D01*
X91560000Y-56938881D01*
X91436685Y-56641172D01*
X91208828Y-56413315D01*
X90911119Y-56290000D01*
X90588881Y-56290000D01*
X90291172Y-56413315D01*
X90063315Y-56641172D01*
X89940000Y-56938881D01*
X87673677Y-56938881D01*
X87678251Y-56897217D01*
X87627895Y-56644062D01*
X87481497Y-56548833D01*
X87030330Y-57000000D01*
X85969670Y-57000000D01*
X85518503Y-56548833D01*
X85372105Y-56644062D01*
X85321749Y-57102783D01*
X69073185Y-57102783D01*
X68800901Y-56990000D01*
X68399099Y-56990000D01*
X68027881Y-57143763D01*
X67743763Y-57427881D01*
X67590000Y-57799099D01*
X67590000Y-58088713D01*
X67558472Y-58041528D01*
X66430515Y-57287851D01*
X65100000Y-57023195D01*
X63769484Y-57287851D01*
X62641528Y-58041528D01*
X61887851Y-59169485D01*
X61690000Y-60164149D01*
X60510000Y-60164149D01*
X60510000Y-49164149D01*
X61690000Y-49164149D01*
X61690001Y-53835852D01*
X61887852Y-54830516D01*
X62641529Y-55958472D01*
X63769485Y-56712149D01*
X65100000Y-56976805D01*
X66430516Y-56712149D01*
X67558472Y-55958472D01*
X68312149Y-54830516D01*
X68395138Y-54413304D01*
X68543763Y-54772119D01*
X68827881Y-55056237D01*
X69199099Y-55210000D01*
X69600901Y-55210000D01*
X69972119Y-55056237D01*
X70169094Y-54859262D01*
X85340000Y-54859262D01*
X85340000Y-55320738D01*
X85516599Y-55747087D01*
X85842913Y-56073401D01*
X86269262Y-56250000D01*
X86280330Y-56250000D01*
X86500000Y-56469670D01*
X86719670Y-56250000D01*
X86730738Y-56250000D01*
X87157087Y-56073401D01*
X87483401Y-55747087D01*
X87660000Y-55320738D01*
X87660000Y-54859262D01*
X87483401Y-54432913D01*
X87157087Y-54106599D01*
X86730738Y-53930000D01*
X86269262Y-53930000D01*
X85842913Y-54106599D01*
X85516599Y-54432913D01*
X85340000Y-54859262D01*
X70169094Y-54859262D01*
X70256237Y-54772119D01*
X70410000Y-54400901D01*
X70410000Y-53999099D01*
X70256237Y-53627881D01*
X70128356Y-53500000D01*
X70256237Y-53372119D01*
X70410000Y-53000901D01*
X70410000Y-52599099D01*
X70256237Y-52227881D01*
X70128356Y-52100000D01*
X70256237Y-51972119D01*
X70410000Y-51600901D01*
X70410000Y-51199099D01*
X70256237Y-50827881D01*
X70128356Y-50700000D01*
X70256237Y-50572119D01*
X70410000Y-50200901D01*
X70410000Y-49805261D01*
X70658581Y-50053842D01*
X72242688Y-50710000D01*
X73957312Y-50710000D01*
X75541419Y-50053842D01*
X75597045Y-49998216D01*
X80760434Y-49998216D01*
X81290568Y-50404628D01*
X82960807Y-50792233D01*
X84652238Y-50511161D01*
X84909432Y-50404628D01*
X85439566Y-49998216D01*
X85095149Y-49653799D01*
X86565000Y-49653799D01*
X86565000Y-49946201D01*
X86676897Y-50216344D01*
X86883656Y-50423103D01*
X87153799Y-50535000D01*
X87446201Y-50535000D01*
X87716344Y-50423103D01*
X87923103Y-50216344D01*
X88035000Y-49946201D01*
X88035000Y-49653799D01*
X87923103Y-49383656D01*
X87716344Y-49176897D01*
X87685568Y-49164149D01*
X93690000Y-49164149D01*
X93690001Y-53835852D01*
X93887852Y-54830516D01*
X94641529Y-55958472D01*
X95769485Y-56712149D01*
X97100000Y-56976805D01*
X98430516Y-56712149D01*
X99558472Y-55958472D01*
X100292941Y-54859262D01*
X117340000Y-54859262D01*
X117340000Y-55320738D01*
X117516599Y-55747087D01*
X117842913Y-56073401D01*
X118269262Y-56250000D01*
X118280330Y-56250000D01*
X118500000Y-56469670D01*
X118719670Y-56250000D01*
X118730738Y-56250000D01*
X119157087Y-56073401D01*
X119400488Y-55830000D01*
X128172173Y-55830000D01*
X128242800Y-56185064D01*
X128316945Y-56296030D01*
X128304407Y-56304407D01*
X128213789Y-56440026D01*
X128181968Y-56600000D01*
X128181968Y-57600000D01*
X128213789Y-57759974D01*
X128304407Y-57895593D01*
X128440026Y-57986211D01*
X128600000Y-58018032D01*
X129561487Y-58018032D01*
X129476522Y-58102997D01*
X129364625Y-58373140D01*
X129364625Y-58665542D01*
X129476522Y-58935685D01*
X129683281Y-59142444D01*
X129953424Y-59254341D01*
X130245826Y-59254341D01*
X130515969Y-59142444D01*
X130722728Y-58935685D01*
X130834625Y-58665542D01*
X130834625Y-58373140D01*
X130722728Y-58102997D01*
X130515969Y-57896238D01*
X130245826Y-57784341D01*
X129969929Y-57784341D01*
X129986211Y-57759974D01*
X130018032Y-57600000D01*
X130018032Y-57492159D01*
X149415000Y-57492159D01*
X149415000Y-57784561D01*
X149526897Y-58054704D01*
X149733656Y-58261463D01*
X150003799Y-58373360D01*
X150296201Y-58373360D01*
X150566344Y-58261463D01*
X150773103Y-58054704D01*
X150783080Y-58030616D01*
X151850107Y-58030616D01*
X151916649Y-58162500D01*
X152432500Y-58162500D01*
X152432500Y-57579413D01*
X152907500Y-57579413D01*
X152907500Y-58162500D01*
X153423351Y-58162500D01*
X153489893Y-58030616D01*
X153314826Y-57739265D01*
X153041590Y-57537087D01*
X153037942Y-57520112D01*
X152907500Y-57579413D01*
X152432500Y-57579413D01*
X152302058Y-57520112D01*
X152298410Y-57537087D01*
X152025174Y-57739265D01*
X151850107Y-58030616D01*
X150783080Y-58030616D01*
X150885000Y-57784561D01*
X150885000Y-57492159D01*
X150773103Y-57222016D01*
X150566344Y-57015257D01*
X150296201Y-56903360D01*
X150003799Y-56903360D01*
X149733656Y-57015257D01*
X149526897Y-57222016D01*
X149415000Y-57492159D01*
X130018032Y-57492159D01*
X130018032Y-56600000D01*
X129986211Y-56440026D01*
X129895593Y-56304407D01*
X129883055Y-56296030D01*
X129957200Y-56185064D01*
X130027827Y-55830000D01*
X129957200Y-55474936D01*
X129756073Y-55173927D01*
X129455064Y-54972800D01*
X129189622Y-54920000D01*
X129010378Y-54920000D01*
X128744936Y-54972800D01*
X128443927Y-55173927D01*
X128242800Y-55474936D01*
X128172173Y-55830000D01*
X119400488Y-55830000D01*
X119483401Y-55747087D01*
X119660000Y-55320738D01*
X119660000Y-54859262D01*
X119483401Y-54432913D01*
X119157087Y-54106599D01*
X118730738Y-53930000D01*
X118269262Y-53930000D01*
X117842913Y-54106599D01*
X117516599Y-54432913D01*
X117340000Y-54859262D01*
X100292941Y-54859262D01*
X100312149Y-54830516D01*
X100429885Y-54238615D01*
X100443763Y-54272119D01*
X100727881Y-54556237D01*
X101099099Y-54710000D01*
X101500901Y-54710000D01*
X101872119Y-54556237D01*
X102156237Y-54272119D01*
X102310000Y-53900901D01*
X102310000Y-53499099D01*
X102169542Y-53160000D01*
X131301449Y-53160000D01*
X131400295Y-53656934D01*
X131681786Y-54078214D01*
X132103066Y-54359705D01*
X132397985Y-54418368D01*
X131736400Y-54418368D01*
X131576426Y-54450189D01*
X131440807Y-54540807D01*
X131350189Y-54676426D01*
X131318368Y-54836400D01*
X131318368Y-56563600D01*
X131350189Y-56723574D01*
X131440807Y-56859193D01*
X131576426Y-56949811D01*
X131736400Y-56981632D01*
X133463600Y-56981632D01*
X133623574Y-56949811D01*
X133759193Y-56859193D01*
X133849811Y-56723574D01*
X133881632Y-56563600D01*
X133881632Y-55902014D01*
X133940295Y-56196934D01*
X134221786Y-56618214D01*
X134643066Y-56899705D01*
X135014562Y-56973600D01*
X135265438Y-56973600D01*
X135636934Y-56899705D01*
X136058214Y-56618214D01*
X136339705Y-56196934D01*
X136406400Y-55861635D01*
X136406400Y-57090002D01*
X136816400Y-57090002D01*
X136816400Y-56613893D01*
X136883974Y-56694232D01*
X137066081Y-56815868D01*
X137248200Y-56788588D01*
X137248200Y-56131800D01*
X138111800Y-56131800D01*
X138111800Y-56788588D01*
X138293919Y-56815868D01*
X138476026Y-56694232D01*
X138795908Y-56313925D01*
X139104092Y-56313925D01*
X139423974Y-56694232D01*
X139606081Y-56815868D01*
X139788200Y-56788588D01*
X139788200Y-56131800D01*
X139124292Y-56131800D01*
X139104092Y-56313925D01*
X138795908Y-56313925D01*
X138775708Y-56131800D01*
X138111800Y-56131800D01*
X137248200Y-56131800D01*
X136816400Y-56131800D01*
X136816400Y-55268200D01*
X137248200Y-55268200D01*
X137248200Y-54611412D01*
X138111800Y-54611412D01*
X138111800Y-55268200D01*
X138775708Y-55268200D01*
X138795908Y-55086075D01*
X139104092Y-55086075D01*
X139124292Y-55268200D01*
X139788200Y-55268200D01*
X139788200Y-54611412D01*
X139606081Y-54584132D01*
X139423974Y-54705768D01*
X139104092Y-55086075D01*
X138795908Y-55086075D01*
X138476026Y-54705768D01*
X138293919Y-54584132D01*
X138111800Y-54611412D01*
X137248200Y-54611412D01*
X137066081Y-54584132D01*
X136883974Y-54705768D01*
X136816400Y-54786107D01*
X136816400Y-54073893D01*
X136883974Y-54154232D01*
X137066081Y-54275868D01*
X137248200Y-54248588D01*
X137248200Y-53591800D01*
X138111800Y-53591800D01*
X138111800Y-54248588D01*
X138293919Y-54275868D01*
X138476026Y-54154232D01*
X138795908Y-53773925D01*
X139104092Y-53773925D01*
X139423974Y-54154232D01*
X139606081Y-54275868D01*
X139788200Y-54248588D01*
X139788200Y-53591800D01*
X139124292Y-53591800D01*
X139104092Y-53773925D01*
X138795908Y-53773925D01*
X138775708Y-53591800D01*
X138111800Y-53591800D01*
X137248200Y-53591800D01*
X136816400Y-53591800D01*
X136816400Y-52728200D01*
X137248200Y-52728200D01*
X137248200Y-52071412D01*
X138111800Y-52071412D01*
X138111800Y-52728200D01*
X138775708Y-52728200D01*
X138795908Y-52546075D01*
X139104092Y-52546075D01*
X139124292Y-52728200D01*
X139788200Y-52728200D01*
X139788200Y-52071412D01*
X140651800Y-52071412D01*
X140651800Y-52728200D01*
X141083600Y-52728200D01*
X141083600Y-53591800D01*
X140651800Y-53591800D01*
X140651800Y-54248588D01*
X140833919Y-54275868D01*
X141016026Y-54154232D01*
X141083600Y-54073893D01*
X141083600Y-54786107D01*
X141016026Y-54705768D01*
X140833919Y-54584132D01*
X140651800Y-54611412D01*
X140651800Y-55268200D01*
X141083600Y-55268200D01*
X141083600Y-56131800D01*
X140651800Y-56131800D01*
X140651800Y-56788588D01*
X140833919Y-56815868D01*
X141016026Y-56694232D01*
X141083600Y-56613893D01*
X141083600Y-57090002D01*
X141493600Y-57090002D01*
X141493600Y-55861635D01*
X141560295Y-56196934D01*
X141841786Y-56618214D01*
X142263066Y-56899705D01*
X142634562Y-56973600D01*
X142885438Y-56973600D01*
X143256934Y-56899705D01*
X143678214Y-56618214D01*
X143959705Y-56196934D01*
X144030000Y-55843536D01*
X144100295Y-56196934D01*
X144381786Y-56618214D01*
X144803066Y-56899705D01*
X145174562Y-56973600D01*
X145425438Y-56973600D01*
X145796934Y-56899705D01*
X146218214Y-56618214D01*
X146499705Y-56196934D01*
X146598551Y-55700000D01*
X146499705Y-55203066D01*
X146218214Y-54781786D01*
X145796934Y-54500295D01*
X145443536Y-54430000D01*
X145796934Y-54359705D01*
X146218214Y-54078214D01*
X146224114Y-54069384D01*
X151850107Y-54069384D01*
X152025174Y-54360735D01*
X152298410Y-54562913D01*
X152302058Y-54579888D01*
X152432500Y-54520587D01*
X152432500Y-53937500D01*
X152907500Y-53937500D01*
X152907500Y-54520587D01*
X153037942Y-54579888D01*
X153041590Y-54562913D01*
X153314826Y-54360735D01*
X153489893Y-54069384D01*
X153423351Y-53937500D01*
X152907500Y-53937500D01*
X152432500Y-53937500D01*
X151916649Y-53937500D01*
X151850107Y-54069384D01*
X146224114Y-54069384D01*
X146499705Y-53656934D01*
X146594450Y-53180616D01*
X151850107Y-53180616D01*
X151916649Y-53312500D01*
X152432500Y-53312500D01*
X152432500Y-52729413D01*
X152907500Y-52729413D01*
X152907500Y-53312500D01*
X153423351Y-53312500D01*
X153489893Y-53180616D01*
X153314826Y-52889265D01*
X153206081Y-52808800D01*
X154249895Y-52808800D01*
X154292297Y-52854609D01*
X154516281Y-53121434D01*
X154825325Y-53282234D01*
X154962500Y-53208238D01*
X154962500Y-52675000D01*
X155737500Y-52675000D01*
X155737500Y-53208238D01*
X155874675Y-53282234D01*
X156183719Y-53121434D01*
X156407703Y-52854609D01*
X156450105Y-52808800D01*
X156392826Y-52675000D01*
X155737500Y-52675000D01*
X154962500Y-52675000D01*
X154307174Y-52675000D01*
X154249895Y-52808800D01*
X153206081Y-52808800D01*
X153041590Y-52687087D01*
X153037942Y-52670112D01*
X152907500Y-52729413D01*
X152432500Y-52729413D01*
X152302058Y-52670112D01*
X152298410Y-52687087D01*
X152025174Y-52889265D01*
X151850107Y-53180616D01*
X146594450Y-53180616D01*
X146598551Y-53160000D01*
X146499705Y-52663066D01*
X146218214Y-52241786D01*
X145918017Y-52041200D01*
X154249895Y-52041200D01*
X154307174Y-52175000D01*
X154962500Y-52175000D01*
X154962500Y-51641762D01*
X155737500Y-51641762D01*
X155737500Y-52175000D01*
X156392826Y-52175000D01*
X156450105Y-52041200D01*
X156407703Y-51995391D01*
X156183719Y-51728566D01*
X155874675Y-51567766D01*
X155737500Y-51641762D01*
X154962500Y-51641762D01*
X154825325Y-51567766D01*
X154516281Y-51728566D01*
X154292297Y-51995391D01*
X154249895Y-52041200D01*
X145918017Y-52041200D01*
X145796934Y-51960295D01*
X145425438Y-51886400D01*
X145174562Y-51886400D01*
X144803066Y-51960295D01*
X144381786Y-52241786D01*
X144100295Y-52663066D01*
X144030000Y-53016464D01*
X143959705Y-52663066D01*
X143678214Y-52241786D01*
X143256934Y-51960295D01*
X142885438Y-51886400D01*
X142634562Y-51886400D01*
X142263066Y-51960295D01*
X141841786Y-52241786D01*
X141560295Y-52663066D01*
X141493600Y-52998365D01*
X141493600Y-51769998D01*
X141083600Y-51769998D01*
X141083600Y-52246107D01*
X141016026Y-52165768D01*
X140833919Y-52044132D01*
X140651800Y-52071412D01*
X139788200Y-52071412D01*
X139606081Y-52044132D01*
X139423974Y-52165768D01*
X139104092Y-52546075D01*
X138795908Y-52546075D01*
X138476026Y-52165768D01*
X138293919Y-52044132D01*
X138111800Y-52071412D01*
X137248200Y-52071412D01*
X137066081Y-52044132D01*
X136883974Y-52165768D01*
X136816400Y-52246107D01*
X136816400Y-51769998D01*
X136406400Y-51769998D01*
X136406400Y-52998365D01*
X136339705Y-52663066D01*
X136058214Y-52241786D01*
X135636934Y-51960295D01*
X135265438Y-51886400D01*
X135014562Y-51886400D01*
X134643066Y-51960295D01*
X134221786Y-52241786D01*
X133940295Y-52663066D01*
X133870000Y-53016464D01*
X133799705Y-52663066D01*
X133518214Y-52241786D01*
X133096934Y-51960295D01*
X132725438Y-51886400D01*
X132474562Y-51886400D01*
X132103066Y-51960295D01*
X131681786Y-52241786D01*
X131400295Y-52663066D01*
X131301449Y-53160000D01*
X102169542Y-53160000D01*
X102156237Y-53127881D01*
X102028356Y-53000000D01*
X102156237Y-52872119D01*
X102310000Y-52500901D01*
X102310000Y-52099099D01*
X102156237Y-51727881D01*
X102028356Y-51600000D01*
X102156237Y-51472119D01*
X102252330Y-51240129D01*
X120901330Y-51240129D01*
X120901330Y-51532531D01*
X121013227Y-51802674D01*
X121219986Y-52009433D01*
X121490129Y-52121330D01*
X121782531Y-52121330D01*
X122052674Y-52009433D01*
X122259433Y-51802674D01*
X122321637Y-51652500D01*
X126090000Y-51652500D01*
X126090000Y-51881554D01*
X126152419Y-52032246D01*
X126267754Y-52147581D01*
X126418446Y-52210000D01*
X126647500Y-52210000D01*
X126750000Y-52107500D01*
X126750000Y-51550000D01*
X126192500Y-51550000D01*
X126090000Y-51652500D01*
X122321637Y-51652500D01*
X122371330Y-51532531D01*
X122371330Y-51240129D01*
X122259433Y-50969986D01*
X122052674Y-50763227D01*
X121944564Y-50718446D01*
X126090000Y-50718446D01*
X126090000Y-50947500D01*
X126192500Y-51050000D01*
X126750000Y-51050000D01*
X126750000Y-50492500D01*
X127250000Y-50492500D01*
X127250000Y-51050000D01*
X127391901Y-51050000D01*
X127342173Y-51300000D01*
X127391901Y-51550000D01*
X127250000Y-51550000D01*
X127250000Y-52107500D01*
X127352500Y-52210000D01*
X127500000Y-52210000D01*
X127500000Y-52690002D01*
X127910000Y-52690002D01*
X127910000Y-52153902D01*
X127914936Y-52157200D01*
X128180378Y-52210000D01*
X128359622Y-52210000D01*
X128625064Y-52157200D01*
X128926073Y-51956073D01*
X129029338Y-51801526D01*
X129076897Y-51916344D01*
X129283656Y-52123103D01*
X129553799Y-52235000D01*
X129846201Y-52235000D01*
X130116344Y-52123103D01*
X130323103Y-51916344D01*
X130435000Y-51646201D01*
X130435000Y-51353799D01*
X130323103Y-51083656D01*
X130116344Y-50876897D01*
X129846201Y-50765000D01*
X129553799Y-50765000D01*
X129283656Y-50876897D01*
X129141869Y-51018684D01*
X129127200Y-50944936D01*
X128926073Y-50643927D01*
X128625064Y-50442800D01*
X128359622Y-50390000D01*
X128180378Y-50390000D01*
X127914936Y-50442800D01*
X127910000Y-50446098D01*
X127910000Y-49909998D01*
X127500000Y-49909998D01*
X127500000Y-50390000D01*
X127352500Y-50390000D01*
X127250000Y-50492500D01*
X126750000Y-50492500D01*
X126647500Y-50390000D01*
X126418446Y-50390000D01*
X126267754Y-50452419D01*
X126152419Y-50567754D01*
X126090000Y-50718446D01*
X121944564Y-50718446D01*
X121782531Y-50651330D01*
X121490129Y-50651330D01*
X121219986Y-50763227D01*
X121013227Y-50969986D01*
X120901330Y-51240129D01*
X102252330Y-51240129D01*
X102310000Y-51100901D01*
X102310000Y-50699099D01*
X102156237Y-50327881D01*
X102028356Y-50200000D01*
X102156237Y-50072119D01*
X102308723Y-49703984D01*
X102658581Y-50053842D01*
X104242688Y-50710000D01*
X105957312Y-50710000D01*
X107541419Y-50053842D01*
X107597045Y-49998216D01*
X112760434Y-49998216D01*
X113290568Y-50404628D01*
X114960807Y-50792233D01*
X116652238Y-50511161D01*
X116909432Y-50404628D01*
X117439566Y-49998216D01*
X115100000Y-47658650D01*
X112760434Y-49998216D01*
X107597045Y-49998216D01*
X108753842Y-48841419D01*
X109410000Y-47257312D01*
X109410000Y-46260807D01*
X110707767Y-46260807D01*
X110988839Y-47952238D01*
X111095372Y-48209432D01*
X111501784Y-48739566D01*
X113841350Y-46400000D01*
X116358650Y-46400000D01*
X118698216Y-48739566D01*
X119104628Y-48209432D01*
X119394578Y-46960000D01*
X131301449Y-46960000D01*
X131400295Y-47456934D01*
X131681786Y-47878214D01*
X132103066Y-48159705D01*
X132397985Y-48218368D01*
X131736400Y-48218368D01*
X131576426Y-48250189D01*
X131440807Y-48340807D01*
X131350189Y-48476426D01*
X131318368Y-48636400D01*
X131318368Y-50363600D01*
X131350189Y-50523574D01*
X131440807Y-50659193D01*
X131576426Y-50749811D01*
X131736400Y-50781632D01*
X133463600Y-50781632D01*
X133623574Y-50749811D01*
X133759193Y-50659193D01*
X133849811Y-50523574D01*
X133881632Y-50363600D01*
X133881632Y-49702014D01*
X133940295Y-49996934D01*
X134221786Y-50418214D01*
X134643066Y-50699705D01*
X135014562Y-50773600D01*
X135265438Y-50773600D01*
X135636934Y-50699705D01*
X136058214Y-50418214D01*
X136339705Y-49996934D01*
X136406400Y-49661635D01*
X136406400Y-50890002D01*
X136816400Y-50890002D01*
X136816400Y-50413893D01*
X136883974Y-50494232D01*
X137066081Y-50615868D01*
X137248200Y-50588588D01*
X137248200Y-49931800D01*
X138111800Y-49931800D01*
X138111800Y-50588588D01*
X138293919Y-50615868D01*
X138476026Y-50494232D01*
X138795908Y-50113925D01*
X138775708Y-49931800D01*
X138111800Y-49931800D01*
X137248200Y-49931800D01*
X136816400Y-49931800D01*
X136816400Y-49068200D01*
X137248200Y-49068200D01*
X137248200Y-48411412D01*
X138111800Y-48411412D01*
X138111800Y-49068200D01*
X138775708Y-49068200D01*
X138795908Y-48886075D01*
X138476026Y-48505768D01*
X138293919Y-48384132D01*
X138111800Y-48411412D01*
X137248200Y-48411412D01*
X137066081Y-48384132D01*
X136883974Y-48505768D01*
X136816400Y-48586107D01*
X136816400Y-47873893D01*
X136883974Y-47954232D01*
X137066081Y-48075868D01*
X137248200Y-48048588D01*
X137248200Y-47391800D01*
X138111800Y-47391800D01*
X138111800Y-48048588D01*
X138293919Y-48075868D01*
X138476026Y-47954232D01*
X138795908Y-47573925D01*
X138791037Y-47530000D01*
X151609998Y-47530000D01*
X151609998Y-47940000D01*
X152081968Y-47940000D01*
X152081968Y-48800000D01*
X152113789Y-48959974D01*
X152204407Y-49095593D01*
X152340026Y-49186211D01*
X152500000Y-49218032D01*
X153500000Y-49218032D01*
X153659974Y-49186211D01*
X153795593Y-49095593D01*
X153886211Y-48959974D01*
X153918032Y-48800000D01*
X153918032Y-47940000D01*
X154390002Y-47940000D01*
X154390002Y-47530000D01*
X153812694Y-47530000D01*
X153795593Y-47504407D01*
X153774149Y-47490078D01*
X153825105Y-47413800D01*
X153767826Y-47280000D01*
X153250000Y-47280000D01*
X153250000Y-47381968D01*
X152750000Y-47381968D01*
X152750000Y-47280000D01*
X152232174Y-47280000D01*
X152174895Y-47413800D01*
X152225851Y-47490078D01*
X152204407Y-47504407D01*
X152187306Y-47530000D01*
X151609998Y-47530000D01*
X138791037Y-47530000D01*
X138775708Y-47391800D01*
X138111800Y-47391800D01*
X137248200Y-47391800D01*
X136816400Y-47391800D01*
X136816400Y-46646200D01*
X152174895Y-46646200D01*
X152232174Y-46780000D01*
X152750000Y-46780000D01*
X152750000Y-46257482D01*
X153250000Y-46257482D01*
X153250000Y-46780000D01*
X153767826Y-46780000D01*
X153825105Y-46646200D01*
X153670355Y-46414550D01*
X153383805Y-46204864D01*
X153250000Y-46257482D01*
X152750000Y-46257482D01*
X152616195Y-46204864D01*
X152329645Y-46414550D01*
X152174895Y-46646200D01*
X136816400Y-46646200D01*
X136816400Y-46528200D01*
X137248200Y-46528200D01*
X137248200Y-45871412D01*
X138111800Y-45871412D01*
X138111800Y-46528200D01*
X138775708Y-46528200D01*
X138795908Y-46346075D01*
X138476026Y-45965768D01*
X138293919Y-45844132D01*
X138111800Y-45871412D01*
X137248200Y-45871412D01*
X137066081Y-45844132D01*
X136883974Y-45965768D01*
X136816400Y-46046107D01*
X136816400Y-45569998D01*
X136406400Y-45569998D01*
X136406400Y-46798365D01*
X136339705Y-46463066D01*
X136058214Y-46041786D01*
X135636934Y-45760295D01*
X135265438Y-45686400D01*
X135014562Y-45686400D01*
X134643066Y-45760295D01*
X134221786Y-46041786D01*
X133940295Y-46463066D01*
X133870000Y-46816464D01*
X133799705Y-46463066D01*
X133518214Y-46041786D01*
X133096934Y-45760295D01*
X132725438Y-45686400D01*
X132474562Y-45686400D01*
X132103066Y-45760295D01*
X131681786Y-46041786D01*
X131400295Y-46463066D01*
X131301449Y-46960000D01*
X119394578Y-46960000D01*
X119492233Y-46539193D01*
X119211161Y-44847762D01*
X119104628Y-44590568D01*
X118884785Y-44303799D01*
X125765000Y-44303799D01*
X125765000Y-44596201D01*
X125876897Y-44866344D01*
X126083656Y-45073103D01*
X126353799Y-45185000D01*
X126646201Y-45185000D01*
X126916344Y-45073103D01*
X127123103Y-44866344D01*
X127235000Y-44596201D01*
X127235000Y-44353799D01*
X137565000Y-44353799D01*
X137565000Y-44646201D01*
X137676897Y-44916344D01*
X137883656Y-45123103D01*
X138153799Y-45235000D01*
X138446201Y-45235000D01*
X138716344Y-45123103D01*
X138923103Y-44916344D01*
X139035000Y-44646201D01*
X139035000Y-44353799D01*
X138923103Y-44083656D01*
X138716344Y-43876897D01*
X138446201Y-43765000D01*
X138153799Y-43765000D01*
X137883656Y-43876897D01*
X137676897Y-44083656D01*
X137565000Y-44353799D01*
X127235000Y-44353799D01*
X127235000Y-44303799D01*
X127123103Y-44033656D01*
X126916344Y-43826897D01*
X126657391Y-43719635D01*
X139430510Y-43719635D01*
X139430510Y-44280365D01*
X139645092Y-44798412D01*
X140041588Y-45194908D01*
X140559635Y-45409490D01*
X141120365Y-45409490D01*
X141638412Y-45194908D01*
X142034908Y-44798412D01*
X142110000Y-44617124D01*
X142185092Y-44798412D01*
X142581588Y-45194908D01*
X143099635Y-45409490D01*
X143660365Y-45409490D01*
X144097499Y-45228423D01*
X145398323Y-45228423D01*
X145532312Y-45383823D01*
X146091389Y-45426847D01*
X146307688Y-45383823D01*
X146441677Y-45228423D01*
X145920000Y-44706746D01*
X145398323Y-45228423D01*
X144097499Y-45228423D01*
X144178412Y-45194908D01*
X144574908Y-44798412D01*
X144690073Y-44520380D01*
X144691577Y-44521677D01*
X145213254Y-44000000D01*
X146626746Y-44000000D01*
X147148423Y-44521677D01*
X147149927Y-44520380D01*
X147265092Y-44798412D01*
X147661588Y-45194908D01*
X148179635Y-45409490D01*
X148740365Y-45409490D01*
X149258412Y-45194908D01*
X149654908Y-44798412D01*
X149730000Y-44617124D01*
X149805092Y-44798412D01*
X150201588Y-45194908D01*
X150719635Y-45409490D01*
X151280365Y-45409490D01*
X151798412Y-45194908D01*
X152194908Y-44798412D01*
X152409490Y-44280365D01*
X152409490Y-43719635D01*
X152194908Y-43201588D01*
X151798412Y-42805092D01*
X151280365Y-42590510D01*
X150719635Y-42590510D01*
X150201588Y-42805092D01*
X149805092Y-43201588D01*
X149730000Y-43382876D01*
X149654908Y-43201588D01*
X149258412Y-42805092D01*
X148740365Y-42590510D01*
X148179635Y-42590510D01*
X147661588Y-42805092D01*
X147265092Y-43201588D01*
X147149927Y-43479620D01*
X147148423Y-43478323D01*
X146626746Y-44000000D01*
X145213254Y-44000000D01*
X144691577Y-43478323D01*
X144690073Y-43479620D01*
X144574908Y-43201588D01*
X144178412Y-42805092D01*
X144097500Y-42771577D01*
X145398323Y-42771577D01*
X145920000Y-43293254D01*
X146441677Y-42771577D01*
X146307688Y-42616177D01*
X145748611Y-42573153D01*
X145532312Y-42616177D01*
X145398323Y-42771577D01*
X144097500Y-42771577D01*
X143660365Y-42590510D01*
X143099635Y-42590510D01*
X142581588Y-42805092D01*
X142185092Y-43201588D01*
X142110000Y-43382876D01*
X142034908Y-43201588D01*
X141638412Y-42805092D01*
X141120365Y-42590510D01*
X140559635Y-42590510D01*
X140041588Y-42805092D01*
X139645092Y-43201588D01*
X139430510Y-43719635D01*
X126657391Y-43719635D01*
X126646201Y-43715000D01*
X126353799Y-43715000D01*
X126083656Y-43826897D01*
X125876897Y-44033656D01*
X125765000Y-44303799D01*
X118884785Y-44303799D01*
X118698216Y-44060434D01*
X116358650Y-46400000D01*
X113841350Y-46400000D01*
X111501784Y-44060434D01*
X111095372Y-44590568D01*
X110707767Y-46260807D01*
X109410000Y-46260807D01*
X109410000Y-45542688D01*
X108753842Y-43958581D01*
X107597045Y-42801784D01*
X112760434Y-42801784D01*
X115100000Y-45141350D01*
X117439566Y-42801784D01*
X116909432Y-42395372D01*
X115239193Y-42007767D01*
X113547762Y-42288839D01*
X113290568Y-42395372D01*
X112760434Y-42801784D01*
X107597045Y-42801784D01*
X107541419Y-42746158D01*
X105957312Y-42090000D01*
X104242688Y-42090000D01*
X102658581Y-42746158D01*
X101446158Y-43958581D01*
X100790000Y-45542688D01*
X100790000Y-47257312D01*
X101300596Y-48490000D01*
X101099099Y-48490000D01*
X100727881Y-48643763D01*
X100459811Y-48911833D01*
X100312149Y-48169484D01*
X99558472Y-47041528D01*
X98762984Y-46510000D01*
X98900901Y-46510000D01*
X99272119Y-46356237D01*
X99556237Y-46072119D01*
X99710000Y-45700901D01*
X99710000Y-45299099D01*
X99556237Y-44927881D01*
X99272119Y-44643763D01*
X98900901Y-44490000D01*
X98499099Y-44490000D01*
X98127881Y-44643763D01*
X98000000Y-44771644D01*
X97772119Y-44543763D01*
X97400901Y-44390000D01*
X96999099Y-44390000D01*
X96627881Y-44543763D01*
X96400000Y-44771644D01*
X96272119Y-44643763D01*
X95900901Y-44490000D01*
X95499099Y-44490000D01*
X95127881Y-44643763D01*
X94843763Y-44927881D01*
X94690000Y-45299099D01*
X94690000Y-45700901D01*
X94843763Y-46072119D01*
X95127881Y-46356237D01*
X95460773Y-46494125D01*
X94641528Y-47041528D01*
X93887851Y-48169485D01*
X93690000Y-49164149D01*
X87685568Y-49164149D01*
X87446201Y-49065000D01*
X87153799Y-49065000D01*
X86883656Y-49176897D01*
X86676897Y-49383656D01*
X86565000Y-49653799D01*
X85095149Y-49653799D01*
X83100000Y-47658650D01*
X80760434Y-49998216D01*
X75597045Y-49998216D01*
X76753842Y-48841419D01*
X77410000Y-47257312D01*
X77410000Y-46260807D01*
X78707767Y-46260807D01*
X78988839Y-47952238D01*
X79095372Y-48209432D01*
X79501784Y-48739566D01*
X81841350Y-46400000D01*
X84358650Y-46400000D01*
X86698216Y-48739566D01*
X87104628Y-48209432D01*
X87492233Y-46539193D01*
X87211161Y-44847762D01*
X87104628Y-44590568D01*
X86698216Y-44060434D01*
X84358650Y-46400000D01*
X81841350Y-46400000D01*
X79501784Y-44060434D01*
X79095372Y-44590568D01*
X78707767Y-46260807D01*
X77410000Y-46260807D01*
X77410000Y-45542688D01*
X76753842Y-43958581D01*
X75597045Y-42801784D01*
X80760434Y-42801784D01*
X83100000Y-45141350D01*
X85439566Y-42801784D01*
X84909432Y-42395372D01*
X83239193Y-42007767D01*
X81547762Y-42288839D01*
X81290568Y-42395372D01*
X80760434Y-42801784D01*
X75597045Y-42801784D01*
X75541419Y-42746158D01*
X73957312Y-42090000D01*
X72242688Y-42090000D01*
X70658581Y-42746158D01*
X69446158Y-43958581D01*
X68790000Y-45542688D01*
X68790000Y-47257312D01*
X69446158Y-48841419D01*
X69594739Y-48990000D01*
X69199099Y-48990000D01*
X68827881Y-49143763D01*
X68543763Y-49427881D01*
X68510000Y-49509392D01*
X68510000Y-49164148D01*
X68312149Y-48169484D01*
X67558472Y-47041528D01*
X66762984Y-46510000D01*
X66900901Y-46510000D01*
X67272119Y-46356237D01*
X67556237Y-46072119D01*
X67710000Y-45700901D01*
X67710000Y-45299099D01*
X67556237Y-44927881D01*
X67272119Y-44643763D01*
X66900901Y-44490000D01*
X66499099Y-44490000D01*
X66127881Y-44643763D01*
X66000000Y-44771644D01*
X65772119Y-44543763D01*
X65400901Y-44390000D01*
X64999099Y-44390000D01*
X64627881Y-44543763D01*
X64400000Y-44771644D01*
X64272119Y-44643763D01*
X63900901Y-44490000D01*
X63499099Y-44490000D01*
X63127881Y-44643763D01*
X62843763Y-44927881D01*
X62690000Y-45299099D01*
X62690000Y-45700901D01*
X62843763Y-46072119D01*
X63127881Y-46356237D01*
X63460773Y-46494125D01*
X62641528Y-47041528D01*
X61887851Y-48169485D01*
X61690000Y-49164149D01*
X60510000Y-49164149D01*
X60510000Y-41600186D01*
X61990000Y-41600186D01*
X61990000Y-42399814D01*
X62296004Y-43138573D01*
X62861427Y-43703996D01*
X63600186Y-44010000D01*
X64399814Y-44010000D01*
X65138573Y-43703996D01*
X65703996Y-43138573D01*
X66010000Y-42399814D01*
X66010000Y-41600186D01*
X153990000Y-41600186D01*
X153990000Y-42399814D01*
X154296004Y-43138573D01*
X154861427Y-43703996D01*
X155600186Y-44010000D01*
X156399814Y-44010000D01*
X157138573Y-43703996D01*
X157703996Y-43138573D01*
X158010000Y-42399814D01*
X158010000Y-41600186D01*
X157703996Y-40861427D01*
X157138573Y-40296004D01*
X156399814Y-39990000D01*
X155600186Y-39990000D01*
X154861427Y-40296004D01*
X154296004Y-40861427D01*
X153990000Y-41600186D01*
X66010000Y-41600186D01*
X65703996Y-40861427D01*
X65138573Y-40296004D01*
X64674550Y-40103799D01*
X93465000Y-40103799D01*
X93465000Y-40396201D01*
X93576897Y-40666344D01*
X93783656Y-40873103D01*
X94053799Y-40985000D01*
X94346201Y-40985000D01*
X94616344Y-40873103D01*
X94823103Y-40666344D01*
X94935000Y-40396201D01*
X94935000Y-40103799D01*
X94823103Y-39833656D01*
X94616344Y-39626897D01*
X94346201Y-39515000D01*
X94053799Y-39515000D01*
X93783656Y-39626897D01*
X93576897Y-39833656D01*
X93465000Y-40103799D01*
X64674550Y-40103799D01*
X64399814Y-39990000D01*
X63600186Y-39990000D01*
X62861427Y-40296004D01*
X62296004Y-40861427D01*
X61990000Y-41600186D01*
X60510000Y-41600186D01*
X60510000Y-38510000D01*
X159490000Y-38510000D01*
X159490001Y-119490000D01*
X159490001Y-119490000D01*
G37*
X159490001Y-119490000D02*
X60510000Y-119490000D01*
X60510000Y-115600186D01*
X61990000Y-115600186D01*
X61990000Y-116399814D01*
X62296004Y-117138573D01*
X62861427Y-117703996D01*
X63600186Y-118010000D01*
X64399814Y-118010000D01*
X65138573Y-117703996D01*
X65703996Y-117138573D01*
X66010000Y-116399814D01*
X66010000Y-115600186D01*
X65703996Y-114861427D01*
X65138573Y-114296004D01*
X64399814Y-113990000D01*
X63600186Y-113990000D01*
X62861427Y-114296004D01*
X62296004Y-114861427D01*
X61990000Y-115600186D01*
X60510000Y-115600186D01*
X60510000Y-113200000D01*
X75981968Y-113200000D01*
X75981968Y-116800000D01*
X76013789Y-116959974D01*
X76104407Y-117095593D01*
X76240026Y-117186211D01*
X76400000Y-117218032D01*
X78200000Y-117218032D01*
X78359974Y-117186211D01*
X78495593Y-117095593D01*
X78586211Y-116959974D01*
X78618032Y-116800000D01*
X78618032Y-113970979D01*
X79800000Y-113970979D01*
X79800001Y-116029022D01*
X79876008Y-116411136D01*
X80165544Y-116844457D01*
X80598865Y-117133993D01*
X81110000Y-117235664D01*
X81621136Y-117133993D01*
X82054457Y-116844457D01*
X82343993Y-116411136D01*
X82420000Y-116029022D01*
X82420000Y-113970978D01*
X82343993Y-113588864D01*
X82084163Y-113200000D01*
X86081968Y-113200000D01*
X86081968Y-116800000D01*
X86113789Y-116959974D01*
X86204407Y-117095593D01*
X86340026Y-117186211D01*
X86500000Y-117218032D01*
X88300000Y-117218032D01*
X88459974Y-117186211D01*
X88595593Y-117095593D01*
X88686211Y-116959974D01*
X88718032Y-116800000D01*
X88718032Y-113970979D01*
X89900000Y-113970979D01*
X89900001Y-116029022D01*
X89976008Y-116411136D01*
X90265544Y-116844457D01*
X90698865Y-117133993D01*
X91210000Y-117235664D01*
X91721136Y-117133993D01*
X92154457Y-116844457D01*
X92443993Y-116411136D01*
X92520000Y-116029022D01*
X92520000Y-115600186D01*
X153990000Y-115600186D01*
X153990000Y-116399814D01*
X154296004Y-117138573D01*
X154861427Y-117703996D01*
X155600186Y-118010000D01*
X156399814Y-118010000D01*
X157138573Y-117703996D01*
X157703996Y-117138573D01*
X158010000Y-116399814D01*
X158010000Y-115600186D01*
X157703996Y-114861427D01*
X157138573Y-114296004D01*
X156399814Y-113990000D01*
X155600186Y-113990000D01*
X154861427Y-114296004D01*
X154296004Y-114861427D01*
X153990000Y-115600186D01*
X92520000Y-115600186D01*
X92520000Y-113970978D01*
X92443993Y-113588864D01*
X92154457Y-113155543D01*
X91721135Y-112866007D01*
X91210000Y-112764336D01*
X90698864Y-112866007D01*
X90265543Y-113155543D01*
X89976007Y-113588865D01*
X89900000Y-113970979D01*
X88718032Y-113970979D01*
X88718032Y-113200000D01*
X88686211Y-113040026D01*
X88595593Y-112904407D01*
X88459974Y-112813789D01*
X88300000Y-112781968D01*
X86500000Y-112781968D01*
X86340026Y-112813789D01*
X86204407Y-112904407D01*
X86113789Y-113040026D01*
X86081968Y-113200000D01*
X82084163Y-113200000D01*
X82054457Y-113155543D01*
X81621135Y-112866007D01*
X81110000Y-112764336D01*
X80598864Y-112866007D01*
X80165543Y-113155543D01*
X79876007Y-113588865D01*
X79800000Y-113970979D01*
X78618032Y-113970979D01*
X78618032Y-113200000D01*
X78586211Y-113040026D01*
X78495593Y-112904407D01*
X78359974Y-112813789D01*
X78200000Y-112781968D01*
X76400000Y-112781968D01*
X76240026Y-112813789D01*
X76104407Y-112904407D01*
X76013789Y-113040026D01*
X75981968Y-113200000D01*
X60510000Y-113200000D01*
X60510000Y-109799099D01*
X105090000Y-109799099D01*
X105090000Y-110200901D01*
X105243763Y-110572119D01*
X105527881Y-110856237D01*
X105899099Y-111010000D01*
X106300901Y-111010000D01*
X106672119Y-110856237D01*
X106956237Y-110572119D01*
X107110000Y-110200901D01*
X107110000Y-110049185D01*
X107243763Y-110372119D01*
X107527881Y-110656237D01*
X107899099Y-110810000D01*
X108300901Y-110810000D01*
X108672119Y-110656237D01*
X108956237Y-110372119D01*
X109110000Y-110000901D01*
X109110000Y-109599099D01*
X108956237Y-109227881D01*
X108672119Y-108943763D01*
X108300901Y-108790000D01*
X107899099Y-108790000D01*
X107527881Y-108943763D01*
X107243763Y-109227881D01*
X107090000Y-109599099D01*
X107090000Y-109750815D01*
X106956237Y-109427881D01*
X106672119Y-109143763D01*
X106300901Y-108990000D01*
X105899099Y-108990000D01*
X105527881Y-109143763D01*
X105243763Y-109427881D01*
X105090000Y-109799099D01*
X60510000Y-109799099D01*
X60510000Y-108253799D01*
X101165000Y-108253799D01*
X101165000Y-108546201D01*
X101276897Y-108816344D01*
X101483656Y-109023103D01*
X101753799Y-109135000D01*
X102046201Y-109135000D01*
X102316344Y-109023103D01*
X102523103Y-108816344D01*
X102635000Y-108546201D01*
X102635000Y-108253799D01*
X102523103Y-107983656D01*
X102316344Y-107776897D01*
X102046201Y-107665000D01*
X101753799Y-107665000D01*
X101483656Y-107776897D01*
X101276897Y-107983656D01*
X101165000Y-108253799D01*
X60510000Y-108253799D01*
X60510000Y-104800000D01*
X113731968Y-104800000D01*
X113731968Y-106100000D01*
X113763789Y-106259974D01*
X113854407Y-106395593D01*
X113990026Y-106486211D01*
X114150000Y-106518032D01*
X115450000Y-106518032D01*
X115609974Y-106486211D01*
X115745593Y-106395593D01*
X115787911Y-106332259D01*
X116877360Y-106332259D01*
X116957074Y-106474920D01*
X117375398Y-106528135D01*
X117642926Y-106474920D01*
X117722640Y-106332259D01*
X117300000Y-105909619D01*
X116877360Y-106332259D01*
X115787911Y-106332259D01*
X115836211Y-106259974D01*
X115868032Y-106100000D01*
X115868032Y-105525398D01*
X116221865Y-105525398D01*
X116275080Y-105792926D01*
X116417741Y-105872640D01*
X116840381Y-105450000D01*
X117759619Y-105450000D01*
X118182259Y-105872640D01*
X118324920Y-105792926D01*
X118378135Y-105374602D01*
X118324920Y-105107074D01*
X118182259Y-105027360D01*
X117759619Y-105450000D01*
X116840381Y-105450000D01*
X116417741Y-105027360D01*
X116275080Y-105107074D01*
X116221865Y-105525398D01*
X115868032Y-105525398D01*
X115868032Y-104800000D01*
X115836211Y-104640026D01*
X115787912Y-104567741D01*
X116877360Y-104567741D01*
X117300000Y-104990381D01*
X117722640Y-104567741D01*
X117642926Y-104425080D01*
X117224602Y-104371865D01*
X116957074Y-104425080D01*
X116877360Y-104567741D01*
X115787912Y-104567741D01*
X115745593Y-104504407D01*
X115609974Y-104413789D01*
X115450000Y-104381968D01*
X114150000Y-104381968D01*
X113990026Y-104413789D01*
X113854407Y-104504407D01*
X113763789Y-104640026D01*
X113731968Y-104800000D01*
X60510000Y-104800000D01*
X60510000Y-101153799D01*
X135265010Y-101153799D01*
X135265010Y-101446201D01*
X135376907Y-101716344D01*
X135583666Y-101923103D01*
X135853809Y-102035000D01*
X136146211Y-102035000D01*
X136416354Y-101923103D01*
X136623113Y-101716344D01*
X136735010Y-101446201D01*
X136735010Y-101153799D01*
X136623113Y-100883656D01*
X136416354Y-100676897D01*
X136146211Y-100565000D01*
X135853809Y-100565000D01*
X135583666Y-100676897D01*
X135376907Y-100883656D01*
X135265010Y-101153799D01*
X60510000Y-101153799D01*
X60510000Y-98100000D01*
X140790000Y-98100000D01*
X140790000Y-109600000D01*
X140798373Y-109642095D01*
X140822218Y-109677782D01*
X141622218Y-110477782D01*
X141657905Y-110501627D01*
X141700000Y-110510000D01*
X148700000Y-110510000D01*
X148742095Y-110501627D01*
X148777782Y-110477782D01*
X150277782Y-108977782D01*
X150301627Y-108942095D01*
X150310000Y-108900000D01*
X150310000Y-97000000D01*
X150301627Y-96957905D01*
X150277782Y-96922218D01*
X149677782Y-96322218D01*
X149642095Y-96298373D01*
X149600000Y-96290000D01*
X144700000Y-96290000D01*
X144657905Y-96298373D01*
X144622218Y-96322218D01*
X143854436Y-97090000D01*
X141800000Y-97090000D01*
X141757905Y-97098373D01*
X141722218Y-97122218D01*
X140822218Y-98022218D01*
X140798373Y-98057905D01*
X140790000Y-98100000D01*
X60510000Y-98100000D01*
X60510000Y-96099099D01*
X80790000Y-96099099D01*
X80790000Y-96500901D01*
X80943763Y-96872119D01*
X81227881Y-97156237D01*
X81599099Y-97310000D01*
X82000901Y-97310000D01*
X82372119Y-97156237D01*
X82656237Y-96872119D01*
X82810000Y-96500901D01*
X82810000Y-96099099D01*
X82656237Y-95727881D01*
X82372119Y-95443763D01*
X82000901Y-95290000D01*
X81599099Y-95290000D01*
X81227881Y-95443763D01*
X80943763Y-95727881D01*
X80790000Y-96099099D01*
X60510000Y-96099099D01*
X60510000Y-94499099D01*
X84890000Y-94499099D01*
X84890000Y-94900901D01*
X85043763Y-95272119D01*
X85327881Y-95556237D01*
X85699099Y-95710000D01*
X86100901Y-95710000D01*
X86472119Y-95556237D01*
X86756237Y-95272119D01*
X86910000Y-94900901D01*
X86910000Y-94499099D01*
X86756237Y-94127881D01*
X86472119Y-93843763D01*
X86100901Y-93690000D01*
X85699099Y-93690000D01*
X85327881Y-93843763D01*
X85043763Y-94127881D01*
X84890000Y-94499099D01*
X60510000Y-94499099D01*
X60510000Y-92863799D01*
X122005000Y-92863799D01*
X122005000Y-93156201D01*
X122116897Y-93426344D01*
X122323656Y-93633103D01*
X122442947Y-93682515D01*
X122437032Y-93688430D01*
X122325135Y-93958573D01*
X122325135Y-94250975D01*
X122437032Y-94521118D01*
X122643791Y-94727877D01*
X122913934Y-94839774D01*
X123206336Y-94839774D01*
X123476479Y-94727877D01*
X123683238Y-94521118D01*
X123692358Y-94499099D01*
X126290000Y-94499099D01*
X126290000Y-94900901D01*
X126443763Y-95272119D01*
X126727881Y-95556237D01*
X127099099Y-95710000D01*
X127500901Y-95710000D01*
X127872119Y-95556237D01*
X127950000Y-95478356D01*
X128027881Y-95556237D01*
X128399099Y-95710000D01*
X128800901Y-95710000D01*
X129172119Y-95556237D01*
X129300000Y-95428356D01*
X129427881Y-95556237D01*
X129799099Y-95710000D01*
X130200901Y-95710000D01*
X130572119Y-95556237D01*
X130700000Y-95428356D01*
X130827881Y-95556237D01*
X131199099Y-95710000D01*
X131600901Y-95710000D01*
X131972119Y-95556237D01*
X132256237Y-95272119D01*
X132410000Y-94900901D01*
X132410000Y-94499099D01*
X132256237Y-94127881D01*
X131972119Y-93843763D01*
X131963035Y-93840000D01*
X147165316Y-93840000D01*
X147263107Y-94331627D01*
X147541591Y-94748409D01*
X147958373Y-95026893D01*
X148325906Y-95100000D01*
X148574094Y-95100000D01*
X148941627Y-95026893D01*
X149358409Y-94748409D01*
X149636893Y-94331627D01*
X149734684Y-93840000D01*
X149636893Y-93348373D01*
X149358409Y-92931591D01*
X148941627Y-92653107D01*
X148574094Y-92580000D01*
X148325906Y-92580000D01*
X147958373Y-92653107D01*
X147541591Y-92931591D01*
X147263107Y-93348373D01*
X147165316Y-93840000D01*
X131963035Y-93840000D01*
X131600901Y-93690000D01*
X131199099Y-93690000D01*
X130827881Y-93843763D01*
X130700000Y-93971644D01*
X130572119Y-93843763D01*
X130200901Y-93690000D01*
X129799099Y-93690000D01*
X129427881Y-93843763D01*
X129300000Y-93971644D01*
X129172119Y-93843763D01*
X128800901Y-93690000D01*
X128399099Y-93690000D01*
X128027881Y-93843763D01*
X127950000Y-93921644D01*
X127872119Y-93843763D01*
X127500901Y-93690000D01*
X127099099Y-93690000D01*
X126727881Y-93843763D01*
X126443763Y-94127881D01*
X126290000Y-94499099D01*
X123692358Y-94499099D01*
X123795135Y-94250975D01*
X123795135Y-93958573D01*
X123683238Y-93688430D01*
X123476479Y-93481671D01*
X123357188Y-93432259D01*
X123363103Y-93426344D01*
X123475000Y-93156201D01*
X123475000Y-92863799D01*
X123363103Y-92593656D01*
X123344447Y-92575000D01*
X123403103Y-92516344D01*
X123515000Y-92246201D01*
X123515000Y-91953799D01*
X123403103Y-91683656D01*
X123196344Y-91476897D01*
X122926201Y-91365000D01*
X122633799Y-91365000D01*
X122363656Y-91476897D01*
X122156897Y-91683656D01*
X122045000Y-91953799D01*
X122045000Y-92246201D01*
X122156897Y-92516344D01*
X122175553Y-92535000D01*
X122116897Y-92593656D01*
X122005000Y-92863799D01*
X60510000Y-92863799D01*
X60510000Y-90653799D01*
X136540000Y-90653799D01*
X136540000Y-90946201D01*
X136651897Y-91216344D01*
X136858656Y-91423103D01*
X137128799Y-91535000D01*
X137421201Y-91535000D01*
X137691344Y-91423103D01*
X137898103Y-91216344D01*
X138010000Y-90946201D01*
X138010000Y-90653799D01*
X137925584Y-90450000D01*
X147181968Y-90450000D01*
X147181968Y-92150000D01*
X147213789Y-92309974D01*
X147304407Y-92445593D01*
X147440026Y-92536211D01*
X147600000Y-92568032D01*
X149300000Y-92568032D01*
X149459974Y-92536211D01*
X149595593Y-92445593D01*
X149686211Y-92309974D01*
X149718032Y-92150000D01*
X149718032Y-90450000D01*
X149686211Y-90290026D01*
X149595593Y-90154407D01*
X149459974Y-90063789D01*
X149300000Y-90031968D01*
X147600000Y-90031968D01*
X147440026Y-90063789D01*
X147304407Y-90154407D01*
X147213789Y-90290026D01*
X147181968Y-90450000D01*
X137925584Y-90450000D01*
X137898103Y-90383656D01*
X137691344Y-90176897D01*
X137421201Y-90065000D01*
X137128799Y-90065000D01*
X136858656Y-90176897D01*
X136651897Y-90383656D01*
X136540000Y-90653799D01*
X60510000Y-90653799D01*
X60510000Y-89553799D01*
X119815000Y-89553799D01*
X119815000Y-89846201D01*
X119926897Y-90116344D01*
X120133656Y-90323103D01*
X120403799Y-90435000D01*
X120696201Y-90435000D01*
X120966344Y-90323103D01*
X121173103Y-90116344D01*
X121285000Y-89846201D01*
X121285000Y-89553799D01*
X121173103Y-89283656D01*
X120966344Y-89076897D01*
X120696201Y-88965000D01*
X120403799Y-88965000D01*
X120133656Y-89076897D01*
X119926897Y-89283656D01*
X119815000Y-89553799D01*
X60510000Y-89553799D01*
X60510000Y-87953799D01*
X136540000Y-87953799D01*
X136540000Y-88246201D01*
X136651897Y-88516344D01*
X136858656Y-88723103D01*
X137128799Y-88835000D01*
X137421201Y-88835000D01*
X137691344Y-88723103D01*
X137898103Y-88516344D01*
X138010000Y-88246201D01*
X138010000Y-87953799D01*
X137898103Y-87683656D01*
X137691344Y-87476897D01*
X137421201Y-87365000D01*
X137128799Y-87365000D01*
X136858656Y-87476897D01*
X136651897Y-87683656D01*
X136540000Y-87953799D01*
X60510000Y-87953799D01*
X60510000Y-87098216D01*
X62660434Y-87098216D01*
X63190568Y-87504628D01*
X64860807Y-87892233D01*
X66552238Y-87611161D01*
X66809432Y-87504628D01*
X67024176Y-87340000D01*
X147165316Y-87340000D01*
X147263107Y-87831627D01*
X147541591Y-88248409D01*
X147958373Y-88526893D01*
X148325906Y-88600000D01*
X148574094Y-88600000D01*
X148941627Y-88526893D01*
X149358409Y-88248409D01*
X149636893Y-87831627D01*
X149734684Y-87340000D01*
X149636893Y-86848373D01*
X149358409Y-86431591D01*
X148941627Y-86153107D01*
X148574094Y-86080000D01*
X148325906Y-86080000D01*
X147958373Y-86153107D01*
X147541591Y-86431591D01*
X147263107Y-86848373D01*
X147165316Y-87340000D01*
X67024176Y-87340000D01*
X67339566Y-87098216D01*
X66195149Y-85953799D01*
X119915000Y-85953799D01*
X119915000Y-86246201D01*
X120026897Y-86516344D01*
X120233656Y-86723103D01*
X120503799Y-86835000D01*
X120796201Y-86835000D01*
X121066344Y-86723103D01*
X121273103Y-86516344D01*
X121381852Y-86253799D01*
X125765000Y-86253799D01*
X125765000Y-86546201D01*
X125876897Y-86816344D01*
X126083656Y-87023103D01*
X126353799Y-87135000D01*
X126646201Y-87135000D01*
X126916344Y-87023103D01*
X127123103Y-86816344D01*
X127235000Y-86546201D01*
X127235000Y-86253799D01*
X127123103Y-85983656D01*
X126916344Y-85776897D01*
X126646201Y-85665000D01*
X126353799Y-85665000D01*
X126083656Y-85776897D01*
X125876897Y-85983656D01*
X125765000Y-86253799D01*
X121381852Y-86253799D01*
X121385000Y-86246201D01*
X121385000Y-85953799D01*
X121273103Y-85683656D01*
X121066344Y-85476897D01*
X120796201Y-85365000D01*
X120503799Y-85365000D01*
X120233656Y-85476897D01*
X120026897Y-85683656D01*
X119915000Y-85953799D01*
X66195149Y-85953799D01*
X65000000Y-84758650D01*
X62660434Y-87098216D01*
X60510000Y-87098216D01*
X60510000Y-83360807D01*
X60607767Y-83360807D01*
X60888839Y-85052238D01*
X60995372Y-85309432D01*
X61401784Y-85839566D01*
X63741350Y-83500000D01*
X66258650Y-83500000D01*
X68598216Y-85839566D01*
X69004628Y-85309432D01*
X69287875Y-84088881D01*
X92790000Y-84088881D01*
X92790000Y-84411119D01*
X92913315Y-84708828D01*
X93141172Y-84936685D01*
X93438881Y-85060000D01*
X93761119Y-85060000D01*
X94058828Y-84936685D01*
X94286685Y-84708828D01*
X94356615Y-84540000D01*
X117915316Y-84540000D01*
X118013107Y-85031627D01*
X118291591Y-85448409D01*
X118708373Y-85726893D01*
X119075906Y-85800000D01*
X119324094Y-85800000D01*
X119691627Y-85726893D01*
X120108409Y-85448409D01*
X120386893Y-85031627D01*
X120484684Y-84540000D01*
X120386893Y-84048373D01*
X120321163Y-83950000D01*
X147181968Y-83950000D01*
X147181968Y-85650000D01*
X147213789Y-85809974D01*
X147304407Y-85945593D01*
X147440026Y-86036211D01*
X147600000Y-86068032D01*
X149300000Y-86068032D01*
X149459974Y-86036211D01*
X149595593Y-85945593D01*
X149686211Y-85809974D01*
X149718032Y-85650000D01*
X149718032Y-83950000D01*
X149686211Y-83790026D01*
X149595593Y-83654407D01*
X149459974Y-83563789D01*
X149300000Y-83531968D01*
X147600000Y-83531968D01*
X147440026Y-83563789D01*
X147304407Y-83654407D01*
X147213789Y-83790026D01*
X147181968Y-83950000D01*
X120321163Y-83950000D01*
X120108409Y-83631591D01*
X119691627Y-83353107D01*
X119324094Y-83280000D01*
X119075906Y-83280000D01*
X118708373Y-83353107D01*
X118291591Y-83631591D01*
X118013107Y-84048373D01*
X117915316Y-84540000D01*
X94356615Y-84540000D01*
X94410000Y-84411119D01*
X94410000Y-84088881D01*
X94286685Y-83791172D01*
X94058828Y-83563315D01*
X93761119Y-83440000D01*
X93438881Y-83440000D01*
X93141172Y-83563315D01*
X92913315Y-83791172D01*
X92790000Y-84088881D01*
X69287875Y-84088881D01*
X69392233Y-83639193D01*
X69350638Y-83388881D01*
X103640000Y-83388881D01*
X103640000Y-83711119D01*
X103763315Y-84008828D01*
X103991172Y-84236685D01*
X104288881Y-84360000D01*
X104611119Y-84360000D01*
X104908828Y-84236685D01*
X105136685Y-84008828D01*
X105260000Y-83711119D01*
X105260000Y-83388881D01*
X105136685Y-83091172D01*
X104927772Y-82882259D01*
X107577360Y-82882259D01*
X107657074Y-83024920D01*
X108075398Y-83078135D01*
X108342926Y-83024920D01*
X108422640Y-82882259D01*
X108000000Y-82459619D01*
X107577360Y-82882259D01*
X104927772Y-82882259D01*
X104908828Y-82863315D01*
X104611119Y-82740000D01*
X104288881Y-82740000D01*
X103991172Y-82863315D01*
X103763315Y-83091172D01*
X103640000Y-83388881D01*
X69350638Y-83388881D01*
X69132371Y-82075398D01*
X106921865Y-82075398D01*
X106975080Y-82342926D01*
X107117741Y-82422640D01*
X107540381Y-82000000D01*
X108459619Y-82000000D01*
X108882259Y-82422640D01*
X109024920Y-82342926D01*
X109078135Y-81924602D01*
X109024920Y-81657074D01*
X108882259Y-81577360D01*
X108459619Y-82000000D01*
X107540381Y-82000000D01*
X107117741Y-81577360D01*
X106975080Y-81657074D01*
X106921865Y-82075398D01*
X69132371Y-82075398D01*
X69111161Y-81947762D01*
X69004628Y-81690568D01*
X68598216Y-81160434D01*
X66258650Y-83500000D01*
X63741350Y-83500000D01*
X61401784Y-81160434D01*
X60995372Y-81690568D01*
X60607767Y-83360807D01*
X60510000Y-83360807D01*
X60510000Y-79901784D01*
X62660434Y-79901784D01*
X65000000Y-82241350D01*
X66123609Y-81117741D01*
X107577360Y-81117741D01*
X108000000Y-81540381D01*
X108190381Y-81350000D01*
X109431968Y-81350000D01*
X109431968Y-82650000D01*
X109463789Y-82809974D01*
X109554407Y-82945593D01*
X109690026Y-83036211D01*
X109850000Y-83068032D01*
X111150000Y-83068032D01*
X111309974Y-83036211D01*
X111445593Y-82945593D01*
X111536211Y-82809974D01*
X111568032Y-82650000D01*
X111568032Y-82527500D01*
X117940000Y-82527500D01*
X117940000Y-82931554D01*
X118002419Y-83082246D01*
X118117754Y-83197581D01*
X118268446Y-83260000D01*
X118672500Y-83260000D01*
X118775000Y-83157500D01*
X118775000Y-82425000D01*
X119625000Y-82425000D01*
X119625000Y-83157500D01*
X119727500Y-83260000D01*
X120131554Y-83260000D01*
X120282246Y-83197581D01*
X120397581Y-83082246D01*
X120460000Y-82931554D01*
X120460000Y-82527500D01*
X120357500Y-82425000D01*
X119625000Y-82425000D01*
X118775000Y-82425000D01*
X118042500Y-82425000D01*
X117940000Y-82527500D01*
X111568032Y-82527500D01*
X111568032Y-81653799D01*
X127865000Y-81653799D01*
X127865000Y-81946201D01*
X127976897Y-82216344D01*
X128183656Y-82423103D01*
X128453799Y-82535000D01*
X128746201Y-82535000D01*
X129016344Y-82423103D01*
X129223103Y-82216344D01*
X129335000Y-81946201D01*
X129335000Y-81653799D01*
X129223103Y-81383656D01*
X129016344Y-81176897D01*
X128746201Y-81065000D01*
X128453799Y-81065000D01*
X128183656Y-81176897D01*
X127976897Y-81383656D01*
X127865000Y-81653799D01*
X111568032Y-81653799D01*
X111568032Y-81350000D01*
X111536211Y-81190026D01*
X111454974Y-81068446D01*
X117940000Y-81068446D01*
X117940000Y-81472500D01*
X118042500Y-81575000D01*
X118775000Y-81575000D01*
X118775000Y-80842500D01*
X119625000Y-80842500D01*
X119625000Y-81575000D01*
X120357500Y-81575000D01*
X120460000Y-81472500D01*
X120460000Y-81068446D01*
X120397581Y-80917754D01*
X120282246Y-80802419D01*
X120131554Y-80740000D01*
X119727500Y-80740000D01*
X119625000Y-80842500D01*
X118775000Y-80842500D01*
X118672500Y-80740000D01*
X118268446Y-80740000D01*
X118117754Y-80802419D01*
X118002419Y-80917754D01*
X117940000Y-81068446D01*
X111454974Y-81068446D01*
X111445593Y-81054407D01*
X111309974Y-80963789D01*
X111150000Y-80931968D01*
X109850000Y-80931968D01*
X109690026Y-80963789D01*
X109554407Y-81054407D01*
X109463789Y-81190026D01*
X109431968Y-81350000D01*
X108190381Y-81350000D01*
X108422640Y-81117741D01*
X108342926Y-80975080D01*
X107924602Y-80921865D01*
X107657074Y-80975080D01*
X107577360Y-81117741D01*
X66123609Y-81117741D01*
X67339566Y-79901784D01*
X66809432Y-79495372D01*
X65139193Y-79107767D01*
X63447762Y-79388839D01*
X63190568Y-79495372D01*
X62660434Y-79901784D01*
X60510000Y-79901784D01*
X60510000Y-72642688D01*
X60690000Y-72642688D01*
X60690000Y-74357312D01*
X61346158Y-75941419D01*
X62558581Y-77153842D01*
X64142688Y-77810000D01*
X65857312Y-77810000D01*
X67441419Y-77153842D01*
X67490000Y-77105261D01*
X67490000Y-77200901D01*
X67643763Y-77572119D01*
X67927881Y-77856237D01*
X68299099Y-78010000D01*
X68700901Y-78010000D01*
X69072119Y-77856237D01*
X69246097Y-77682259D01*
X87877360Y-77682259D01*
X87957074Y-77824920D01*
X88375398Y-77878135D01*
X88642926Y-77824920D01*
X88722640Y-77682259D01*
X88300000Y-77259619D01*
X87877360Y-77682259D01*
X69246097Y-77682259D01*
X69356237Y-77572119D01*
X69510000Y-77200901D01*
X69510000Y-76875398D01*
X87221865Y-76875398D01*
X87275080Y-77142926D01*
X87417741Y-77222640D01*
X87840381Y-76800000D01*
X88759619Y-76800000D01*
X89182259Y-77222640D01*
X89324920Y-77142926D01*
X89378135Y-76724602D01*
X89324920Y-76457074D01*
X89182259Y-76377360D01*
X88759619Y-76800000D01*
X87840381Y-76800000D01*
X87417741Y-76377360D01*
X87275080Y-76457074D01*
X87221865Y-76875398D01*
X69510000Y-76875398D01*
X69510000Y-76799099D01*
X69356237Y-76427881D01*
X69324694Y-76396338D01*
X69599099Y-76510000D01*
X70000901Y-76510000D01*
X70372119Y-76356237D01*
X70656237Y-76072119D01*
X70720182Y-75917741D01*
X87877360Y-75917741D01*
X88300000Y-76340381D01*
X88490381Y-76150000D01*
X89731968Y-76150000D01*
X89731968Y-77450000D01*
X89763789Y-77609974D01*
X89854407Y-77745593D01*
X89990026Y-77836211D01*
X90150000Y-77868032D01*
X91450000Y-77868032D01*
X91609974Y-77836211D01*
X91745593Y-77745593D01*
X91836211Y-77609974D01*
X91868032Y-77450000D01*
X91868032Y-76150000D01*
X91836211Y-75990026D01*
X91745593Y-75854407D01*
X91609974Y-75763789D01*
X91450000Y-75731968D01*
X90150000Y-75731968D01*
X89990026Y-75763789D01*
X89854407Y-75854407D01*
X89763789Y-75990026D01*
X89731968Y-76150000D01*
X88490381Y-76150000D01*
X88722640Y-75917741D01*
X88642926Y-75775080D01*
X88224602Y-75721865D01*
X87957074Y-75775080D01*
X87877360Y-75917741D01*
X70720182Y-75917741D01*
X70810000Y-75700901D01*
X70810000Y-75299099D01*
X70656237Y-74927881D01*
X70372119Y-74643763D01*
X70290608Y-74610000D01*
X70600901Y-74610000D01*
X70972119Y-74456237D01*
X71124557Y-74303799D01*
X76865000Y-74303799D01*
X76865000Y-74596201D01*
X76976897Y-74866344D01*
X77183656Y-75073103D01*
X77453799Y-75185000D01*
X77746201Y-75185000D01*
X78016344Y-75073103D01*
X78223103Y-74866344D01*
X78335000Y-74596201D01*
X78335000Y-74582259D01*
X107477360Y-74582259D01*
X107557074Y-74724920D01*
X107975398Y-74778135D01*
X108242926Y-74724920D01*
X108322640Y-74582259D01*
X107900000Y-74159619D01*
X107477360Y-74582259D01*
X78335000Y-74582259D01*
X78335000Y-74303799D01*
X78223103Y-74033656D01*
X78016344Y-73826897D01*
X77892015Y-73775398D01*
X106821865Y-73775398D01*
X106875080Y-74042926D01*
X107017741Y-74122640D01*
X107440381Y-73700000D01*
X108359619Y-73700000D01*
X108782259Y-74122640D01*
X108924920Y-74042926D01*
X108978135Y-73624602D01*
X108924920Y-73357074D01*
X108782259Y-73277360D01*
X108359619Y-73700000D01*
X107440381Y-73700000D01*
X107017741Y-73277360D01*
X106875080Y-73357074D01*
X106821865Y-73775398D01*
X77892015Y-73775398D01*
X77746201Y-73715000D01*
X77453799Y-73715000D01*
X77183656Y-73826897D01*
X76976897Y-74033656D01*
X76865000Y-74303799D01*
X71124557Y-74303799D01*
X71256237Y-74172119D01*
X71410000Y-73800901D01*
X71410000Y-73399099D01*
X71256237Y-73027881D01*
X71046097Y-72817741D01*
X107477360Y-72817741D01*
X107900000Y-73240381D01*
X108090381Y-73050000D01*
X109331968Y-73050000D01*
X109331968Y-74350000D01*
X109363789Y-74509974D01*
X109454407Y-74645593D01*
X109590026Y-74736211D01*
X109711308Y-74760336D01*
X109543763Y-74927881D01*
X109390000Y-75299099D01*
X109390000Y-75700901D01*
X109543763Y-76072119D01*
X109671644Y-76200000D01*
X109543763Y-76327881D01*
X109390000Y-76699099D01*
X109390000Y-77100901D01*
X109543763Y-77472119D01*
X109721644Y-77650000D01*
X109543763Y-77827881D01*
X109390000Y-78199099D01*
X109390000Y-78600901D01*
X109543763Y-78972119D01*
X109671644Y-79100000D01*
X109543763Y-79227881D01*
X109390000Y-79599099D01*
X109390000Y-80000901D01*
X109543763Y-80372119D01*
X109827881Y-80656237D01*
X110199099Y-80810000D01*
X110600901Y-80810000D01*
X110972119Y-80656237D01*
X111100000Y-80528356D01*
X111227881Y-80656237D01*
X111599099Y-80810000D01*
X112000901Y-80810000D01*
X112372119Y-80656237D01*
X112656237Y-80372119D01*
X112810000Y-80000901D01*
X112810000Y-79599099D01*
X112708394Y-79353799D01*
X127665000Y-79353799D01*
X127665000Y-79646201D01*
X127776897Y-79916344D01*
X127983656Y-80123103D01*
X128253799Y-80235000D01*
X128546201Y-80235000D01*
X128816344Y-80123103D01*
X129023103Y-79916344D01*
X129053152Y-79843799D01*
X133764990Y-79843799D01*
X133764990Y-80136201D01*
X133876887Y-80406344D01*
X134083646Y-80613103D01*
X134353789Y-80725000D01*
X134646191Y-80725000D01*
X134851398Y-80640000D01*
X147165316Y-80640000D01*
X147263107Y-81131627D01*
X147541591Y-81548409D01*
X147958373Y-81826893D01*
X148325906Y-81900000D01*
X148574094Y-81900000D01*
X148941627Y-81826893D01*
X149358409Y-81548409D01*
X149636893Y-81131627D01*
X149734684Y-80640000D01*
X149636893Y-80148373D01*
X149358409Y-79731591D01*
X148941627Y-79453107D01*
X148574094Y-79380000D01*
X148325906Y-79380000D01*
X147958373Y-79453107D01*
X147541591Y-79731591D01*
X147263107Y-80148373D01*
X147165316Y-80640000D01*
X134851398Y-80640000D01*
X134916334Y-80613103D01*
X135123093Y-80406344D01*
X135234990Y-80136201D01*
X135234990Y-79843799D01*
X135123093Y-79573656D01*
X134916334Y-79366897D01*
X134646191Y-79255000D01*
X134353789Y-79255000D01*
X134083646Y-79366897D01*
X133876887Y-79573656D01*
X133764990Y-79843799D01*
X129053152Y-79843799D01*
X129135000Y-79646201D01*
X129135000Y-79353799D01*
X129023103Y-79083656D01*
X128816344Y-78876897D01*
X128546201Y-78765000D01*
X128253799Y-78765000D01*
X127983656Y-78876897D01*
X127776897Y-79083656D01*
X127665000Y-79353799D01*
X112708394Y-79353799D01*
X112656237Y-79227881D01*
X112528356Y-79100000D01*
X112656237Y-78972119D01*
X112810000Y-78600901D01*
X112810000Y-78199099D01*
X112656237Y-77827881D01*
X112478356Y-77650000D01*
X112656237Y-77472119D01*
X112748241Y-77250000D01*
X147181968Y-77250000D01*
X147181968Y-78950000D01*
X147213789Y-79109974D01*
X147304407Y-79245593D01*
X147440026Y-79336211D01*
X147600000Y-79368032D01*
X149300000Y-79368032D01*
X149459974Y-79336211D01*
X149595593Y-79245593D01*
X149686211Y-79109974D01*
X149718032Y-78950000D01*
X149718032Y-77250000D01*
X149686211Y-77090026D01*
X149595593Y-76954407D01*
X149459974Y-76863789D01*
X149300000Y-76831968D01*
X147600000Y-76831968D01*
X147440026Y-76863789D01*
X147304407Y-76954407D01*
X147213789Y-77090026D01*
X147181968Y-77250000D01*
X112748241Y-77250000D01*
X112810000Y-77100901D01*
X112810000Y-76699099D01*
X112656237Y-76327881D01*
X112528356Y-76200000D01*
X112656237Y-76072119D01*
X112810000Y-75700901D01*
X112810000Y-75553799D01*
X125865000Y-75553799D01*
X125865000Y-75846201D01*
X125976897Y-76116344D01*
X126183656Y-76323103D01*
X126453799Y-76435000D01*
X126746201Y-76435000D01*
X127016344Y-76323103D01*
X127223103Y-76116344D01*
X127335000Y-75846201D01*
X127335000Y-75553799D01*
X127223103Y-75283656D01*
X127016344Y-75076897D01*
X126746201Y-74965000D01*
X126453799Y-74965000D01*
X126183656Y-75076897D01*
X125976897Y-75283656D01*
X125865000Y-75553799D01*
X112810000Y-75553799D01*
X112810000Y-75299099D01*
X112656237Y-74927881D01*
X112372119Y-74643763D01*
X112154926Y-74553799D01*
X128965000Y-74553799D01*
X128965000Y-74846201D01*
X129076897Y-75116344D01*
X129283656Y-75323103D01*
X129553799Y-75435000D01*
X129846201Y-75435000D01*
X130116344Y-75323103D01*
X130323103Y-75116344D01*
X130435000Y-74846201D01*
X130435000Y-74553799D01*
X130323103Y-74283656D01*
X130116344Y-74076897D01*
X129846201Y-73965000D01*
X129553799Y-73965000D01*
X129283656Y-74076897D01*
X129076897Y-74283656D01*
X128965000Y-74553799D01*
X112154926Y-74553799D01*
X112000901Y-74490000D01*
X111599099Y-74490000D01*
X111392330Y-74575646D01*
X111436211Y-74509974D01*
X111468032Y-74350000D01*
X111468032Y-73050000D01*
X111436211Y-72890026D01*
X111345593Y-72754407D01*
X111209974Y-72663789D01*
X111050000Y-72631968D01*
X109750000Y-72631968D01*
X109590026Y-72663789D01*
X109454407Y-72754407D01*
X109363789Y-72890026D01*
X109331968Y-73050000D01*
X108090381Y-73050000D01*
X108322640Y-72817741D01*
X108242926Y-72675080D01*
X107824602Y-72621865D01*
X107557074Y-72675080D01*
X107477360Y-72817741D01*
X71046097Y-72817741D01*
X70972119Y-72743763D01*
X70600901Y-72590000D01*
X70199185Y-72590000D01*
X70522119Y-72456237D01*
X70579257Y-72399099D01*
X115040000Y-72399099D01*
X115040000Y-72800901D01*
X115193763Y-73172119D01*
X115477881Y-73456237D01*
X115849099Y-73610000D01*
X116250901Y-73610000D01*
X116622119Y-73456237D01*
X116906237Y-73172119D01*
X116961425Y-73038881D01*
X118990000Y-73038881D01*
X118990000Y-73361119D01*
X119113315Y-73658828D01*
X119341172Y-73886685D01*
X119638881Y-74010000D01*
X119961119Y-74010000D01*
X120258828Y-73886685D01*
X120486685Y-73658828D01*
X120488768Y-73653799D01*
X126565000Y-73653799D01*
X126565000Y-73946201D01*
X126676897Y-74216344D01*
X126883656Y-74423103D01*
X127153799Y-74535000D01*
X127446201Y-74535000D01*
X127716344Y-74423103D01*
X127923103Y-74216344D01*
X128035000Y-73946201D01*
X128035000Y-73853799D01*
X132240000Y-73853799D01*
X132240000Y-74146201D01*
X132351897Y-74416344D01*
X132558656Y-74623103D01*
X132828799Y-74735000D01*
X132915000Y-74735000D01*
X132915000Y-74896201D01*
X133026897Y-75166344D01*
X133145008Y-75284455D01*
X133081699Y-75437295D01*
X133081699Y-75729697D01*
X133193596Y-75999840D01*
X133400355Y-76206599D01*
X133670498Y-76318496D01*
X133962900Y-76318496D01*
X134224508Y-76210134D01*
X134165000Y-76353799D01*
X134165000Y-76646201D01*
X134276897Y-76916344D01*
X134483656Y-77123103D01*
X134753799Y-77235000D01*
X135046201Y-77235000D01*
X135316344Y-77123103D01*
X135523103Y-76916344D01*
X135635000Y-76646201D01*
X135635000Y-76353799D01*
X135523103Y-76083656D01*
X135316344Y-75876897D01*
X135046201Y-75765000D01*
X134753799Y-75765000D01*
X134492191Y-75873362D01*
X134551699Y-75729697D01*
X134551699Y-75437295D01*
X134439802Y-75167152D01*
X134321691Y-75049041D01*
X134385000Y-74896201D01*
X134385000Y-74603799D01*
X134273103Y-74333656D01*
X134066344Y-74126897D01*
X133856557Y-74040000D01*
X147165316Y-74040000D01*
X147263107Y-74531627D01*
X147541591Y-74948409D01*
X147958373Y-75226893D01*
X148325906Y-75300000D01*
X148574094Y-75300000D01*
X148941627Y-75226893D01*
X149358409Y-74948409D01*
X149636893Y-74531627D01*
X149734684Y-74040000D01*
X149636893Y-73548373D01*
X149358409Y-73131591D01*
X148941627Y-72853107D01*
X148574094Y-72780000D01*
X148325906Y-72780000D01*
X147958373Y-72853107D01*
X147541591Y-73131591D01*
X147263107Y-73548373D01*
X147165316Y-74040000D01*
X133856557Y-74040000D01*
X133796201Y-74015000D01*
X133710000Y-74015000D01*
X133710000Y-73853799D01*
X133598103Y-73583656D01*
X133391344Y-73376897D01*
X133121201Y-73265000D01*
X132828799Y-73265000D01*
X132558656Y-73376897D01*
X132351897Y-73583656D01*
X132240000Y-73853799D01*
X128035000Y-73853799D01*
X128035000Y-73653799D01*
X127923103Y-73383656D01*
X127716344Y-73176897D01*
X127446201Y-73065000D01*
X127153799Y-73065000D01*
X126883656Y-73176897D01*
X126676897Y-73383656D01*
X126565000Y-73653799D01*
X120488768Y-73653799D01*
X120610000Y-73361119D01*
X120610000Y-73038881D01*
X120486685Y-72741172D01*
X120299312Y-72553799D01*
X138865000Y-72553799D01*
X138865000Y-72846201D01*
X138976897Y-73116344D01*
X139183656Y-73323103D01*
X139453799Y-73435000D01*
X139746201Y-73435000D01*
X140016344Y-73323103D01*
X140223103Y-73116344D01*
X140335000Y-72846201D01*
X140335000Y-72553799D01*
X140223103Y-72283656D01*
X140016344Y-72076897D01*
X139746201Y-71965000D01*
X139453799Y-71965000D01*
X139183656Y-72076897D01*
X138976897Y-72283656D01*
X138865000Y-72553799D01*
X120299312Y-72553799D01*
X120258828Y-72513315D01*
X119961119Y-72390000D01*
X119638881Y-72390000D01*
X119341172Y-72513315D01*
X119113315Y-72741172D01*
X118990000Y-73038881D01*
X116961425Y-73038881D01*
X117060000Y-72800901D01*
X117060000Y-72399099D01*
X116906237Y-72027881D01*
X116622119Y-71743763D01*
X116250901Y-71590000D01*
X115849099Y-71590000D01*
X115477881Y-71743763D01*
X115193763Y-72027881D01*
X115040000Y-72399099D01*
X70579257Y-72399099D01*
X70806237Y-72172119D01*
X70960000Y-71800901D01*
X70960000Y-71399099D01*
X70891531Y-71233799D01*
X123075000Y-71233799D01*
X123075000Y-71526201D01*
X123186897Y-71796344D01*
X123393656Y-72003103D01*
X123663799Y-72115000D01*
X123956201Y-72115000D01*
X124226344Y-72003103D01*
X124433103Y-71796344D01*
X124545000Y-71526201D01*
X124545000Y-71233799D01*
X124433103Y-70963656D01*
X124423246Y-70953799D01*
X124765000Y-70953799D01*
X124765000Y-71246201D01*
X124876897Y-71516344D01*
X125083656Y-71723103D01*
X125353799Y-71835000D01*
X125646201Y-71835000D01*
X125916344Y-71723103D01*
X126123103Y-71516344D01*
X126235000Y-71246201D01*
X126235000Y-70953799D01*
X126123103Y-70683656D01*
X126089447Y-70650000D01*
X147181968Y-70650000D01*
X147181968Y-72350000D01*
X147213789Y-72509974D01*
X147304407Y-72645593D01*
X147440026Y-72736211D01*
X147600000Y-72768032D01*
X149300000Y-72768032D01*
X149459974Y-72736211D01*
X149595593Y-72645593D01*
X149686211Y-72509974D01*
X149718032Y-72350000D01*
X149718032Y-70650000D01*
X149686211Y-70490026D01*
X149595593Y-70354407D01*
X149459974Y-70263789D01*
X149300000Y-70231968D01*
X147600000Y-70231968D01*
X147440026Y-70263789D01*
X147304407Y-70354407D01*
X147213789Y-70490026D01*
X147181968Y-70650000D01*
X126089447Y-70650000D01*
X125916344Y-70476897D01*
X125646201Y-70365000D01*
X125353799Y-70365000D01*
X125083656Y-70476897D01*
X124876897Y-70683656D01*
X124765000Y-70953799D01*
X124423246Y-70953799D01*
X124226344Y-70756897D01*
X123956201Y-70645000D01*
X123663799Y-70645000D01*
X123393656Y-70756897D01*
X123186897Y-70963656D01*
X123075000Y-71233799D01*
X70891531Y-71233799D01*
X70806237Y-71027881D01*
X70522119Y-70743763D01*
X70150901Y-70590000D01*
X69749099Y-70590000D01*
X69377881Y-70743763D01*
X69093763Y-71027881D01*
X68940000Y-71399099D01*
X68940000Y-71749428D01*
X68653842Y-71058581D01*
X68605262Y-71010001D01*
X68700900Y-71010001D01*
X69072118Y-70856238D01*
X69356236Y-70572120D01*
X69509999Y-70200902D01*
X69509999Y-69799100D01*
X69356236Y-69427882D01*
X69072118Y-69143764D01*
X68700900Y-68990001D01*
X68299098Y-68990001D01*
X67927880Y-69143764D01*
X67643762Y-69427882D01*
X67489999Y-69799100D01*
X67489999Y-69894738D01*
X67441419Y-69846158D01*
X65857312Y-69190000D01*
X64142688Y-69190000D01*
X62558581Y-69846158D01*
X61346158Y-71058581D01*
X60690000Y-72642688D01*
X60510000Y-72642688D01*
X60510000Y-68953799D01*
X110665000Y-68953799D01*
X110665000Y-69246201D01*
X110776897Y-69516344D01*
X110983656Y-69723103D01*
X111253799Y-69835000D01*
X111546201Y-69835000D01*
X111816344Y-69723103D01*
X112023103Y-69516344D01*
X112135000Y-69246201D01*
X112135000Y-69203799D01*
X132265000Y-69203799D01*
X132265000Y-69496201D01*
X132376897Y-69766344D01*
X132583656Y-69973103D01*
X132853799Y-70085000D01*
X133146201Y-70085000D01*
X133416344Y-69973103D01*
X133623103Y-69766344D01*
X133735000Y-69496201D01*
X133735000Y-69203799D01*
X133858948Y-69203799D01*
X133858948Y-69496201D01*
X133970845Y-69766344D01*
X134177604Y-69973103D01*
X134447747Y-70085000D01*
X134740149Y-70085000D01*
X135010292Y-69973103D01*
X135217051Y-69766344D01*
X135328948Y-69496201D01*
X135328948Y-69353799D01*
X138265000Y-69353799D01*
X138265000Y-69646201D01*
X138376897Y-69916344D01*
X138583656Y-70123103D01*
X138853799Y-70235000D01*
X139146201Y-70235000D01*
X139416344Y-70123103D01*
X139623103Y-69916344D01*
X139735000Y-69646201D01*
X139735000Y-69353799D01*
X139623103Y-69083656D01*
X139416344Y-68876897D01*
X139146201Y-68765000D01*
X138853799Y-68765000D01*
X138583656Y-68876897D01*
X138376897Y-69083656D01*
X138265000Y-69353799D01*
X135328948Y-69353799D01*
X135328948Y-69203799D01*
X135217051Y-68933656D01*
X135010292Y-68726897D01*
X134740149Y-68615000D01*
X134447747Y-68615000D01*
X134177604Y-68726897D01*
X133970845Y-68933656D01*
X133858948Y-69203799D01*
X133735000Y-69203799D01*
X133623103Y-68933656D01*
X133416344Y-68726897D01*
X133146201Y-68615000D01*
X132853799Y-68615000D01*
X132583656Y-68726897D01*
X132376897Y-68933656D01*
X132265000Y-69203799D01*
X112135000Y-69203799D01*
X112135000Y-68953799D01*
X112023103Y-68683656D01*
X111816344Y-68476897D01*
X111546201Y-68365000D01*
X111253799Y-68365000D01*
X110983656Y-68476897D01*
X110776897Y-68683656D01*
X110665000Y-68953799D01*
X60510000Y-68953799D01*
X60510000Y-60164149D01*
X61690000Y-60164149D01*
X61690001Y-64835852D01*
X61887852Y-65830516D01*
X62641529Y-66958472D01*
X63769485Y-67712149D01*
X65100000Y-67976805D01*
X66430516Y-67712149D01*
X67490000Y-67004224D01*
X67490000Y-67100901D01*
X67643763Y-67472119D01*
X67927881Y-67756237D01*
X68299099Y-67910000D01*
X68700901Y-67910000D01*
X69072119Y-67756237D01*
X69356237Y-67472119D01*
X69510000Y-67100901D01*
X69510000Y-66699099D01*
X69431673Y-66510000D01*
X69800901Y-66510000D01*
X70172119Y-66356237D01*
X70456237Y-66072119D01*
X70610000Y-65700901D01*
X70610000Y-65299099D01*
X70456237Y-64927881D01*
X70278356Y-64750000D01*
X70456237Y-64572119D01*
X70610000Y-64200901D01*
X70610000Y-63799099D01*
X70456237Y-63427881D01*
X70278356Y-63250000D01*
X70456237Y-63072119D01*
X70610000Y-62700901D01*
X70610000Y-62299099D01*
X70456237Y-61927881D01*
X70278356Y-61750000D01*
X70456237Y-61572119D01*
X70610000Y-61200901D01*
X70610000Y-60799099D01*
X70456237Y-60427881D01*
X70228356Y-60200000D01*
X70456237Y-59972119D01*
X70610000Y-59600901D01*
X70610000Y-59199099D01*
X70456237Y-58827881D01*
X70307618Y-58679262D01*
X85340000Y-58679262D01*
X85340000Y-59140738D01*
X85516599Y-59567087D01*
X85842913Y-59893401D01*
X86269262Y-60070000D01*
X86730738Y-60070000D01*
X87157087Y-59893401D01*
X87483401Y-59567087D01*
X87660000Y-59140738D01*
X87660000Y-58679262D01*
X87502532Y-58299099D01*
X91390000Y-58299099D01*
X91390000Y-58700901D01*
X91543763Y-59072119D01*
X91621644Y-59150000D01*
X91543763Y-59227881D01*
X91390000Y-59599099D01*
X91390000Y-60000901D01*
X91543763Y-60372119D01*
X91621644Y-60450000D01*
X91543763Y-60527881D01*
X91390000Y-60899099D01*
X91390000Y-61300901D01*
X91543763Y-61672119D01*
X91621644Y-61750000D01*
X91543763Y-61827881D01*
X91390000Y-62199099D01*
X91390000Y-62600901D01*
X91543763Y-62972119D01*
X91621644Y-63050000D01*
X91543763Y-63127881D01*
X91390000Y-63499099D01*
X91390000Y-63900901D01*
X91543763Y-64272119D01*
X91621644Y-64350000D01*
X91543763Y-64427881D01*
X91390000Y-64799099D01*
X91390000Y-65200901D01*
X91543763Y-65572119D01*
X91827881Y-65856237D01*
X92199099Y-66010000D01*
X92600901Y-66010000D01*
X92972119Y-65856237D01*
X93256237Y-65572119D01*
X93410000Y-65200901D01*
X93410000Y-64799099D01*
X93256237Y-64427881D01*
X93178356Y-64350000D01*
X93256237Y-64272119D01*
X93410000Y-63900901D01*
X93410000Y-63499099D01*
X93256237Y-63127881D01*
X93178356Y-63050000D01*
X93256237Y-62972119D01*
X93410000Y-62600901D01*
X93410000Y-62199099D01*
X93256237Y-61827881D01*
X93178356Y-61750000D01*
X93256237Y-61672119D01*
X93410000Y-61300901D01*
X93410000Y-60899099D01*
X93256237Y-60527881D01*
X93178356Y-60450000D01*
X93256237Y-60372119D01*
X93342380Y-60164149D01*
X93690000Y-60164149D01*
X93690001Y-64835852D01*
X93887852Y-65830516D01*
X94641529Y-66958472D01*
X95769485Y-67712149D01*
X97100000Y-67976805D01*
X98430516Y-67712149D01*
X99041654Y-67303799D01*
X121225000Y-67303799D01*
X121225000Y-67596201D01*
X121336897Y-67866344D01*
X121543656Y-68073103D01*
X121813799Y-68185000D01*
X122106201Y-68185000D01*
X122376344Y-68073103D01*
X122583103Y-67866344D01*
X122695000Y-67596201D01*
X122695000Y-67553799D01*
X124765000Y-67553799D01*
X124765000Y-67846201D01*
X124876897Y-68116344D01*
X125083656Y-68323103D01*
X125353799Y-68435000D01*
X125646201Y-68435000D01*
X125916344Y-68323103D01*
X126123103Y-68116344D01*
X126154128Y-68041441D01*
X136349788Y-68041441D01*
X136642102Y-68432922D01*
X136866081Y-68618268D01*
X137048200Y-68590988D01*
X137048200Y-67858000D01*
X136381878Y-67858000D01*
X136349788Y-68041441D01*
X126154128Y-68041441D01*
X126235000Y-67846201D01*
X126235000Y-67553799D01*
X126123103Y-67283656D01*
X125916344Y-67076897D01*
X125646201Y-66965000D01*
X125353799Y-66965000D01*
X125083656Y-67076897D01*
X124876897Y-67283656D01*
X124765000Y-67553799D01*
X122695000Y-67553799D01*
X122695000Y-67303799D01*
X122583103Y-67033656D01*
X122422486Y-66873039D01*
X128745760Y-66873039D01*
X128745760Y-67165441D01*
X128857657Y-67435584D01*
X129064416Y-67642343D01*
X129334559Y-67754240D01*
X129626961Y-67754240D01*
X129897104Y-67642343D01*
X129940380Y-67599067D01*
X130024036Y-67682723D01*
X130294179Y-67794620D01*
X130586581Y-67794620D01*
X130856724Y-67682723D01*
X131063483Y-67475964D01*
X131175380Y-67205821D01*
X131175380Y-67053799D01*
X133765000Y-67053799D01*
X133765000Y-67346201D01*
X133876897Y-67616344D01*
X134083656Y-67823103D01*
X134353799Y-67935000D01*
X134646201Y-67935000D01*
X134916344Y-67823103D01*
X135123103Y-67616344D01*
X135235000Y-67346201D01*
X135235000Y-67053799D01*
X135123103Y-66783656D01*
X134916344Y-66576897D01*
X134646201Y-66465000D01*
X134353799Y-66465000D01*
X134083656Y-66576897D01*
X133876897Y-66783656D01*
X133765000Y-67053799D01*
X131175380Y-67053799D01*
X131175380Y-66913419D01*
X131063483Y-66643276D01*
X130856724Y-66436517D01*
X130586581Y-66324620D01*
X130294179Y-66324620D01*
X130024036Y-66436517D01*
X129980760Y-66479793D01*
X129897104Y-66396137D01*
X129626961Y-66284240D01*
X129334559Y-66284240D01*
X129064416Y-66396137D01*
X128857657Y-66602896D01*
X128745760Y-66873039D01*
X122422486Y-66873039D01*
X122376344Y-66826897D01*
X122106201Y-66715000D01*
X121813799Y-66715000D01*
X121543656Y-66826897D01*
X121336897Y-67033656D01*
X121225000Y-67303799D01*
X99041654Y-67303799D01*
X99558472Y-66958472D01*
X100216410Y-65973799D01*
X122135000Y-65973799D01*
X122135000Y-66266201D01*
X122246897Y-66536344D01*
X122453656Y-66743103D01*
X122723799Y-66855000D01*
X123016201Y-66855000D01*
X123286344Y-66743103D01*
X123493103Y-66536344D01*
X123605000Y-66266201D01*
X123605000Y-65973799D01*
X123555295Y-65853799D01*
X135165000Y-65853799D01*
X135165000Y-66146201D01*
X135276897Y-66416344D01*
X135483656Y-66623103D01*
X135753799Y-66735000D01*
X136046201Y-66735000D01*
X136230745Y-66658559D01*
X136349788Y-66658559D01*
X136381878Y-66842000D01*
X137048200Y-66842000D01*
X137048200Y-66109012D01*
X137911800Y-66109012D01*
X137911800Y-66842000D01*
X138343600Y-66842000D01*
X138343600Y-67858000D01*
X137911800Y-67858000D01*
X137911800Y-68590988D01*
X138093919Y-68618268D01*
X138317898Y-68432922D01*
X138343600Y-68398501D01*
X138343600Y-68740002D01*
X138753600Y-68740002D01*
X138753600Y-67664034D01*
X138820295Y-67999333D01*
X139101786Y-68420614D01*
X139523066Y-68702105D01*
X140020000Y-68800951D01*
X140516933Y-68702105D01*
X140938214Y-68420614D01*
X141219705Y-67999334D01*
X141290000Y-67645936D01*
X141360295Y-67999333D01*
X141641786Y-68420614D01*
X142063066Y-68702105D01*
X142560000Y-68800951D01*
X143056933Y-68702105D01*
X143478214Y-68420614D01*
X143759705Y-67999334D01*
X143818368Y-67704415D01*
X143818368Y-68366000D01*
X143850189Y-68525974D01*
X143940807Y-68661593D01*
X144076426Y-68752211D01*
X144236400Y-68784032D01*
X145963600Y-68784032D01*
X146123574Y-68752211D01*
X146259193Y-68661593D01*
X146349811Y-68525974D01*
X146381632Y-68366000D01*
X146381632Y-67640000D01*
X147796064Y-67640000D01*
X147906738Y-68196397D01*
X148221912Y-68668088D01*
X148693603Y-68983262D01*
X149109556Y-69066000D01*
X149390444Y-69066000D01*
X149806397Y-68983262D01*
X150278088Y-68668088D01*
X150561508Y-68243919D01*
X151634132Y-68243919D01*
X151755768Y-68426026D01*
X152136075Y-68745908D01*
X152318200Y-68725708D01*
X152318200Y-68061800D01*
X153181800Y-68061800D01*
X153181800Y-68725708D01*
X153363925Y-68745908D01*
X153744232Y-68426026D01*
X153865868Y-68243919D01*
X154174132Y-68243919D01*
X154295768Y-68426026D01*
X154676075Y-68745908D01*
X154858200Y-68725708D01*
X154858200Y-68061800D01*
X155721800Y-68061800D01*
X155721800Y-68725708D01*
X155903925Y-68745908D01*
X156284232Y-68426026D01*
X156405868Y-68243919D01*
X156378588Y-68061800D01*
X155721800Y-68061800D01*
X154858200Y-68061800D01*
X154201412Y-68061800D01*
X154174132Y-68243919D01*
X153865868Y-68243919D01*
X153838588Y-68061800D01*
X153181800Y-68061800D01*
X152318200Y-68061800D01*
X151661412Y-68061800D01*
X151634132Y-68243919D01*
X150561508Y-68243919D01*
X150593262Y-68196397D01*
X150703936Y-67640000D01*
X150593262Y-67083603D01*
X150278088Y-66611912D01*
X150161532Y-66534032D01*
X150266000Y-66534032D01*
X150425974Y-66502211D01*
X150561593Y-66411593D01*
X150598471Y-66356400D01*
X151359998Y-66356400D01*
X151359998Y-66766400D01*
X151836107Y-66766400D01*
X151755768Y-66833974D01*
X151634132Y-67016081D01*
X151661412Y-67198200D01*
X152318200Y-67198200D01*
X152318200Y-66766400D01*
X153181800Y-66766400D01*
X153181800Y-67198200D01*
X153838588Y-67198200D01*
X153865868Y-67016081D01*
X153744232Y-66833974D01*
X153663893Y-66766400D01*
X154376107Y-66766400D01*
X154295768Y-66833974D01*
X154174132Y-67016081D01*
X154201412Y-67198200D01*
X154858200Y-67198200D01*
X154858200Y-66766400D01*
X155721800Y-66766400D01*
X155721800Y-67198200D01*
X156378588Y-67198200D01*
X156405868Y-67016081D01*
X156284232Y-66833974D01*
X156203893Y-66766400D01*
X156680002Y-66766400D01*
X156680002Y-66356400D01*
X155451635Y-66356400D01*
X155786934Y-66289705D01*
X156208214Y-66008214D01*
X156489705Y-65586934D01*
X156588551Y-65090000D01*
X156489705Y-64593066D01*
X156208214Y-64171786D01*
X155786934Y-63890295D01*
X155433536Y-63820000D01*
X155786934Y-63749705D01*
X156208214Y-63468214D01*
X156489705Y-63046934D01*
X156588551Y-62550000D01*
X156489705Y-62053066D01*
X156208214Y-61631786D01*
X155786934Y-61350295D01*
X155415438Y-61276400D01*
X155164562Y-61276400D01*
X154793066Y-61350295D01*
X154371786Y-61631786D01*
X154090295Y-62053066D01*
X154031632Y-62347986D01*
X154031632Y-61686400D01*
X153999811Y-61526426D01*
X153909193Y-61390807D01*
X153773574Y-61300189D01*
X153613600Y-61268368D01*
X151886400Y-61268368D01*
X151726426Y-61300189D01*
X151590807Y-61390807D01*
X151500189Y-61526426D01*
X151468368Y-61686400D01*
X151468368Y-63413600D01*
X151500189Y-63573574D01*
X151590807Y-63709193D01*
X151726426Y-63799811D01*
X151886400Y-63831632D01*
X152547985Y-63831632D01*
X152253066Y-63890295D01*
X151831786Y-64171786D01*
X151550295Y-64593066D01*
X151451449Y-65090000D01*
X151550295Y-65586934D01*
X151831786Y-66008214D01*
X152253066Y-66289705D01*
X152588365Y-66356400D01*
X151359998Y-66356400D01*
X150598471Y-66356400D01*
X150652211Y-66275974D01*
X150684032Y-66116000D01*
X150684032Y-64084000D01*
X150652211Y-63924026D01*
X150561593Y-63788407D01*
X150425974Y-63697789D01*
X150266000Y-63665968D01*
X148234000Y-63665968D01*
X148074026Y-63697789D01*
X147938407Y-63788407D01*
X147847789Y-63924026D01*
X147815968Y-64084000D01*
X147815968Y-66116000D01*
X147847789Y-66275974D01*
X147938407Y-66411593D01*
X148074026Y-66502211D01*
X148234000Y-66534032D01*
X148338468Y-66534032D01*
X148221912Y-66611912D01*
X147906738Y-67083603D01*
X147796064Y-67640000D01*
X146381632Y-67640000D01*
X146381632Y-66334000D01*
X146349811Y-66174026D01*
X146308276Y-66111864D01*
X146423203Y-66064260D01*
X146629962Y-65857501D01*
X146741859Y-65587358D01*
X146741859Y-65294956D01*
X146629962Y-65024813D01*
X146423203Y-64818054D01*
X146153060Y-64706157D01*
X145860658Y-64706157D01*
X145590515Y-64818054D01*
X145383756Y-65024813D01*
X145271859Y-65294956D01*
X145271859Y-65587358D01*
X145383756Y-65857501D01*
X145442223Y-65915968D01*
X144236400Y-65915968D01*
X144076426Y-65947789D01*
X143940807Y-66038407D01*
X143850189Y-66174026D01*
X143818368Y-66334000D01*
X143818368Y-66995586D01*
X143759705Y-66700667D01*
X143478214Y-66279386D01*
X143056934Y-65997895D01*
X142560000Y-65899049D01*
X142063067Y-65997895D01*
X141641787Y-66279386D01*
X141360295Y-66700666D01*
X141290000Y-67054064D01*
X141219705Y-66700667D01*
X140938214Y-66279386D01*
X140516934Y-65997895D01*
X140020000Y-65899049D01*
X139523067Y-65997895D01*
X139101787Y-66279386D01*
X138820295Y-66700666D01*
X138753600Y-67035965D01*
X138753600Y-65959998D01*
X138343600Y-65959998D01*
X138343600Y-66301499D01*
X138317898Y-66267078D01*
X138093919Y-66081732D01*
X137911800Y-66109012D01*
X137048200Y-66109012D01*
X136866081Y-66081732D01*
X136642102Y-66267078D01*
X136349788Y-66658559D01*
X136230745Y-66658559D01*
X136316344Y-66623103D01*
X136523103Y-66416344D01*
X136635000Y-66146201D01*
X136635000Y-65853799D01*
X136561966Y-65677481D01*
X136723103Y-65516344D01*
X136835000Y-65246201D01*
X136835000Y-64953799D01*
X136723103Y-64683656D01*
X136516344Y-64476897D01*
X136246201Y-64365000D01*
X135953799Y-64365000D01*
X135683656Y-64476897D01*
X135476897Y-64683656D01*
X135365000Y-64953799D01*
X135365000Y-65246201D01*
X135438034Y-65422519D01*
X135276897Y-65583656D01*
X135165000Y-65853799D01*
X123555295Y-65853799D01*
X123493103Y-65703656D01*
X123286344Y-65496897D01*
X123016201Y-65385000D01*
X122723799Y-65385000D01*
X122453656Y-65496897D01*
X122246897Y-65703656D01*
X122135000Y-65973799D01*
X100216410Y-65973799D01*
X100312149Y-65830516D01*
X100510000Y-64835852D01*
X100510000Y-64353799D01*
X127365000Y-64353799D01*
X127365000Y-64646201D01*
X127476897Y-64916344D01*
X127683656Y-65123103D01*
X127953799Y-65235000D01*
X128246201Y-65235000D01*
X128516344Y-65123103D01*
X128723103Y-64916344D01*
X128835000Y-64646201D01*
X128835000Y-64353799D01*
X128723103Y-64083656D01*
X128593246Y-63953799D01*
X130515000Y-63953799D01*
X130515000Y-64246201D01*
X130626897Y-64516344D01*
X130683003Y-64572450D01*
X130639799Y-64615654D01*
X130527902Y-64885797D01*
X130527902Y-65178199D01*
X130639799Y-65448342D01*
X130846558Y-65655101D01*
X131116701Y-65766998D01*
X131409103Y-65766998D01*
X131679246Y-65655101D01*
X131886005Y-65448342D01*
X131997902Y-65178199D01*
X131997902Y-64885797D01*
X131886005Y-64615654D01*
X131829899Y-64559548D01*
X131873103Y-64516344D01*
X131985000Y-64246201D01*
X131985000Y-63953799D01*
X131873103Y-63683656D01*
X131666344Y-63476897D01*
X131396201Y-63365000D01*
X131103799Y-63365000D01*
X130833656Y-63476897D01*
X130626897Y-63683656D01*
X130515000Y-63953799D01*
X128593246Y-63953799D01*
X128516344Y-63876897D01*
X128246201Y-63765000D01*
X127953799Y-63765000D01*
X127683656Y-63876897D01*
X127476897Y-64083656D01*
X127365000Y-64353799D01*
X100510000Y-64353799D01*
X100510000Y-62638881D01*
X116590000Y-62638881D01*
X116590000Y-62961119D01*
X116713315Y-63258828D01*
X116941172Y-63486685D01*
X117238881Y-63610000D01*
X117561119Y-63610000D01*
X117858828Y-63486685D01*
X118086685Y-63258828D01*
X118171610Y-63053799D01*
X121965000Y-63053799D01*
X121965000Y-63346201D01*
X122076897Y-63616344D01*
X122283656Y-63823103D01*
X122553799Y-63935000D01*
X122846201Y-63935000D01*
X123116344Y-63823103D01*
X123323103Y-63616344D01*
X123427710Y-63363799D01*
X124895000Y-63363799D01*
X124895000Y-63656201D01*
X125006897Y-63926344D01*
X125213656Y-64133103D01*
X125483799Y-64245000D01*
X125776201Y-64245000D01*
X126046344Y-64133103D01*
X126253103Y-63926344D01*
X126365000Y-63656201D01*
X126365000Y-63363799D01*
X126253103Y-63093656D01*
X126046344Y-62886897D01*
X125776201Y-62775000D01*
X125483799Y-62775000D01*
X125213656Y-62886897D01*
X125006897Y-63093656D01*
X124895000Y-63363799D01*
X123427710Y-63363799D01*
X123435000Y-63346201D01*
X123435000Y-63053799D01*
X123323103Y-62783656D01*
X123194287Y-62654840D01*
X123358828Y-62586685D01*
X123586685Y-62358828D01*
X123710000Y-62061119D01*
X123710000Y-61753799D01*
X125340000Y-61753799D01*
X125340000Y-62046201D01*
X125451897Y-62316344D01*
X125658656Y-62523103D01*
X125928799Y-62635000D01*
X126221201Y-62635000D01*
X126491344Y-62523103D01*
X126698103Y-62316344D01*
X126745858Y-62201054D01*
X126801897Y-62336344D01*
X127008656Y-62543103D01*
X127278799Y-62655000D01*
X127571201Y-62655000D01*
X127841344Y-62543103D01*
X128048103Y-62336344D01*
X128160000Y-62066201D01*
X128160000Y-61820180D01*
X128788619Y-61820180D01*
X128788619Y-62112582D01*
X128900516Y-62382725D01*
X129107275Y-62589484D01*
X129377418Y-62701381D01*
X129669820Y-62701381D01*
X129784693Y-62653799D01*
X133765000Y-62653799D01*
X133765000Y-62946201D01*
X133876897Y-63216344D01*
X134083656Y-63423103D01*
X134353799Y-63535000D01*
X134646201Y-63535000D01*
X134916344Y-63423103D01*
X135123103Y-63216344D01*
X135235000Y-62946201D01*
X135235000Y-62653799D01*
X135265000Y-62653799D01*
X135265000Y-62946201D01*
X135376897Y-63216344D01*
X135583656Y-63423103D01*
X135853799Y-63535000D01*
X136146201Y-63535000D01*
X136416344Y-63423103D01*
X136623103Y-63216344D01*
X136735000Y-62946201D01*
X136735000Y-62653799D01*
X136623103Y-62383656D01*
X136416344Y-62176897D01*
X136146201Y-62065000D01*
X135853799Y-62065000D01*
X135583656Y-62176897D01*
X135376897Y-62383656D01*
X135265000Y-62653799D01*
X135235000Y-62653799D01*
X135123103Y-62383656D01*
X134916344Y-62176897D01*
X134646201Y-62065000D01*
X134353799Y-62065000D01*
X134083656Y-62176897D01*
X133876897Y-62383656D01*
X133765000Y-62653799D01*
X129784693Y-62653799D01*
X129939963Y-62589484D01*
X130146722Y-62382725D01*
X130258619Y-62112582D01*
X130258619Y-61820180D01*
X130231124Y-61753799D01*
X148165000Y-61753799D01*
X148165000Y-62046201D01*
X148276897Y-62316344D01*
X148483656Y-62523103D01*
X148753799Y-62635000D01*
X149046201Y-62635000D01*
X149316344Y-62523103D01*
X149523103Y-62316344D01*
X149635000Y-62046201D01*
X149635000Y-61753799D01*
X149523103Y-61483656D01*
X149316344Y-61276897D01*
X149046201Y-61165000D01*
X148753799Y-61165000D01*
X148483656Y-61276897D01*
X148276897Y-61483656D01*
X148165000Y-61753799D01*
X130231124Y-61753799D01*
X130146722Y-61550037D01*
X129939963Y-61343278D01*
X129669820Y-61231381D01*
X129377418Y-61231381D01*
X129107275Y-61343278D01*
X128900516Y-61550037D01*
X128788619Y-61820180D01*
X128160000Y-61820180D01*
X128160000Y-61773799D01*
X128048103Y-61503656D01*
X127841344Y-61296897D01*
X127571201Y-61185000D01*
X127278799Y-61185000D01*
X127008656Y-61296897D01*
X126801897Y-61503656D01*
X126754142Y-61618946D01*
X126698103Y-61483656D01*
X126491344Y-61276897D01*
X126221201Y-61165000D01*
X125928799Y-61165000D01*
X125658656Y-61276897D01*
X125451897Y-61483656D01*
X125340000Y-61753799D01*
X123710000Y-61753799D01*
X123710000Y-61738881D01*
X123586685Y-61441172D01*
X123358828Y-61213315D01*
X123061119Y-61090000D01*
X122738881Y-61090000D01*
X122441172Y-61213315D01*
X122213315Y-61441172D01*
X122090000Y-61738881D01*
X122090000Y-62061119D01*
X122213315Y-62358828D01*
X122388115Y-62533628D01*
X122283656Y-62576897D01*
X122076897Y-62783656D01*
X121965000Y-63053799D01*
X118171610Y-63053799D01*
X118210000Y-62961119D01*
X118210000Y-62638881D01*
X118086685Y-62341172D01*
X117858828Y-62113315D01*
X117561119Y-61990000D01*
X117238881Y-61990000D01*
X116941172Y-62113315D01*
X116713315Y-62341172D01*
X116590000Y-62638881D01*
X100510000Y-62638881D01*
X100510000Y-60164148D01*
X100312149Y-59169484D01*
X99984593Y-58679262D01*
X117340000Y-58679262D01*
X117340000Y-59140738D01*
X117516599Y-59567087D01*
X117842913Y-59893401D01*
X118269262Y-60070000D01*
X118730738Y-60070000D01*
X119157087Y-59893401D01*
X119483401Y-59567087D01*
X119660000Y-59140738D01*
X119660000Y-58953799D01*
X125065000Y-58953799D01*
X125065000Y-59246201D01*
X125176897Y-59516344D01*
X125383656Y-59723103D01*
X125653799Y-59835000D01*
X125946201Y-59835000D01*
X126216344Y-59723103D01*
X126423103Y-59516344D01*
X126471294Y-59400000D01*
X134306064Y-59400000D01*
X134416738Y-59956397D01*
X134731912Y-60428088D01*
X135203603Y-60743262D01*
X135619556Y-60826000D01*
X135900444Y-60826000D01*
X136316397Y-60743262D01*
X136788088Y-60428088D01*
X136865968Y-60311532D01*
X136865968Y-60416000D01*
X136897789Y-60575974D01*
X136988407Y-60711593D01*
X137124026Y-60802211D01*
X137284000Y-60834032D01*
X139316000Y-60834032D01*
X139475974Y-60802211D01*
X139611593Y-60711593D01*
X139702211Y-60575974D01*
X139734032Y-60416000D01*
X139734032Y-60058800D01*
X154249895Y-60058800D01*
X154292297Y-60104609D01*
X154516281Y-60371434D01*
X154825325Y-60532234D01*
X154962500Y-60458238D01*
X154962500Y-59925000D01*
X155737500Y-59925000D01*
X155737500Y-60458238D01*
X155874675Y-60532234D01*
X156183719Y-60371434D01*
X156407703Y-60104609D01*
X156450105Y-60058800D01*
X156392826Y-59925000D01*
X155737500Y-59925000D01*
X154962500Y-59925000D01*
X154307174Y-59925000D01*
X154249895Y-60058800D01*
X139734032Y-60058800D01*
X139734032Y-58919384D01*
X151850107Y-58919384D01*
X152025174Y-59210735D01*
X152298410Y-59412913D01*
X152302058Y-59429888D01*
X152432500Y-59370587D01*
X152432500Y-58787500D01*
X152907500Y-58787500D01*
X152907500Y-59370587D01*
X153037942Y-59429888D01*
X153041590Y-59412913D01*
X153206080Y-59291200D01*
X154249895Y-59291200D01*
X154307174Y-59425000D01*
X154962500Y-59425000D01*
X154962500Y-58891762D01*
X155737500Y-58891762D01*
X155737500Y-59425000D01*
X156392826Y-59425000D01*
X156450105Y-59291200D01*
X156407703Y-59245391D01*
X156183719Y-58978566D01*
X155874675Y-58817766D01*
X155737500Y-58891762D01*
X154962500Y-58891762D01*
X154825325Y-58817766D01*
X154516281Y-58978566D01*
X154292297Y-59245391D01*
X154249895Y-59291200D01*
X153206080Y-59291200D01*
X153314826Y-59210735D01*
X153489893Y-58919384D01*
X153423351Y-58787500D01*
X152907500Y-58787500D01*
X152432500Y-58787500D01*
X151916649Y-58787500D01*
X151850107Y-58919384D01*
X139734032Y-58919384D01*
X139734032Y-58384000D01*
X139702211Y-58224026D01*
X139611593Y-58088407D01*
X139475974Y-57997789D01*
X139316000Y-57965968D01*
X137284000Y-57965968D01*
X137124026Y-57997789D01*
X136988407Y-58088407D01*
X136897789Y-58224026D01*
X136865968Y-58384000D01*
X136865968Y-58488468D01*
X136788088Y-58371912D01*
X136316397Y-58056738D01*
X135900444Y-57974000D01*
X135619556Y-57974000D01*
X135203603Y-58056738D01*
X134731912Y-58371912D01*
X134416738Y-58843603D01*
X134306064Y-59400000D01*
X126471294Y-59400000D01*
X126535000Y-59246201D01*
X126535000Y-58953799D01*
X126423103Y-58683656D01*
X126216344Y-58476897D01*
X125946201Y-58365000D01*
X125653799Y-58365000D01*
X125383656Y-58476897D01*
X125176897Y-58683656D01*
X125065000Y-58953799D01*
X119660000Y-58953799D01*
X119660000Y-58679262D01*
X119483401Y-58252913D01*
X119157087Y-57926599D01*
X118730738Y-57750000D01*
X118719670Y-57750000D01*
X118500000Y-57530330D01*
X118280330Y-57750000D01*
X118269262Y-57750000D01*
X117842913Y-57926599D01*
X117516599Y-58252913D01*
X117340000Y-58679262D01*
X99984593Y-58679262D01*
X99558472Y-58041528D01*
X98430515Y-57287851D01*
X97500116Y-57102783D01*
X117321749Y-57102783D01*
X117372105Y-57355938D01*
X117518503Y-57451167D01*
X117969670Y-57000000D01*
X119030330Y-57000000D01*
X119481497Y-57451167D01*
X119627895Y-57355938D01*
X119678251Y-56897217D01*
X119627895Y-56644062D01*
X119481497Y-56548833D01*
X119030330Y-57000000D01*
X117969670Y-57000000D01*
X117518503Y-56548833D01*
X117372105Y-56644062D01*
X117321749Y-57102783D01*
X97500116Y-57102783D01*
X97100000Y-57023195D01*
X95769484Y-57287851D01*
X94641528Y-58041528D01*
X93887851Y-59169485D01*
X93690000Y-60164149D01*
X93342380Y-60164149D01*
X93410000Y-60000901D01*
X93410000Y-59599099D01*
X93256237Y-59227881D01*
X93178356Y-59150000D01*
X93256237Y-59072119D01*
X93410000Y-58700901D01*
X93410000Y-58299099D01*
X93256237Y-57927881D01*
X92972119Y-57643763D01*
X92600901Y-57490000D01*
X92199099Y-57490000D01*
X91827881Y-57643763D01*
X91543763Y-57927881D01*
X91390000Y-58299099D01*
X87502532Y-58299099D01*
X87483401Y-58252913D01*
X87157087Y-57926599D01*
X86730738Y-57750000D01*
X86719670Y-57750000D01*
X86500000Y-57530330D01*
X86280330Y-57750000D01*
X86269262Y-57750000D01*
X85842913Y-57926599D01*
X85516599Y-58252913D01*
X85340000Y-58679262D01*
X70307618Y-58679262D01*
X70172119Y-58543763D01*
X69800901Y-58390000D01*
X69531673Y-58390000D01*
X69610000Y-58200901D01*
X69610000Y-57799099D01*
X69456237Y-57427881D01*
X69172119Y-57143763D01*
X69073185Y-57102783D01*
X85321749Y-57102783D01*
X85372105Y-57355938D01*
X85518503Y-57451167D01*
X85969670Y-57000000D01*
X87030330Y-57000000D01*
X87481497Y-57451167D01*
X87627895Y-57355938D01*
X87673677Y-56938881D01*
X89940000Y-56938881D01*
X89940000Y-57261119D01*
X90063315Y-57558828D01*
X90291172Y-57786685D01*
X90588881Y-57910000D01*
X90911119Y-57910000D01*
X91208828Y-57786685D01*
X91436685Y-57558828D01*
X91560000Y-57261119D01*
X91560000Y-56938881D01*
X91436685Y-56641172D01*
X91208828Y-56413315D01*
X90911119Y-56290000D01*
X90588881Y-56290000D01*
X90291172Y-56413315D01*
X90063315Y-56641172D01*
X89940000Y-56938881D01*
X87673677Y-56938881D01*
X87678251Y-56897217D01*
X87627895Y-56644062D01*
X87481497Y-56548833D01*
X87030330Y-57000000D01*
X85969670Y-57000000D01*
X85518503Y-56548833D01*
X85372105Y-56644062D01*
X85321749Y-57102783D01*
X69073185Y-57102783D01*
X68800901Y-56990000D01*
X68399099Y-56990000D01*
X68027881Y-57143763D01*
X67743763Y-57427881D01*
X67590000Y-57799099D01*
X67590000Y-58088713D01*
X67558472Y-58041528D01*
X66430515Y-57287851D01*
X65100000Y-57023195D01*
X63769484Y-57287851D01*
X62641528Y-58041528D01*
X61887851Y-59169485D01*
X61690000Y-60164149D01*
X60510000Y-60164149D01*
X60510000Y-49164149D01*
X61690000Y-49164149D01*
X61690001Y-53835852D01*
X61887852Y-54830516D01*
X62641529Y-55958472D01*
X63769485Y-56712149D01*
X65100000Y-56976805D01*
X66430516Y-56712149D01*
X67558472Y-55958472D01*
X68312149Y-54830516D01*
X68395138Y-54413304D01*
X68543763Y-54772119D01*
X68827881Y-55056237D01*
X69199099Y-55210000D01*
X69600901Y-55210000D01*
X69972119Y-55056237D01*
X70169094Y-54859262D01*
X85340000Y-54859262D01*
X85340000Y-55320738D01*
X85516599Y-55747087D01*
X85842913Y-56073401D01*
X86269262Y-56250000D01*
X86280330Y-56250000D01*
X86500000Y-56469670D01*
X86719670Y-56250000D01*
X86730738Y-56250000D01*
X87157087Y-56073401D01*
X87483401Y-55747087D01*
X87660000Y-55320738D01*
X87660000Y-54859262D01*
X87483401Y-54432913D01*
X87157087Y-54106599D01*
X86730738Y-53930000D01*
X86269262Y-53930000D01*
X85842913Y-54106599D01*
X85516599Y-54432913D01*
X85340000Y-54859262D01*
X70169094Y-54859262D01*
X70256237Y-54772119D01*
X70410000Y-54400901D01*
X70410000Y-53999099D01*
X70256237Y-53627881D01*
X70128356Y-53500000D01*
X70256237Y-53372119D01*
X70410000Y-53000901D01*
X70410000Y-52599099D01*
X70256237Y-52227881D01*
X70128356Y-52100000D01*
X70256237Y-51972119D01*
X70410000Y-51600901D01*
X70410000Y-51199099D01*
X70256237Y-50827881D01*
X70128356Y-50700000D01*
X70256237Y-50572119D01*
X70410000Y-50200901D01*
X70410000Y-49805261D01*
X70658581Y-50053842D01*
X72242688Y-50710000D01*
X73957312Y-50710000D01*
X75541419Y-50053842D01*
X75597045Y-49998216D01*
X80760434Y-49998216D01*
X81290568Y-50404628D01*
X82960807Y-50792233D01*
X84652238Y-50511161D01*
X84909432Y-50404628D01*
X85439566Y-49998216D01*
X85095149Y-49653799D01*
X86565000Y-49653799D01*
X86565000Y-49946201D01*
X86676897Y-50216344D01*
X86883656Y-50423103D01*
X87153799Y-50535000D01*
X87446201Y-50535000D01*
X87716344Y-50423103D01*
X87923103Y-50216344D01*
X88035000Y-49946201D01*
X88035000Y-49653799D01*
X87923103Y-49383656D01*
X87716344Y-49176897D01*
X87685568Y-49164149D01*
X93690000Y-49164149D01*
X93690001Y-53835852D01*
X93887852Y-54830516D01*
X94641529Y-55958472D01*
X95769485Y-56712149D01*
X97100000Y-56976805D01*
X98430516Y-56712149D01*
X99558472Y-55958472D01*
X100292941Y-54859262D01*
X117340000Y-54859262D01*
X117340000Y-55320738D01*
X117516599Y-55747087D01*
X117842913Y-56073401D01*
X118269262Y-56250000D01*
X118280330Y-56250000D01*
X118500000Y-56469670D01*
X118719670Y-56250000D01*
X118730738Y-56250000D01*
X119157087Y-56073401D01*
X119400488Y-55830000D01*
X128172173Y-55830000D01*
X128242800Y-56185064D01*
X128316945Y-56296030D01*
X128304407Y-56304407D01*
X128213789Y-56440026D01*
X128181968Y-56600000D01*
X128181968Y-57600000D01*
X128213789Y-57759974D01*
X128304407Y-57895593D01*
X128440026Y-57986211D01*
X128600000Y-58018032D01*
X129561487Y-58018032D01*
X129476522Y-58102997D01*
X129364625Y-58373140D01*
X129364625Y-58665542D01*
X129476522Y-58935685D01*
X129683281Y-59142444D01*
X129953424Y-59254341D01*
X130245826Y-59254341D01*
X130515969Y-59142444D01*
X130722728Y-58935685D01*
X130834625Y-58665542D01*
X130834625Y-58373140D01*
X130722728Y-58102997D01*
X130515969Y-57896238D01*
X130245826Y-57784341D01*
X129969929Y-57784341D01*
X129986211Y-57759974D01*
X130018032Y-57600000D01*
X130018032Y-57492159D01*
X149415000Y-57492159D01*
X149415000Y-57784561D01*
X149526897Y-58054704D01*
X149733656Y-58261463D01*
X150003799Y-58373360D01*
X150296201Y-58373360D01*
X150566344Y-58261463D01*
X150773103Y-58054704D01*
X150783080Y-58030616D01*
X151850107Y-58030616D01*
X151916649Y-58162500D01*
X152432500Y-58162500D01*
X152432500Y-57579413D01*
X152907500Y-57579413D01*
X152907500Y-58162500D01*
X153423351Y-58162500D01*
X153489893Y-58030616D01*
X153314826Y-57739265D01*
X153041590Y-57537087D01*
X153037942Y-57520112D01*
X152907500Y-57579413D01*
X152432500Y-57579413D01*
X152302058Y-57520112D01*
X152298410Y-57537087D01*
X152025174Y-57739265D01*
X151850107Y-58030616D01*
X150783080Y-58030616D01*
X150885000Y-57784561D01*
X150885000Y-57492159D01*
X150773103Y-57222016D01*
X150566344Y-57015257D01*
X150296201Y-56903360D01*
X150003799Y-56903360D01*
X149733656Y-57015257D01*
X149526897Y-57222016D01*
X149415000Y-57492159D01*
X130018032Y-57492159D01*
X130018032Y-56600000D01*
X129986211Y-56440026D01*
X129895593Y-56304407D01*
X129883055Y-56296030D01*
X129957200Y-56185064D01*
X130027827Y-55830000D01*
X129957200Y-55474936D01*
X129756073Y-55173927D01*
X129455064Y-54972800D01*
X129189622Y-54920000D01*
X129010378Y-54920000D01*
X128744936Y-54972800D01*
X128443927Y-55173927D01*
X128242800Y-55474936D01*
X128172173Y-55830000D01*
X119400488Y-55830000D01*
X119483401Y-55747087D01*
X119660000Y-55320738D01*
X119660000Y-54859262D01*
X119483401Y-54432913D01*
X119157087Y-54106599D01*
X118730738Y-53930000D01*
X118269262Y-53930000D01*
X117842913Y-54106599D01*
X117516599Y-54432913D01*
X117340000Y-54859262D01*
X100292941Y-54859262D01*
X100312149Y-54830516D01*
X100429885Y-54238615D01*
X100443763Y-54272119D01*
X100727881Y-54556237D01*
X101099099Y-54710000D01*
X101500901Y-54710000D01*
X101872119Y-54556237D01*
X102156237Y-54272119D01*
X102310000Y-53900901D01*
X102310000Y-53499099D01*
X102169542Y-53160000D01*
X131301449Y-53160000D01*
X131400295Y-53656934D01*
X131681786Y-54078214D01*
X132103066Y-54359705D01*
X132397985Y-54418368D01*
X131736400Y-54418368D01*
X131576426Y-54450189D01*
X131440807Y-54540807D01*
X131350189Y-54676426D01*
X131318368Y-54836400D01*
X131318368Y-56563600D01*
X131350189Y-56723574D01*
X131440807Y-56859193D01*
X131576426Y-56949811D01*
X131736400Y-56981632D01*
X133463600Y-56981632D01*
X133623574Y-56949811D01*
X133759193Y-56859193D01*
X133849811Y-56723574D01*
X133881632Y-56563600D01*
X133881632Y-55902014D01*
X133940295Y-56196934D01*
X134221786Y-56618214D01*
X134643066Y-56899705D01*
X135014562Y-56973600D01*
X135265438Y-56973600D01*
X135636934Y-56899705D01*
X136058214Y-56618214D01*
X136339705Y-56196934D01*
X136406400Y-55861635D01*
X136406400Y-57090002D01*
X136816400Y-57090002D01*
X136816400Y-56613893D01*
X136883974Y-56694232D01*
X137066081Y-56815868D01*
X137248200Y-56788588D01*
X137248200Y-56131800D01*
X138111800Y-56131800D01*
X138111800Y-56788588D01*
X138293919Y-56815868D01*
X138476026Y-56694232D01*
X138795908Y-56313925D01*
X139104092Y-56313925D01*
X139423974Y-56694232D01*
X139606081Y-56815868D01*
X139788200Y-56788588D01*
X139788200Y-56131800D01*
X139124292Y-56131800D01*
X139104092Y-56313925D01*
X138795908Y-56313925D01*
X138775708Y-56131800D01*
X138111800Y-56131800D01*
X137248200Y-56131800D01*
X136816400Y-56131800D01*
X136816400Y-55268200D01*
X137248200Y-55268200D01*
X137248200Y-54611412D01*
X138111800Y-54611412D01*
X138111800Y-55268200D01*
X138775708Y-55268200D01*
X138795908Y-55086075D01*
X139104092Y-55086075D01*
X139124292Y-55268200D01*
X139788200Y-55268200D01*
X139788200Y-54611412D01*
X139606081Y-54584132D01*
X139423974Y-54705768D01*
X139104092Y-55086075D01*
X138795908Y-55086075D01*
X138476026Y-54705768D01*
X138293919Y-54584132D01*
X138111800Y-54611412D01*
X137248200Y-54611412D01*
X137066081Y-54584132D01*
X136883974Y-54705768D01*
X136816400Y-54786107D01*
X136816400Y-54073893D01*
X136883974Y-54154232D01*
X137066081Y-54275868D01*
X137248200Y-54248588D01*
X137248200Y-53591800D01*
X138111800Y-53591800D01*
X138111800Y-54248588D01*
X138293919Y-54275868D01*
X138476026Y-54154232D01*
X138795908Y-53773925D01*
X139104092Y-53773925D01*
X139423974Y-54154232D01*
X139606081Y-54275868D01*
X139788200Y-54248588D01*
X139788200Y-53591800D01*
X139124292Y-53591800D01*
X139104092Y-53773925D01*
X138795908Y-53773925D01*
X138775708Y-53591800D01*
X138111800Y-53591800D01*
X137248200Y-53591800D01*
X136816400Y-53591800D01*
X136816400Y-52728200D01*
X137248200Y-52728200D01*
X137248200Y-52071412D01*
X138111800Y-52071412D01*
X138111800Y-52728200D01*
X138775708Y-52728200D01*
X138795908Y-52546075D01*
X139104092Y-52546075D01*
X139124292Y-52728200D01*
X139788200Y-52728200D01*
X139788200Y-52071412D01*
X140651800Y-52071412D01*
X140651800Y-52728200D01*
X141083600Y-52728200D01*
X141083600Y-53591800D01*
X140651800Y-53591800D01*
X140651800Y-54248588D01*
X140833919Y-54275868D01*
X141016026Y-54154232D01*
X141083600Y-54073893D01*
X141083600Y-54786107D01*
X141016026Y-54705768D01*
X140833919Y-54584132D01*
X140651800Y-54611412D01*
X140651800Y-55268200D01*
X141083600Y-55268200D01*
X141083600Y-56131800D01*
X140651800Y-56131800D01*
X140651800Y-56788588D01*
X140833919Y-56815868D01*
X141016026Y-56694232D01*
X141083600Y-56613893D01*
X141083600Y-57090002D01*
X141493600Y-57090002D01*
X141493600Y-55861635D01*
X141560295Y-56196934D01*
X141841786Y-56618214D01*
X142263066Y-56899705D01*
X142634562Y-56973600D01*
X142885438Y-56973600D01*
X143256934Y-56899705D01*
X143678214Y-56618214D01*
X143959705Y-56196934D01*
X144030000Y-55843536D01*
X144100295Y-56196934D01*
X144381786Y-56618214D01*
X144803066Y-56899705D01*
X145174562Y-56973600D01*
X145425438Y-56973600D01*
X145796934Y-56899705D01*
X146218214Y-56618214D01*
X146499705Y-56196934D01*
X146598551Y-55700000D01*
X146499705Y-55203066D01*
X146218214Y-54781786D01*
X145796934Y-54500295D01*
X145443536Y-54430000D01*
X145796934Y-54359705D01*
X146218214Y-54078214D01*
X146224114Y-54069384D01*
X151850107Y-54069384D01*
X152025174Y-54360735D01*
X152298410Y-54562913D01*
X152302058Y-54579888D01*
X152432500Y-54520587D01*
X152432500Y-53937500D01*
X152907500Y-53937500D01*
X152907500Y-54520587D01*
X153037942Y-54579888D01*
X153041590Y-54562913D01*
X153314826Y-54360735D01*
X153489893Y-54069384D01*
X153423351Y-53937500D01*
X152907500Y-53937500D01*
X152432500Y-53937500D01*
X151916649Y-53937500D01*
X151850107Y-54069384D01*
X146224114Y-54069384D01*
X146499705Y-53656934D01*
X146594450Y-53180616D01*
X151850107Y-53180616D01*
X151916649Y-53312500D01*
X152432500Y-53312500D01*
X152432500Y-52729413D01*
X152907500Y-52729413D01*
X152907500Y-53312500D01*
X153423351Y-53312500D01*
X153489893Y-53180616D01*
X153314826Y-52889265D01*
X153206081Y-52808800D01*
X154249895Y-52808800D01*
X154292297Y-52854609D01*
X154516281Y-53121434D01*
X154825325Y-53282234D01*
X154962500Y-53208238D01*
X154962500Y-52675000D01*
X155737500Y-52675000D01*
X155737500Y-53208238D01*
X155874675Y-53282234D01*
X156183719Y-53121434D01*
X156407703Y-52854609D01*
X156450105Y-52808800D01*
X156392826Y-52675000D01*
X155737500Y-52675000D01*
X154962500Y-52675000D01*
X154307174Y-52675000D01*
X154249895Y-52808800D01*
X153206081Y-52808800D01*
X153041590Y-52687087D01*
X153037942Y-52670112D01*
X152907500Y-52729413D01*
X152432500Y-52729413D01*
X152302058Y-52670112D01*
X152298410Y-52687087D01*
X152025174Y-52889265D01*
X151850107Y-53180616D01*
X146594450Y-53180616D01*
X146598551Y-53160000D01*
X146499705Y-52663066D01*
X146218214Y-52241786D01*
X145918017Y-52041200D01*
X154249895Y-52041200D01*
X154307174Y-52175000D01*
X154962500Y-52175000D01*
X154962500Y-51641762D01*
X155737500Y-51641762D01*
X155737500Y-52175000D01*
X156392826Y-52175000D01*
X156450105Y-52041200D01*
X156407703Y-51995391D01*
X156183719Y-51728566D01*
X155874675Y-51567766D01*
X155737500Y-51641762D01*
X154962500Y-51641762D01*
X154825325Y-51567766D01*
X154516281Y-51728566D01*
X154292297Y-51995391D01*
X154249895Y-52041200D01*
X145918017Y-52041200D01*
X145796934Y-51960295D01*
X145425438Y-51886400D01*
X145174562Y-51886400D01*
X144803066Y-51960295D01*
X144381786Y-52241786D01*
X144100295Y-52663066D01*
X144030000Y-53016464D01*
X143959705Y-52663066D01*
X143678214Y-52241786D01*
X143256934Y-51960295D01*
X142885438Y-51886400D01*
X142634562Y-51886400D01*
X142263066Y-51960295D01*
X141841786Y-52241786D01*
X141560295Y-52663066D01*
X141493600Y-52998365D01*
X141493600Y-51769998D01*
X141083600Y-51769998D01*
X141083600Y-52246107D01*
X141016026Y-52165768D01*
X140833919Y-52044132D01*
X140651800Y-52071412D01*
X139788200Y-52071412D01*
X139606081Y-52044132D01*
X139423974Y-52165768D01*
X139104092Y-52546075D01*
X138795908Y-52546075D01*
X138476026Y-52165768D01*
X138293919Y-52044132D01*
X138111800Y-52071412D01*
X137248200Y-52071412D01*
X137066081Y-52044132D01*
X136883974Y-52165768D01*
X136816400Y-52246107D01*
X136816400Y-51769998D01*
X136406400Y-51769998D01*
X136406400Y-52998365D01*
X136339705Y-52663066D01*
X136058214Y-52241786D01*
X135636934Y-51960295D01*
X135265438Y-51886400D01*
X135014562Y-51886400D01*
X134643066Y-51960295D01*
X134221786Y-52241786D01*
X133940295Y-52663066D01*
X133870000Y-53016464D01*
X133799705Y-52663066D01*
X133518214Y-52241786D01*
X133096934Y-51960295D01*
X132725438Y-51886400D01*
X132474562Y-51886400D01*
X132103066Y-51960295D01*
X131681786Y-52241786D01*
X131400295Y-52663066D01*
X131301449Y-53160000D01*
X102169542Y-53160000D01*
X102156237Y-53127881D01*
X102028356Y-53000000D01*
X102156237Y-52872119D01*
X102310000Y-52500901D01*
X102310000Y-52099099D01*
X102156237Y-51727881D01*
X102028356Y-51600000D01*
X102156237Y-51472119D01*
X102252330Y-51240129D01*
X120901330Y-51240129D01*
X120901330Y-51532531D01*
X121013227Y-51802674D01*
X121219986Y-52009433D01*
X121490129Y-52121330D01*
X121782531Y-52121330D01*
X122052674Y-52009433D01*
X122259433Y-51802674D01*
X122321637Y-51652500D01*
X126090000Y-51652500D01*
X126090000Y-51881554D01*
X126152419Y-52032246D01*
X126267754Y-52147581D01*
X126418446Y-52210000D01*
X126647500Y-52210000D01*
X126750000Y-52107500D01*
X126750000Y-51550000D01*
X126192500Y-51550000D01*
X126090000Y-51652500D01*
X122321637Y-51652500D01*
X122371330Y-51532531D01*
X122371330Y-51240129D01*
X122259433Y-50969986D01*
X122052674Y-50763227D01*
X121944564Y-50718446D01*
X126090000Y-50718446D01*
X126090000Y-50947500D01*
X126192500Y-51050000D01*
X126750000Y-51050000D01*
X126750000Y-50492500D01*
X127250000Y-50492500D01*
X127250000Y-51050000D01*
X127391901Y-51050000D01*
X127342173Y-51300000D01*
X127391901Y-51550000D01*
X127250000Y-51550000D01*
X127250000Y-52107500D01*
X127352500Y-52210000D01*
X127500000Y-52210000D01*
X127500000Y-52690002D01*
X127910000Y-52690002D01*
X127910000Y-52153902D01*
X127914936Y-52157200D01*
X128180378Y-52210000D01*
X128359622Y-52210000D01*
X128625064Y-52157200D01*
X128926073Y-51956073D01*
X129029338Y-51801526D01*
X129076897Y-51916344D01*
X129283656Y-52123103D01*
X129553799Y-52235000D01*
X129846201Y-52235000D01*
X130116344Y-52123103D01*
X130323103Y-51916344D01*
X130435000Y-51646201D01*
X130435000Y-51353799D01*
X130323103Y-51083656D01*
X130116344Y-50876897D01*
X129846201Y-50765000D01*
X129553799Y-50765000D01*
X129283656Y-50876897D01*
X129141869Y-51018684D01*
X129127200Y-50944936D01*
X128926073Y-50643927D01*
X128625064Y-50442800D01*
X128359622Y-50390000D01*
X128180378Y-50390000D01*
X127914936Y-50442800D01*
X127910000Y-50446098D01*
X127910000Y-49909998D01*
X127500000Y-49909998D01*
X127500000Y-50390000D01*
X127352500Y-50390000D01*
X127250000Y-50492500D01*
X126750000Y-50492500D01*
X126647500Y-50390000D01*
X126418446Y-50390000D01*
X126267754Y-50452419D01*
X126152419Y-50567754D01*
X126090000Y-50718446D01*
X121944564Y-50718446D01*
X121782531Y-50651330D01*
X121490129Y-50651330D01*
X121219986Y-50763227D01*
X121013227Y-50969986D01*
X120901330Y-51240129D01*
X102252330Y-51240129D01*
X102310000Y-51100901D01*
X102310000Y-50699099D01*
X102156237Y-50327881D01*
X102028356Y-50200000D01*
X102156237Y-50072119D01*
X102308723Y-49703984D01*
X102658581Y-50053842D01*
X104242688Y-50710000D01*
X105957312Y-50710000D01*
X107541419Y-50053842D01*
X107597045Y-49998216D01*
X112760434Y-49998216D01*
X113290568Y-50404628D01*
X114960807Y-50792233D01*
X116652238Y-50511161D01*
X116909432Y-50404628D01*
X117439566Y-49998216D01*
X115100000Y-47658650D01*
X112760434Y-49998216D01*
X107597045Y-49998216D01*
X108753842Y-48841419D01*
X109410000Y-47257312D01*
X109410000Y-46260807D01*
X110707767Y-46260807D01*
X110988839Y-47952238D01*
X111095372Y-48209432D01*
X111501784Y-48739566D01*
X113841350Y-46400000D01*
X116358650Y-46400000D01*
X118698216Y-48739566D01*
X119104628Y-48209432D01*
X119394578Y-46960000D01*
X131301449Y-46960000D01*
X131400295Y-47456934D01*
X131681786Y-47878214D01*
X132103066Y-48159705D01*
X132397985Y-48218368D01*
X131736400Y-48218368D01*
X131576426Y-48250189D01*
X131440807Y-48340807D01*
X131350189Y-48476426D01*
X131318368Y-48636400D01*
X131318368Y-50363600D01*
X131350189Y-50523574D01*
X131440807Y-50659193D01*
X131576426Y-50749811D01*
X131736400Y-50781632D01*
X133463600Y-50781632D01*
X133623574Y-50749811D01*
X133759193Y-50659193D01*
X133849811Y-50523574D01*
X133881632Y-50363600D01*
X133881632Y-49702014D01*
X133940295Y-49996934D01*
X134221786Y-50418214D01*
X134643066Y-50699705D01*
X135014562Y-50773600D01*
X135265438Y-50773600D01*
X135636934Y-50699705D01*
X136058214Y-50418214D01*
X136339705Y-49996934D01*
X136406400Y-49661635D01*
X136406400Y-50890002D01*
X136816400Y-50890002D01*
X136816400Y-50413893D01*
X136883974Y-50494232D01*
X137066081Y-50615868D01*
X137248200Y-50588588D01*
X137248200Y-49931800D01*
X138111800Y-49931800D01*
X138111800Y-50588588D01*
X138293919Y-50615868D01*
X138476026Y-50494232D01*
X138795908Y-50113925D01*
X138775708Y-49931800D01*
X138111800Y-49931800D01*
X137248200Y-49931800D01*
X136816400Y-49931800D01*
X136816400Y-49068200D01*
X137248200Y-49068200D01*
X137248200Y-48411412D01*
X138111800Y-48411412D01*
X138111800Y-49068200D01*
X138775708Y-49068200D01*
X138795908Y-48886075D01*
X138476026Y-48505768D01*
X138293919Y-48384132D01*
X138111800Y-48411412D01*
X137248200Y-48411412D01*
X137066081Y-48384132D01*
X136883974Y-48505768D01*
X136816400Y-48586107D01*
X136816400Y-47873893D01*
X136883974Y-47954232D01*
X137066081Y-48075868D01*
X137248200Y-48048588D01*
X137248200Y-47391800D01*
X138111800Y-47391800D01*
X138111800Y-48048588D01*
X138293919Y-48075868D01*
X138476026Y-47954232D01*
X138795908Y-47573925D01*
X138791037Y-47530000D01*
X151609998Y-47530000D01*
X151609998Y-47940000D01*
X152081968Y-47940000D01*
X152081968Y-48800000D01*
X152113789Y-48959974D01*
X152204407Y-49095593D01*
X152340026Y-49186211D01*
X152500000Y-49218032D01*
X153500000Y-49218032D01*
X153659974Y-49186211D01*
X153795593Y-49095593D01*
X153886211Y-48959974D01*
X153918032Y-48800000D01*
X153918032Y-47940000D01*
X154390002Y-47940000D01*
X154390002Y-47530000D01*
X153812694Y-47530000D01*
X153795593Y-47504407D01*
X153774149Y-47490078D01*
X153825105Y-47413800D01*
X153767826Y-47280000D01*
X153250000Y-47280000D01*
X153250000Y-47381968D01*
X152750000Y-47381968D01*
X152750000Y-47280000D01*
X152232174Y-47280000D01*
X152174895Y-47413800D01*
X152225851Y-47490078D01*
X152204407Y-47504407D01*
X152187306Y-47530000D01*
X151609998Y-47530000D01*
X138791037Y-47530000D01*
X138775708Y-47391800D01*
X138111800Y-47391800D01*
X137248200Y-47391800D01*
X136816400Y-47391800D01*
X136816400Y-46646200D01*
X152174895Y-46646200D01*
X152232174Y-46780000D01*
X152750000Y-46780000D01*
X152750000Y-46257482D01*
X153250000Y-46257482D01*
X153250000Y-46780000D01*
X153767826Y-46780000D01*
X153825105Y-46646200D01*
X153670355Y-46414550D01*
X153383805Y-46204864D01*
X153250000Y-46257482D01*
X152750000Y-46257482D01*
X152616195Y-46204864D01*
X152329645Y-46414550D01*
X152174895Y-46646200D01*
X136816400Y-46646200D01*
X136816400Y-46528200D01*
X137248200Y-46528200D01*
X137248200Y-45871412D01*
X138111800Y-45871412D01*
X138111800Y-46528200D01*
X138775708Y-46528200D01*
X138795908Y-46346075D01*
X138476026Y-45965768D01*
X138293919Y-45844132D01*
X138111800Y-45871412D01*
X137248200Y-45871412D01*
X137066081Y-45844132D01*
X136883974Y-45965768D01*
X136816400Y-46046107D01*
X136816400Y-45569998D01*
X136406400Y-45569998D01*
X136406400Y-46798365D01*
X136339705Y-46463066D01*
X136058214Y-46041786D01*
X135636934Y-45760295D01*
X135265438Y-45686400D01*
X135014562Y-45686400D01*
X134643066Y-45760295D01*
X134221786Y-46041786D01*
X133940295Y-46463066D01*
X133870000Y-46816464D01*
X133799705Y-46463066D01*
X133518214Y-46041786D01*
X133096934Y-45760295D01*
X132725438Y-45686400D01*
X132474562Y-45686400D01*
X132103066Y-45760295D01*
X131681786Y-46041786D01*
X131400295Y-46463066D01*
X131301449Y-46960000D01*
X119394578Y-46960000D01*
X119492233Y-46539193D01*
X119211161Y-44847762D01*
X119104628Y-44590568D01*
X118884785Y-44303799D01*
X125765000Y-44303799D01*
X125765000Y-44596201D01*
X125876897Y-44866344D01*
X126083656Y-45073103D01*
X126353799Y-45185000D01*
X126646201Y-45185000D01*
X126916344Y-45073103D01*
X127123103Y-44866344D01*
X127235000Y-44596201D01*
X127235000Y-44353799D01*
X137565000Y-44353799D01*
X137565000Y-44646201D01*
X137676897Y-44916344D01*
X137883656Y-45123103D01*
X138153799Y-45235000D01*
X138446201Y-45235000D01*
X138716344Y-45123103D01*
X138923103Y-44916344D01*
X139035000Y-44646201D01*
X139035000Y-44353799D01*
X138923103Y-44083656D01*
X138716344Y-43876897D01*
X138446201Y-43765000D01*
X138153799Y-43765000D01*
X137883656Y-43876897D01*
X137676897Y-44083656D01*
X137565000Y-44353799D01*
X127235000Y-44353799D01*
X127235000Y-44303799D01*
X127123103Y-44033656D01*
X126916344Y-43826897D01*
X126657391Y-43719635D01*
X139430510Y-43719635D01*
X139430510Y-44280365D01*
X139645092Y-44798412D01*
X140041588Y-45194908D01*
X140559635Y-45409490D01*
X141120365Y-45409490D01*
X141638412Y-45194908D01*
X142034908Y-44798412D01*
X142110000Y-44617124D01*
X142185092Y-44798412D01*
X142581588Y-45194908D01*
X143099635Y-45409490D01*
X143660365Y-45409490D01*
X144097499Y-45228423D01*
X145398323Y-45228423D01*
X145532312Y-45383823D01*
X146091389Y-45426847D01*
X146307688Y-45383823D01*
X146441677Y-45228423D01*
X145920000Y-44706746D01*
X145398323Y-45228423D01*
X144097499Y-45228423D01*
X144178412Y-45194908D01*
X144574908Y-44798412D01*
X144690073Y-44520380D01*
X144691577Y-44521677D01*
X145213254Y-44000000D01*
X146626746Y-44000000D01*
X147148423Y-44521677D01*
X147149927Y-44520380D01*
X147265092Y-44798412D01*
X147661588Y-45194908D01*
X148179635Y-45409490D01*
X148740365Y-45409490D01*
X149258412Y-45194908D01*
X149654908Y-44798412D01*
X149730000Y-44617124D01*
X149805092Y-44798412D01*
X150201588Y-45194908D01*
X150719635Y-45409490D01*
X151280365Y-45409490D01*
X151798412Y-45194908D01*
X152194908Y-44798412D01*
X152409490Y-44280365D01*
X152409490Y-43719635D01*
X152194908Y-43201588D01*
X151798412Y-42805092D01*
X151280365Y-42590510D01*
X150719635Y-42590510D01*
X150201588Y-42805092D01*
X149805092Y-43201588D01*
X149730000Y-43382876D01*
X149654908Y-43201588D01*
X149258412Y-42805092D01*
X148740365Y-42590510D01*
X148179635Y-42590510D01*
X147661588Y-42805092D01*
X147265092Y-43201588D01*
X147149927Y-43479620D01*
X147148423Y-43478323D01*
X146626746Y-44000000D01*
X145213254Y-44000000D01*
X144691577Y-43478323D01*
X144690073Y-43479620D01*
X144574908Y-43201588D01*
X144178412Y-42805092D01*
X144097500Y-42771577D01*
X145398323Y-42771577D01*
X145920000Y-43293254D01*
X146441677Y-42771577D01*
X146307688Y-42616177D01*
X145748611Y-42573153D01*
X145532312Y-42616177D01*
X145398323Y-42771577D01*
X144097500Y-42771577D01*
X143660365Y-42590510D01*
X143099635Y-42590510D01*
X142581588Y-42805092D01*
X142185092Y-43201588D01*
X142110000Y-43382876D01*
X142034908Y-43201588D01*
X141638412Y-42805092D01*
X141120365Y-42590510D01*
X140559635Y-42590510D01*
X140041588Y-42805092D01*
X139645092Y-43201588D01*
X139430510Y-43719635D01*
X126657391Y-43719635D01*
X126646201Y-43715000D01*
X126353799Y-43715000D01*
X126083656Y-43826897D01*
X125876897Y-44033656D01*
X125765000Y-44303799D01*
X118884785Y-44303799D01*
X118698216Y-44060434D01*
X116358650Y-46400000D01*
X113841350Y-46400000D01*
X111501784Y-44060434D01*
X111095372Y-44590568D01*
X110707767Y-46260807D01*
X109410000Y-46260807D01*
X109410000Y-45542688D01*
X108753842Y-43958581D01*
X107597045Y-42801784D01*
X112760434Y-42801784D01*
X115100000Y-45141350D01*
X117439566Y-42801784D01*
X116909432Y-42395372D01*
X115239193Y-42007767D01*
X113547762Y-42288839D01*
X113290568Y-42395372D01*
X112760434Y-42801784D01*
X107597045Y-42801784D01*
X107541419Y-42746158D01*
X105957312Y-42090000D01*
X104242688Y-42090000D01*
X102658581Y-42746158D01*
X101446158Y-43958581D01*
X100790000Y-45542688D01*
X100790000Y-47257312D01*
X101300596Y-48490000D01*
X101099099Y-48490000D01*
X100727881Y-48643763D01*
X100459811Y-48911833D01*
X100312149Y-48169484D01*
X99558472Y-47041528D01*
X98762984Y-46510000D01*
X98900901Y-46510000D01*
X99272119Y-46356237D01*
X99556237Y-46072119D01*
X99710000Y-45700901D01*
X99710000Y-45299099D01*
X99556237Y-44927881D01*
X99272119Y-44643763D01*
X98900901Y-44490000D01*
X98499099Y-44490000D01*
X98127881Y-44643763D01*
X98000000Y-44771644D01*
X97772119Y-44543763D01*
X97400901Y-44390000D01*
X96999099Y-44390000D01*
X96627881Y-44543763D01*
X96400000Y-44771644D01*
X96272119Y-44643763D01*
X95900901Y-44490000D01*
X95499099Y-44490000D01*
X95127881Y-44643763D01*
X94843763Y-44927881D01*
X94690000Y-45299099D01*
X94690000Y-45700901D01*
X94843763Y-46072119D01*
X95127881Y-46356237D01*
X95460773Y-46494125D01*
X94641528Y-47041528D01*
X93887851Y-48169485D01*
X93690000Y-49164149D01*
X87685568Y-49164149D01*
X87446201Y-49065000D01*
X87153799Y-49065000D01*
X86883656Y-49176897D01*
X86676897Y-49383656D01*
X86565000Y-49653799D01*
X85095149Y-49653799D01*
X83100000Y-47658650D01*
X80760434Y-49998216D01*
X75597045Y-49998216D01*
X76753842Y-48841419D01*
X77410000Y-47257312D01*
X77410000Y-46260807D01*
X78707767Y-46260807D01*
X78988839Y-47952238D01*
X79095372Y-48209432D01*
X79501784Y-48739566D01*
X81841350Y-46400000D01*
X84358650Y-46400000D01*
X86698216Y-48739566D01*
X87104628Y-48209432D01*
X87492233Y-46539193D01*
X87211161Y-44847762D01*
X87104628Y-44590568D01*
X86698216Y-44060434D01*
X84358650Y-46400000D01*
X81841350Y-46400000D01*
X79501784Y-44060434D01*
X79095372Y-44590568D01*
X78707767Y-46260807D01*
X77410000Y-46260807D01*
X77410000Y-45542688D01*
X76753842Y-43958581D01*
X75597045Y-42801784D01*
X80760434Y-42801784D01*
X83100000Y-45141350D01*
X85439566Y-42801784D01*
X84909432Y-42395372D01*
X83239193Y-42007767D01*
X81547762Y-42288839D01*
X81290568Y-42395372D01*
X80760434Y-42801784D01*
X75597045Y-42801784D01*
X75541419Y-42746158D01*
X73957312Y-42090000D01*
X72242688Y-42090000D01*
X70658581Y-42746158D01*
X69446158Y-43958581D01*
X68790000Y-45542688D01*
X68790000Y-47257312D01*
X69446158Y-48841419D01*
X69594739Y-48990000D01*
X69199099Y-48990000D01*
X68827881Y-49143763D01*
X68543763Y-49427881D01*
X68510000Y-49509392D01*
X68510000Y-49164148D01*
X68312149Y-48169484D01*
X67558472Y-47041528D01*
X66762984Y-46510000D01*
X66900901Y-46510000D01*
X67272119Y-46356237D01*
X67556237Y-46072119D01*
X67710000Y-45700901D01*
X67710000Y-45299099D01*
X67556237Y-44927881D01*
X67272119Y-44643763D01*
X66900901Y-44490000D01*
X66499099Y-44490000D01*
X66127881Y-44643763D01*
X66000000Y-44771644D01*
X65772119Y-44543763D01*
X65400901Y-44390000D01*
X64999099Y-44390000D01*
X64627881Y-44543763D01*
X64400000Y-44771644D01*
X64272119Y-44643763D01*
X63900901Y-44490000D01*
X63499099Y-44490000D01*
X63127881Y-44643763D01*
X62843763Y-44927881D01*
X62690000Y-45299099D01*
X62690000Y-45700901D01*
X62843763Y-46072119D01*
X63127881Y-46356237D01*
X63460773Y-46494125D01*
X62641528Y-47041528D01*
X61887851Y-48169485D01*
X61690000Y-49164149D01*
X60510000Y-49164149D01*
X60510000Y-41600186D01*
X61990000Y-41600186D01*
X61990000Y-42399814D01*
X62296004Y-43138573D01*
X62861427Y-43703996D01*
X63600186Y-44010000D01*
X64399814Y-44010000D01*
X65138573Y-43703996D01*
X65703996Y-43138573D01*
X66010000Y-42399814D01*
X66010000Y-41600186D01*
X153990000Y-41600186D01*
X153990000Y-42399814D01*
X154296004Y-43138573D01*
X154861427Y-43703996D01*
X155600186Y-44010000D01*
X156399814Y-44010000D01*
X157138573Y-43703996D01*
X157703996Y-43138573D01*
X158010000Y-42399814D01*
X158010000Y-41600186D01*
X157703996Y-40861427D01*
X157138573Y-40296004D01*
X156399814Y-39990000D01*
X155600186Y-39990000D01*
X154861427Y-40296004D01*
X154296004Y-40861427D01*
X153990000Y-41600186D01*
X66010000Y-41600186D01*
X65703996Y-40861427D01*
X65138573Y-40296004D01*
X64674550Y-40103799D01*
X93465000Y-40103799D01*
X93465000Y-40396201D01*
X93576897Y-40666344D01*
X93783656Y-40873103D01*
X94053799Y-40985000D01*
X94346201Y-40985000D01*
X94616344Y-40873103D01*
X94823103Y-40666344D01*
X94935000Y-40396201D01*
X94935000Y-40103799D01*
X94823103Y-39833656D01*
X94616344Y-39626897D01*
X94346201Y-39515000D01*
X94053799Y-39515000D01*
X93783656Y-39626897D01*
X93576897Y-39833656D01*
X93465000Y-40103799D01*
X64674550Y-40103799D01*
X64399814Y-39990000D01*
X63600186Y-39990000D01*
X62861427Y-40296004D01*
X62296004Y-40861427D01*
X61990000Y-41600186D01*
X60510000Y-41600186D01*
X60510000Y-38510000D01*
X159490000Y-38510000D01*
X159490001Y-119490000D01*
M02*
