M48
; DRILL file {KiCad (5.1.5)-3} date 17.2.2020 20.05.03
; FORMAT={-:-/ absolute / inch / decimal}
; #@! TF.CreationDate,2020-02-17T20:05:03+02:00
; #@! TF.GenerationSoftware,Kicad,Pcbnew,(5.1.5)-3
; #@! TF.FileFunction,Plated,1,4,PTH
FMAT,2
INCH
T1C0.0118
T2C0.0157
T3C0.0197
T4C0.0236
T5C0.0256
T6C0.0276
T7C0.0315
T8C0.0315
T9C0.0394
T10C0.0400
T11C0.0472
T12C0.0787
T13C0.1575
%
G90
G05
T1
X2.4606Y-3.5433
X2.4606Y-3.937
X2.4606Y-4.3307
X2.6575Y-1.5748
X2.7559Y-4.626
X2.8583Y-2.2047
X2.9528Y-1.5748
X3.0512Y-3.3583
X3.0551Y-2.9311
X3.1575Y-1.626
X3.3268Y-2.252
X3.3465Y-3.5433
X3.4331Y-1.6969
X3.437Y-1.9606
X3.5177Y-1.9055
X3.5197Y-1.5846
X3.5394Y-2.1417
X3.5787Y-3.1575
X3.5827Y-2.0807
X3.7087Y-1.5846
X3.815Y-4.0157
X3.8543Y-4.6811
X3.8583Y-4.563
X3.9803Y-3.4055
X4.0866Y-2.248
X4.0866Y-3.9646
X4.1063Y-3.2913
X4.2244Y-3.9213
X4.3543Y-1.9646
X4.378Y-1.689
X4.3858Y-2.7205
X4.4606Y-4.5591
X4.4606Y-4.6811
X4.5079Y-2.6535
X4.5394Y-3.8346
X4.5945Y-3.2165
X4.6063Y-3.4528
X4.622Y-2.6598
X4.6461Y-2.6969
X4.6732Y-3.9291
X4.6811Y-2.1024
X4.7087Y-4.1417
X4.7126Y-4.185
X4.7362Y-2.437
X4.7461Y-3.5315
X4.75Y-3.3898
X4.7559Y-3.7323
X4.7697Y-3.4685
X4.7883Y-2.3778
X4.7888Y-2.0231
X4.8012Y-1.687
X4.8016Y-2.6555
X4.8071Y-2.2362
X4.8071Y-2.4094
X4.8189Y-2.7362
X4.8228Y-3.122
X4.8307Y-2.4882
X4.8323Y-3.6618
X4.8339Y-3.626
X4.8374Y-2.6031
X4.8415Y-2.5699
X4.8449Y-3.7049
X4.8484Y-1.6319
X4.8504Y-3.2165
X4.8583Y-2.6969
X4.8661Y-2.1614
X4.8744Y-2.8102
X4.8898Y-2.9449
X4.9409Y-2.6654
X4.9409Y-2.7992
X4.9528Y-2.3268
X4.9535Y-3.6906
X4.9636Y-2.437
X4.9681Y-2.6378
X4.9803Y-1.75
X4.9803Y-2.9764
X4.9803Y-3.4016
X4.9882Y-3.2638
X4.9961Y-1.9882
X5.0118Y-2.9055
X5.0167Y-2.4378
X5.0197Y-1.5748
X5.0423Y-2.1614
X5.0433Y-2.5394
X5.0551Y-3.1299
X5.0551Y-3.3425
X5.0573Y-2.5908
X5.063Y-3.2205
X5.0748Y-3.2953
X5.0961Y-2.9819
X5.098Y-2.6027
X5.0984Y-1.9882
X5.0994Y-2.4396
X5.1063Y-2.9409
X5.1221Y-2.7746
X5.1378Y-3.6575
X5.1417Y-3.4547
X5.1457Y-2.2283
X5.1678Y-2.5603
X5.1754Y-2.491
X5.2008Y-2.374
X5.2008Y-2.8031
X5.2165Y-4.626
X5.2205Y-3.2756
X5.2244Y-2.2913
X5.2323Y-2.7126
X5.2352Y-2.9134
X5.252Y-3.8307
X5.2618Y-2.9429
X5.2684Y-2.9757
X5.2717Y-3.2087
X5.2756Y-3.4331
X5.2913Y-4.0315
X5.2953Y-2.4724
X5.311Y-3.0118
X5.311Y-2.7323
X5.3543Y-2.4724
X5.3543Y-2.6732
X5.3543Y-3.9882
X5.378Y-4.1024
X5.3858Y-2.626
X5.3898Y-3.7992
X5.4045Y-3.4685
X5.4045Y-3.5748
X5.4134Y-1.5748
X5.437Y-2.7756
X5.4449Y-1.752
X5.4921Y-2.6063
X5.5118Y-2.8898
X5.5236Y-2.4724
X5.5276Y-1.9528
X5.5512Y-2.6063
X5.5669Y-2.2441
X5.5827Y-2.311
X5.626Y-2.748
X5.6299Y-2.4331
X5.6535Y-2.3386
X5.7047Y-3.1142
X5.7047Y-3.3819
X5.7087Y-1.5748
X5.7126Y-3.6378
X5.7165Y-2.8465
X5.8031Y-2.622
X5.8071Y-4.626
X5.8425Y-2.3583
X5.9055Y-2.2638
X6.0039Y-1.5748
X6.2008Y-2.8543
X6.2008Y-3.3465
X6.2008Y-3.8386
X6.2008Y-4.3307
X6.2283Y-1.811
X6.2362Y-2.7283
T2
X2.4055Y-3.1299
X2.7756Y-3.0354
X2.8346Y-3.0984
X2.8504Y-3.6181
X2.9409Y-2.7638
X2.9449Y-4.3228
X3.3504Y-2.7874
X3.5728Y-2.248
X3.6732Y-3.9921
X3.7323Y-3.626
X3.7323Y-3.6693
X3.7323Y-3.7126
X3.7323Y-3.7559
X3.7598Y-3.7913
X3.8031Y-3.7913
X3.8504Y-3.7913
X4.6004Y-3.0394
X4.622Y-2.4724
X4.6693Y-3.8465
X4.7165Y-2.8819
X4.7795Y-4.0866
X4.7795Y-4.126
X4.8386Y-2.437
X4.8425Y-3.7598
X4.874Y-3.7402
X4.9892Y-2.3268
T4
X2.5079Y-1.7913
X2.5669Y-1.7874
X2.626Y-1.7913
X2.6969Y-2.7559
X2.6969Y-2.6339
X2.7008Y-2.2835
X2.7323Y-1.9685
X2.7323Y-2.0236
X2.7323Y-2.0787
X2.7323Y-2.1339
X2.7402Y-2.3386
X2.7402Y-2.4016
X2.7402Y-2.4606
X2.7402Y-2.5197
X2.7402Y-2.5787
X2.748Y-2.9724
X2.7539Y-2.8189
X2.7717Y-2.8976
X2.8898Y-3.8543
X2.9724Y-4.0709
X3.1024Y-3.9882
X3.1535Y-3.9882
X3.2047Y-3.9882
X3.2205Y-3.7913
X3.2559Y-3.8583
X3.3661Y-4.0551
X3.3819Y-3.7283
X3.4961Y-3.9882
X3.5472Y-3.9882
X3.5984Y-3.9882
X3.6378Y-2.3543
X3.6378Y-2.4055
X3.6378Y-2.4567
X3.6378Y-2.5079
X3.6378Y-2.5591
X3.7244Y-2.7677
X3.7244Y-2.9291
X3.7244Y-3.0886
X3.7677Y-1.7913
X3.8268Y-1.7874
X3.8858Y-1.7913
X3.9134Y-2.7677
X3.9134Y-3.0827
X3.9882Y-1.9488
X3.9882Y-2.0039
X3.9882Y-2.0591
X3.9882Y-2.1142
X4.1004Y-2.7677
X4.1004Y-2.9291
X4.1004Y-3.0886
X4.3465Y-2.9724
X4.3465Y-3.0276
X4.3465Y-3.0866
X4.3465Y-3.1417
X4.4016Y-2.9724
X4.4016Y-3.0276
X4.4016Y-3.0866
X4.4016Y-3.1417
X4.5689Y-2.8583
X4.9528Y-4.3622
X5.0118Y-3.7283
X5.0551Y-4.437
X5.063Y-3.7283
X5.1181Y-3.7283
X5.1457Y-4.2657
X5.1457Y-4.3543
X5.1732Y-3.7283
X5.4646Y-3.6654
X5.5079Y-3.2165
X5.5157Y-3.4843
X5.5157Y-3.752
X5.5303Y-3.0031
X5.6378Y-3.7913
X5.6417Y-3.2638
X5.6457Y-3.5354
X5.6496Y-3.0118
X5.7087Y-3.5079
X5.7087Y-3.7677
X5.7165Y-2.9843
X5.7165Y-3.2441
T5
X5.0827Y-2.198
X5.0827Y-2.248
T6
X6.0106Y-2.1112
T7
X3.4055Y-2.1689
X3.4055Y-2.2441
X3.4055Y-2.3193
X4.248Y-2.9016
X4.3465Y-2.9016
X4.6654Y-2.1689
X4.6654Y-2.2441
X4.6654Y-2.3193
X4.252Y-3.2283
X4.3504Y-3.2283
X4.5591Y-4.1496
X4.5591Y-4.248
T8
X5.7449Y-1.7323
X5.8449Y-1.7323
X5.9449Y-1.7323
X5.6449Y-1.7323
X5.5449Y-1.7323
T9
X5.8445Y-4.124
X5.8445Y-4.224
X5.8445Y-3.3386
X5.8445Y-3.4386
X5.8445Y-2.815
X5.8445Y-2.915
X5.8445Y-3.8583
X5.8445Y-3.9583
X5.6811Y-2.0772
X5.6811Y-2.1772
X5.7811Y-2.0772
X5.7811Y-2.1772
X5.2205Y-2.0929
X5.2205Y-2.1929
X5.3205Y-2.0929
X5.3205Y-2.1929
X5.4205Y-2.0929
X5.4205Y-2.1929
X5.8445Y-3.5945
X5.8445Y-3.6945
X3.3661Y-2.9055
X3.563Y-2.9055
X5.8445Y-3.0748
X5.8445Y-3.1748
X4.6929Y-3.2283
X4.6929Y-3.3283
T10
X5.3386Y-2.3425
X5.4386Y-2.3425
X5.2205Y-1.8488
X5.2205Y-1.9488
X5.3205Y-1.8488
X5.3205Y-1.9488
X5.4205Y-1.8488
X5.4205Y-1.9488
X5.876Y-2.563
X5.876Y-2.663
X6.0138Y-2.4626
X6.0138Y-2.5626
X6.0138Y-2.6626
X6.1138Y-2.4626
X6.1138Y-2.5626
X6.1138Y-2.6626
T11
X3.4409Y-4.5276
X3.5909Y-4.5276
X3.0433Y-4.5276
X3.1933Y-4.5276
T13
X2.5591Y-2.8937
X2.5591Y-3.2874
X2.878Y-1.8268
X3.2717Y-1.8268
X4.1378Y-1.8268
X4.5315Y-1.8268
T3
G00X6.1289Y-2.3494
M15
G01X6.1033Y-2.3494
M16
G05
T6
G00X6.0106Y-2.3022
M15
G01X6.0106Y-2.3022
M16
G05
G00X6.125Y-2.064
M15
G01X6.1073Y-2.064
M16
G05
T12
G00X2.563Y-2.126
M15
G01X2.563Y-1.9685
M16
G05
G00X2.563Y-2.5197
M15
G01X2.563Y-2.3622
M16
G05
G00X3.8228Y-2.126
M15
G01X3.8228Y-1.9685
M16
G05
G00X3.8228Y-2.5197
M15
G01X3.8228Y-2.3622
M16
G05
T0
M30
