M48
; DRILL file {KiCad (5.1.5)-3} date 27.2.2020 21.58.51
; FORMAT={-:-/ absolute / inch / decimal}
; #@! TF.CreationDate,2020-02-27T21:58:51+02:00
; #@! TF.GenerationSoftware,Kicad,Pcbnew,(5.1.5)-3
; #@! TF.FileFunction,Plated,1,4,PTH
FMAT,2
INCH
T1C0.0118
T2C0.0157
T3C0.0197
T4C0.0236
T5C0.0256
T6C0.0276
T7C0.0315
T8C0.0315
T9C0.0394
T10C0.0400
T11C0.0472
T12C0.0512
T13C0.0787
T14C0.1575
%
G90
G05
T1
X2.4606Y-3.5433
X2.4606Y-3.937
X2.4606Y-4.3307
X2.6575Y-1.5748
X2.7559Y-4.626
X2.8228Y-2.2165
X2.9528Y-1.5748
X3.0984Y-1.9606
X3.2598Y-1.5315
X3.3268Y-2.252
X3.3465Y-3.5433
X3.3819Y-3.1614
X3.437Y-1.9606
X3.4724Y-1.5354
X3.5039Y-3.3386
X3.5177Y-1.9055
X3.5197Y-1.5846
X3.5433Y-2.1378
X3.5709Y-3.4449
X3.5787Y-3.1575
X3.5984Y-2.0709
X3.7087Y-1.5846
X3.8031Y-4.2717
X3.8543Y-4.6811
X3.8583Y-4.563
X4.0138Y-4.3228
X4.0866Y-2.248
X4.1063Y-3.3425
X4.2362Y-2.5354
X4.3543Y-1.9646
X4.378Y-1.689
X4.4508Y-3.9744
X4.4606Y-4.5591
X4.4606Y-4.6811
X4.498Y-2.8091
X4.5512Y-2.876
X4.5807Y-3.8642
X4.5945Y-3.2165
X4.5945Y-3.6024
X4.6093Y-2.4783
X4.6181Y-2.6772
X4.6811Y-2.1024
X4.6949Y-3.8031
X4.7087Y-4.2894
X4.7165Y-4.3661
X4.7362Y-2.437
X4.7421Y-4.2106
X4.752Y-2.3819
X4.7677Y-2.7087
X4.7717Y-4.2421
X4.7854Y-2.9882
X4.7854Y-3.4902
X4.7888Y-2.0231
X4.7992Y-2.2047
X4.8012Y-1.687
X4.8031Y-4.0492
X4.8051Y-3.0433
X4.8248Y-2.7697
X4.8268Y-2.5866
X4.8307Y-2.7165
X4.8326Y-2.4011
X4.8346Y-2.5039
X4.8484Y-1.6319
X4.8591Y-2.6969
X4.874Y-3.1594
X4.874Y-3.2874
X4.874Y-3.8661
X4.876Y-4.0512
X4.8819Y-2.8228
X4.8819Y-3.752
X4.8937Y-2.2323
X4.8957Y-2.0276
X4.8976Y-2.878
X4.9024Y-2.9764
X4.9154Y-2.7303
X4.9409Y-2.6654
X4.9449Y-1.878
X4.9528Y-2.3268
X4.9567Y-3.6201
X4.9626Y-3.5295
X4.9636Y-2.437
X4.9675Y-2.5396
X4.9681Y-2.5945
X4.9681Y-2.6407
X4.9685Y-3.5866
X4.9803Y-1.75
X4.9961Y-1.9882
X4.998Y-2.8976
X5.0167Y-2.4378
X5.0197Y-1.5748
X5.0236Y-2.6102
X5.0423Y-2.1614
X5.0433Y-2.5394
X5.0612Y-2.8955
X5.0669Y-2.9626
X5.0698Y-2.5598
X5.0866Y-3.4508
X5.0925Y-3.5453
X5.0984Y-1.9882
X5.0984Y-2.5394
X5.0984Y-3.0354
X5.126Y-2.6752
X5.1293Y-2.4656
X5.1457Y-2.2283
X5.1772Y-2.4705
X5.2008Y-2.374
X5.2165Y-4.626
X5.2189Y-2.7461
X5.2205Y-4.0
X5.2244Y-2.2913
X5.2323Y-2.7126
X5.2323Y-3.2953
X5.248Y-3.8504
X5.2804Y-2.4718
X5.2835Y-3.2835
X5.2874Y-3.6083
X5.315Y-2.4724
X5.3159Y-3.6258
X5.3189Y-4.0748
X5.3307Y-2.7913
X5.3346Y-2.6575
X5.3377Y-3.6512
X5.3484Y-4.128
X5.3504Y-4.1969
X5.3583Y-3.4921
X5.3898Y-3.7992
X5.3898Y-3.9764
X5.3937Y-2.6693
X5.3937Y-2.9055
X5.3976Y-3.4252
X5.4016Y-3.2165
X5.4134Y-1.5748
X5.4242Y-3.1378
X5.4242Y-3.2598
X5.4449Y-1.752
X5.4567Y-3.5571
X5.4685Y-3.4488
X5.4823Y-2.8071
X5.4862Y-2.4537
X5.5Y-2.626
X5.5118Y-2.8898
X5.5276Y-1.9528
X5.5827Y-2.311
X5.5866Y-2.4843
X5.6024Y-2.1014
X5.626Y-2.748
X5.6535Y-2.3386
X5.6654Y-2.6929
X5.6929Y-2.378
X5.7047Y-3.1142
X5.7047Y-3.3819
X5.7087Y-1.5748
X5.7126Y-3.6378
X5.7165Y-2.8465
X5.8071Y-4.626
X5.8425Y-2.3583
X5.9055Y-2.2638
X5.9134Y-1.9449
X6.0039Y-1.5748
X6.0118Y-1.8189
X6.2008Y-2.8543
X6.2008Y-3.3465
X6.2008Y-3.8386
X6.2008Y-4.3307
X6.2283Y-1.811
X6.2362Y-2.7283
T2
X2.4055Y-3.1299
X2.8504Y-3.6181
X2.9409Y-2.7638
X2.9449Y-4.2677
X3.1457Y-3.0945
X3.3504Y-2.7874
X3.563Y-3.5236
X3.5728Y-2.248
X3.7323Y-3.626
X3.7323Y-3.6693
X3.7323Y-3.7047
X3.7323Y-3.7441
X3.7598Y-3.7913
X3.8031Y-3.7913
X3.8504Y-3.7913
X4.6004Y-3.0394
X4.7224Y-2.8543
X4.8386Y-2.437
X4.9892Y-2.3268
X5.0945Y-3.7244
T4
X2.5079Y-1.7913
X2.5669Y-1.7874
X2.626Y-1.7913
X2.6496Y-2.7165
X2.6969Y-2.6339
X2.7008Y-2.2835
X2.7126Y-2.752
X2.7323Y-1.9685
X2.7323Y-2.0236
X2.7323Y-2.0787
X2.7323Y-2.1339
X2.7402Y-2.3386
X2.7402Y-2.4016
X2.7402Y-2.4606
X2.7402Y-2.5197
X2.7402Y-2.5787
X2.748Y-2.9724
X2.7559Y-2.8346
X2.8366Y-2.311
X2.8898Y-3.7992
X2.9724Y-4.0157
X3.0945Y-2.6831
X3.1024Y-3.9331
X3.1535Y-3.9331
X3.2047Y-3.9331
X3.2205Y-3.7362
X3.2559Y-3.8031
X3.3661Y-4.0
X3.3819Y-3.7283
X3.3839Y-2.4272
X3.4961Y-3.9331
X3.5472Y-3.9331
X3.5748Y-2.7441
X3.5984Y-3.9331
X3.6378Y-2.3543
X3.6378Y-2.4055
X3.6378Y-2.4567
X3.6378Y-2.5079
X3.6378Y-2.5591
X3.7244Y-2.7677
X3.7244Y-2.9291
X3.7244Y-3.0886
X3.7677Y-1.7913
X3.8268Y-1.7874
X3.8858Y-1.7913
X3.9134Y-2.7677
X3.9134Y-3.0827
X3.9882Y-1.9488
X3.9882Y-2.0039
X3.9882Y-2.0591
X3.9882Y-2.1142
X4.1004Y-2.7677
X4.1004Y-2.9291
X4.1004Y-3.0886
X4.3504Y-2.8228
X4.3504Y-2.9016
X4.3504Y-2.9921
X4.3504Y-3.1496
X4.4094Y-2.8248
X4.4094Y-2.9016
X4.4094Y-2.9921
X4.4094Y-3.1496
X4.6102Y-2.8169
X4.9528Y-4.4862
X5.0118Y-3.8524
X5.0551Y-4.561
X5.063Y-3.8524
X5.1181Y-3.8524
X5.1457Y-4.3898
X5.1457Y-4.4783
X5.5079Y-3.2165
X5.5157Y-3.4843
X5.5157Y-3.752
X5.5303Y-3.0031
X5.6378Y-3.7913
X5.6417Y-3.2638
X5.6457Y-3.5354
X5.6496Y-3.0118
X5.7087Y-3.5079
X5.7087Y-3.7677
X5.7165Y-2.9843
X5.7165Y-3.2441
T5
X5.0827Y-2.198
X5.0827Y-2.248
T6
X6.0106Y-2.1112
T7
X3.4055Y-2.1689
X3.4055Y-2.2441
X3.4055Y-2.3193
X4.3504Y-3.0709
X4.6654Y-2.1689
X4.6654Y-2.2441
X4.6654Y-2.3193
X4.5551Y-4.1654
X4.5551Y-4.2638
X4.248Y-2.7165
X4.3465Y-2.7165
X4.252Y-3.0709
T8
X5.9449Y-1.7323
X5.8449Y-1.7323
X5.6449Y-1.7323
X5.5449Y-1.7323
X5.7449Y-1.7323
T9
X5.2205Y-2.0929
X5.2205Y-2.1929
X5.3205Y-2.0929
X5.3205Y-2.1929
X5.4205Y-2.0929
X5.4205Y-2.1929
X3.3661Y-2.9055
X3.563Y-2.9055
X5.3386Y-2.3425
X5.4386Y-2.3425
X5.8701Y-2.563
X5.8701Y-2.663
X4.8091Y-3.2185
X4.8091Y-3.3185
X5.6811Y-2.0772
X5.6811Y-2.1772
X5.7811Y-2.0772
X5.7811Y-2.1772
T10
X6.0138Y-2.4626
X6.0138Y-2.5626
X6.0138Y-2.6626
X6.1138Y-2.4626
X6.1138Y-2.5626
X6.1138Y-2.6626
X5.2205Y-1.8488
X5.2205Y-1.9488
X5.3205Y-1.8488
X5.3205Y-1.9488
X5.4205Y-1.8488
X5.4205Y-1.9488
T11
X5.8976Y-4.124
X5.8976Y-4.224
X5.8976Y-2.811
X5.8976Y-2.911
X5.8976Y-3.5945
X5.8976Y-3.6945
X5.8976Y-3.8583
X5.8976Y-3.9583
X5.8976Y-3.3386
X5.8976Y-3.4386
X5.8976Y-3.0732
X5.8976Y-3.1732
T12
X3.0Y-4.4724
X3.1969Y-4.4724
X3.3937Y-4.4724
X3.5906Y-4.4724
T14
X2.5591Y-2.8937
X2.5591Y-3.2874
X2.878Y-1.8268
X3.2717Y-1.8268
X4.1378Y-1.8268
X4.5315Y-1.8268
T3
G00X6.1289Y-2.3494
M15
G01X6.1033Y-2.3494
M16
G05
T6
G00X6.0106Y-2.3022
M15
G01X6.0106Y-2.3022
M16
G05
G00X6.125Y-2.064
M15
G01X6.1073Y-2.064
M16
G05
T13
G00X2.563Y-2.126
M15
G01X2.563Y-1.9685
M16
G05
G00X2.563Y-2.5197
M15
G01X2.563Y-2.3622
M16
G05
G00X3.8228Y-2.126
M15
G01X3.8228Y-1.9685
M16
G05
G00X3.8228Y-2.5197
M15
G01X3.8228Y-2.3622
M16
G05
T0
M30
