M48
METRIC,TZ
T1C0.300
T2C0.400
T3C0.500
T4C0.600
T5C0.650
T6C0.700
T7C0.800
T8C0.800
T9C1.000
T10C1.016
T11C1.200
T12C2.000
T13C4.000
%
G90
G05
T1
X77600Y-74450
X87300Y-49800
X89350Y-48400
X89400Y-40250
X89900Y-54400
X91000Y-52850
X91150Y-44900
X94200Y-40250
X101900Y-108400
X111400Y-69100
X117400Y-67560
X118010Y-68500
X120550Y-89700
X120650Y-86100
X121150Y-88100
X121600Y-79700
X121636Y-51386
X121650Y-48400
X121950Y-42850
X121960Y-67450
X122100Y-56800
X122700Y-63200
X122740Y-93010
X122780Y-92100
X122870Y-66120
X122911Y-65271
X123060Y-94105
X123150Y-41450
X123300Y-101900
X123600Y-54900
X123810Y-71380
X123850Y-47300
X124200Y-74800
X124900Y-98900
X125500Y-67700
X125500Y-71100
X125630Y-63510
X125800Y-59100
X125820Y-93740
X126075Y-61900
X126500Y-44450
X126500Y-86400
X126600Y-75700
X127300Y-73800
X127425Y-61920
X128100Y-64500
X128400Y-79500
X128600Y-81800
X129440Y-75740
X129481Y-67019
X129524Y-61966
X129700Y-51500
X129700Y-74700
X130100Y-58519
X130440Y-67060
X130600Y-87750
X131000Y-70700
X131250Y-64100
X131263Y-65032
X131456Y-63272
X132975Y-74000
X133000Y-69350
X133650Y-74750
X133817Y-75583
X133900Y-81500
X134500Y-79990
X134500Y-62800
X134500Y-67200
X134594Y-69350
X134900Y-76500
X135900Y-66000
X136000Y-62800
X136100Y-65100
X139000Y-69500
X139250Y-45125
X139600Y-72700
X141800Y-62700
X146007Y-65441
X148900Y-61900
X150150Y-57638
T2
X61100Y-79500
X70500Y-77100
X72000Y-78700
X74700Y-70200
X74800Y-109800
X84000Y-81800
X85100Y-70800
X86320Y-86490
X90700Y-73300
X90750Y-57100
X93300Y-101400
X93600Y-84250
X104450Y-83550
X108100Y-104000
X116850Y-77200
X117400Y-62800
X119800Y-73200
X120900Y-101500
X120900Y-102400
X121800Y-101900
X122900Y-61900
X123000Y-95500
X123800Y-95000
X126725Y-59100
T4
X73400Y-97900
X75500Y-103400
X78800Y-101300
X80100Y-101300
X81400Y-101300
X81800Y-96300
X82700Y-98000
X85500Y-103000
X85900Y-94700
X88800Y-101300
X90100Y-101300
X91400Y-101300
X94600Y-70300
X94600Y-74400
X94600Y-78450
X99400Y-70300
X99400Y-78300
X103700Y-106900
X104150Y-70300
X104150Y-74400
X104150Y-78450
X106100Y-110000
X108100Y-109800
X110400Y-75500
X110400Y-76900
X110400Y-78400
X110400Y-79800
X111800Y-75500
X111800Y-76900
X111800Y-78400
X111800Y-79800
X112100Y-108400
X116050Y-72600
X126400Y-108550
X126400Y-110600
X127300Y-94700
X128600Y-94700
X130000Y-94700
X130700Y-108350
X130700Y-110600
X131400Y-94700
X139800Y-101700
X139900Y-81700
X139900Y-108300
X140100Y-88500
X140200Y-94800
X140470Y-76280
X143100Y-102900
X143200Y-96300
X143300Y-82900
X143300Y-109800
X143400Y-89800
X143500Y-76500
X145000Y-89100
X145000Y-95800
X145000Y-102500
X145200Y-75800
X145200Y-82400
X145400Y-109000
T5
X127000Y-51300
X128270Y-51300
X149700Y-48100
X150970Y-48100
X129100Y-55830
X129100Y-57100
T6
X152670Y-53625
T7
X88300Y-76800
X90800Y-76800
X108000Y-82000
X110500Y-82000
X86500Y-55090
X86500Y-57000
X86500Y-58910
X107900Y-73700
X110400Y-73700
X118500Y-55090
X118500Y-57000
X118500Y-58910
X114800Y-105450
X117300Y-105450
T8
X143380Y-44000
X151000Y-44000
X148460Y-44000
X140840Y-44000
X145920Y-44000
T9
X148450Y-78100
X148450Y-80640
X148450Y-71500
X148450Y-74040
X148450Y-91310
X148450Y-93850
X148450Y-98050
X148450Y-100590
X148450Y-104750
X148450Y-107290
X148450Y-84800
X148450Y-87340
X119200Y-82000
X119200Y-84540
T10
X152750Y-62550
X152750Y-65090
X152750Y-67630
X155290Y-62550
X155290Y-65090
X155290Y-67630
X149250Y-65100
X149250Y-67640
X132600Y-47310
X132600Y-49850
X135140Y-47310
X135140Y-49850
X137680Y-47310
X137680Y-49850
X135760Y-59400
X138300Y-59400
X137480Y-67350
X140020Y-67350
X142560Y-67350
X145100Y-67350
X132600Y-53160
X132600Y-55700
X135140Y-53160
X135140Y-55700
X137680Y-53160
X137680Y-55700
X140220Y-53160
X140220Y-55700
X142760Y-53160
X142760Y-55700
X145300Y-53160
X145300Y-55700
T11
X87400Y-115000
X91210Y-115000
X77300Y-115000
X81110Y-115000
T13
X105100Y-46400
X115100Y-46400
X73100Y-46400
X83100Y-46400
X65000Y-73500
X65000Y-83500
T3
X155675Y-59675G85X155025Y-59675
G05
T6
X152670Y-58475G85X152670Y-58475
G05
X155575Y-52425G85X155125Y-52425
G05
T12
X65100Y-54000G85X65100Y-50000
G05
X65100Y-64000G85X65100Y-60000
G05
X97100Y-54000G85X97100Y-50000
G05
X97100Y-64000G85X97100Y-60000
G05
T0
M30
