G04 #@! TF.GenerationSoftware,KiCad,Pcbnew,(5.0.0)*
G04 #@! TF.CreationDate,2019-05-27T20:41:17+03:00*
G04 #@! TF.ProjectId,Telemetry,54656C656D657472792E6B696361645F,rev?*
G04 #@! TF.SameCoordinates,Original*
G04 #@! TF.FileFunction,Paste,Top*
G04 #@! TF.FilePolarity,Positive*
%FSLAX46Y46*%
G04 Gerber Fmt 4.6, Leading zero omitted, Abs format (unit mm)*
G04 Created by KiCad (PCBNEW (5.0.0)) date 05/27/19 20:41:17*
%MOMM*%
%LPD*%
G01*
G04 APERTURE LIST*
%ADD10R,1.400000X1.200000*%
%ADD11R,2.000000X0.400000*%
%ADD12R,0.750000X1.200000*%
%ADD13R,1.200000X0.900000*%
%ADD14R,0.900000X1.200000*%
%ADD15R,1.300000X0.600000*%
%ADD16R,1.560000X0.650000*%
%ADD17R,1.000000X1.250000*%
%ADD18R,0.650000X1.560000*%
%ADD19R,3.500000X1.800000*%
%ADD20R,1.200000X0.750000*%
%ADD21R,0.800000X0.750000*%
%ADD22R,1.250000X1.000000*%
%ADD23R,0.250000X1.300000*%
%ADD24R,1.300000X0.250000*%
%ADD25R,5.250000X4.550000*%
%ADD26R,1.100000X4.600000*%
%ADD27R,1.500000X1.250000*%
%ADD28R,0.700000X1.200000*%
%ADD29R,4.500000X4.290000*%
%ADD30R,1.550000X1.600000*%
%ADD31R,1.550000X1.200000*%
%ADD32R,2.700000X0.800000*%
%ADD33R,3.600000X5.400000*%
%ADD34R,1.800000X3.500000*%
%ADD35R,0.650000X1.700000*%
%ADD36R,0.600000X0.400000*%
G04 APERTURE END LIST*
D10*
G04 #@! TO.C,X101*
X121610000Y-66110000D03*
X119210000Y-66110000D03*
X121610000Y-64210000D03*
X119210000Y-64210000D03*
G04 #@! TD*
D11*
G04 #@! TO.C,J105*
X151950000Y-54750000D03*
X151937460Y-55400900D03*
X151937460Y-56050900D03*
X151937460Y-56700900D03*
X151937460Y-57350900D03*
G04 #@! TD*
D12*
G04 #@! TO.C,C106*
X128400000Y-78150000D03*
X128400000Y-76250000D03*
G04 #@! TD*
D13*
G04 #@! TO.C,R103*
X122200000Y-73500000D03*
X124400000Y-73500000D03*
G04 #@! TD*
G04 #@! TO.C,D101*
X121700000Y-72000000D03*
X119500000Y-72000000D03*
G04 #@! TD*
D14*
G04 #@! TO.C,R214*
X82400000Y-80200000D03*
X82400000Y-78000000D03*
G04 #@! TD*
D13*
G04 #@! TO.C,R213*
X79900000Y-82300000D03*
X77700000Y-82300000D03*
G04 #@! TD*
G04 #@! TO.C,R212*
X84500000Y-86300000D03*
X82300000Y-86300000D03*
G04 #@! TD*
G04 #@! TO.C,R211*
X101900000Y-105400000D03*
X99700000Y-105400000D03*
G04 #@! TD*
G04 #@! TO.C,R210*
X103900000Y-108400000D03*
X106100000Y-108400000D03*
G04 #@! TD*
D15*
G04 #@! TO.C,Q407*
X145600000Y-107250000D03*
X143500000Y-108200000D03*
X143500000Y-106300000D03*
G04 #@! TD*
G04 #@! TO.C,Q406*
X143500000Y-99700000D03*
X143500000Y-101600000D03*
X145600000Y-100650000D03*
G04 #@! TD*
G04 #@! TO.C,Q405*
X143500000Y-92900000D03*
X143500000Y-94800000D03*
X145600000Y-93850000D03*
G04 #@! TD*
G04 #@! TO.C,Q403*
X145500000Y-87400000D03*
X143400000Y-88350000D03*
X143400000Y-86450000D03*
G04 #@! TD*
G04 #@! TO.C,Q402*
X145550000Y-80650000D03*
X143450000Y-81600000D03*
X143450000Y-79700000D03*
G04 #@! TD*
G04 #@! TO.C,Q401*
X143450000Y-73100000D03*
X143450000Y-75000000D03*
X145550000Y-74050000D03*
G04 #@! TD*
G04 #@! TO.C,Q204*
X82350000Y-82250000D03*
X82350000Y-84150000D03*
X84450000Y-83200000D03*
G04 #@! TD*
G04 #@! TO.C,Q203*
X86750000Y-83250000D03*
X86750000Y-85150000D03*
X88850000Y-84200000D03*
G04 #@! TD*
G04 #@! TO.C,Q202*
X104050000Y-105400000D03*
X106150000Y-104450000D03*
X106150000Y-106350000D03*
G04 #@! TD*
G04 #@! TO.C,Q201*
X107950000Y-105400000D03*
X110050000Y-104450000D03*
X110050000Y-106350000D03*
G04 #@! TD*
D16*
G04 #@! TO.C,U301*
X115400000Y-76250000D03*
X115400000Y-77200000D03*
X115400000Y-78150000D03*
X118100000Y-78150000D03*
X118100000Y-76250000D03*
G04 #@! TD*
D17*
G04 #@! TO.C,C309*
X116800000Y-74350000D03*
X118800000Y-74350000D03*
G04 #@! TD*
D12*
G04 #@! TO.C,C302*
X119900000Y-79250000D03*
X119900000Y-77350000D03*
G04 #@! TD*
D14*
G04 #@! TO.C,R307*
X120500000Y-52650000D03*
X120500000Y-54850000D03*
G04 #@! TD*
G04 #@! TO.C,R305*
X88350000Y-52800000D03*
X88350000Y-50600000D03*
G04 #@! TD*
G04 #@! TO.C,R308*
X122150000Y-52650000D03*
X122150000Y-54850000D03*
G04 #@! TD*
G04 #@! TO.C,R306*
X89850000Y-52800000D03*
X89850000Y-50600000D03*
G04 #@! TD*
D16*
G04 #@! TO.C,U305*
X125150000Y-44200000D03*
X125150000Y-46100000D03*
X122450000Y-46100000D03*
X122450000Y-45150000D03*
X122450000Y-44200000D03*
G04 #@! TD*
G04 #@! TO.C,U303*
X92600000Y-41900000D03*
X92600000Y-43800000D03*
X89900000Y-43800000D03*
X89900000Y-42850000D03*
X89900000Y-41900000D03*
G04 #@! TD*
D18*
G04 #@! TO.C,U202*
X123400000Y-103250000D03*
X124350000Y-103250000D03*
X122450000Y-103250000D03*
X122450000Y-100550000D03*
X123400000Y-100550000D03*
X124350000Y-100550000D03*
G04 #@! TD*
D14*
G04 #@! TO.C,R415*
X141650000Y-106150000D03*
X141650000Y-108350000D03*
G04 #@! TD*
G04 #@! TO.C,R414*
X141650000Y-99550000D03*
X141650000Y-101750000D03*
G04 #@! TD*
G04 #@! TO.C,R413*
X141750000Y-92650000D03*
X141750000Y-94850000D03*
G04 #@! TD*
D13*
G04 #@! TO.C,R411*
X139450000Y-104250000D03*
X141650000Y-104250000D03*
G04 #@! TD*
G04 #@! TO.C,R410*
X139450000Y-97750000D03*
X141650000Y-97750000D03*
G04 #@! TD*
G04 #@! TO.C,R409*
X139550000Y-90750000D03*
X141750000Y-90750000D03*
G04 #@! TD*
D14*
G04 #@! TO.C,R407*
X141750000Y-86300000D03*
X141750000Y-88500000D03*
G04 #@! TD*
G04 #@! TO.C,R406*
X141700000Y-79500000D03*
X141700000Y-81700000D03*
G04 #@! TD*
G04 #@! TO.C,R405*
X141750000Y-72950000D03*
X141750000Y-75150000D03*
G04 #@! TD*
D13*
G04 #@! TO.C,R404*
X139400000Y-84500000D03*
X141600000Y-84500000D03*
G04 #@! TD*
G04 #@! TO.C,R403*
X139500000Y-77700000D03*
X141700000Y-77700000D03*
G04 #@! TD*
G04 #@! TO.C,R402*
X139550000Y-71150000D03*
X141750000Y-71150000D03*
G04 #@! TD*
D14*
G04 #@! TO.C,R304*
X120300000Y-48350000D03*
X120300000Y-46150000D03*
G04 #@! TD*
G04 #@! TO.C,R303*
X120300000Y-43600000D03*
X120300000Y-41400000D03*
G04 #@! TD*
G04 #@! TO.C,R302*
X87950000Y-48300000D03*
X87950000Y-46100000D03*
G04 #@! TD*
G04 #@! TO.C,R301*
X87950000Y-43850000D03*
X87950000Y-41650000D03*
G04 #@! TD*
D13*
G04 #@! TO.C,R209*
X110300000Y-108400000D03*
X108100000Y-108400000D03*
G04 #@! TD*
G04 #@! TO.C,R208*
X123400000Y-98600000D03*
X121200000Y-98600000D03*
G04 #@! TD*
G04 #@! TO.C,R207*
X121200000Y-97000000D03*
X123400000Y-97000000D03*
G04 #@! TD*
G04 #@! TO.C,R206*
X123400000Y-105150000D03*
X121200000Y-105150000D03*
G04 #@! TD*
D14*
G04 #@! TO.C,R205*
X77900000Y-78300000D03*
X77900000Y-76100000D03*
G04 #@! TD*
D13*
G04 #@! TO.C,R204*
X105750000Y-87900000D03*
X107950000Y-87900000D03*
G04 #@! TD*
G04 #@! TO.C,R203*
X73600000Y-74450000D03*
X71400000Y-74450000D03*
G04 #@! TD*
G04 #@! TO.C,R202*
X110100000Y-87900000D03*
X112300000Y-87900000D03*
G04 #@! TD*
D14*
G04 #@! TO.C,R201*
X92450000Y-81950000D03*
X92450000Y-84150000D03*
G04 #@! TD*
D13*
G04 #@! TO.C,R102*
X126800000Y-53700000D03*
X129000000Y-53700000D03*
G04 #@! TD*
G04 #@! TO.C,R101*
X129900000Y-48700000D03*
X127700000Y-48700000D03*
G04 #@! TD*
D19*
G04 #@! TO.C,D202*
X91400000Y-88400000D03*
X96400000Y-88400000D03*
G04 #@! TD*
D20*
G04 #@! TO.C,C307*
X125150000Y-42600000D03*
X123250000Y-42600000D03*
G04 #@! TD*
D12*
G04 #@! TO.C,C306*
X89450000Y-58900000D03*
X89450000Y-57000000D03*
G04 #@! TD*
D20*
G04 #@! TO.C,C304*
X92600000Y-40250000D03*
X90700000Y-40250000D03*
G04 #@! TD*
D12*
G04 #@! TO.C,C303*
X120850000Y-58900000D03*
X120850000Y-57000000D03*
G04 #@! TD*
D21*
G04 #@! TO.C,C301*
X116600000Y-79750000D03*
X115100000Y-79750000D03*
G04 #@! TD*
D22*
G04 #@! TO.C,C206*
X125450000Y-95050000D03*
X125450000Y-97050000D03*
G04 #@! TD*
G04 #@! TO.C,C205*
X125200000Y-107150000D03*
X125200000Y-105150000D03*
G04 #@! TD*
D12*
G04 #@! TO.C,C203*
X126000000Y-100200000D03*
X126000000Y-102100000D03*
G04 #@! TD*
D20*
G04 #@! TO.C,C105*
X119330000Y-68770000D03*
X121230000Y-68770000D03*
G04 #@! TD*
D12*
G04 #@! TO.C,C104*
X126700000Y-55700000D03*
X126700000Y-57600000D03*
G04 #@! TD*
D20*
G04 #@! TO.C,C103*
X136850000Y-70500000D03*
X134950000Y-70500000D03*
G04 #@! TD*
G04 #@! TO.C,C102*
X140250000Y-62700000D03*
X138350000Y-62700000D03*
G04 #@! TD*
D12*
G04 #@! TO.C,C101*
X117400000Y-66350000D03*
X117400000Y-64450000D03*
G04 #@! TD*
D23*
G04 #@! TO.C,U101*
X125750000Y-60650000D03*
X126250000Y-60650000D03*
X126750000Y-60650000D03*
X127250000Y-60650000D03*
X127750000Y-60650000D03*
X128250000Y-60650000D03*
X128750000Y-60650000D03*
X129250000Y-60650000D03*
X129750000Y-60650000D03*
X130250000Y-60650000D03*
X130750000Y-60650000D03*
X131250000Y-60650000D03*
D24*
X132850000Y-62250000D03*
X132850000Y-62750000D03*
X132850000Y-63250000D03*
X132850000Y-63750000D03*
X132850000Y-64250000D03*
X132850000Y-64750000D03*
X132850000Y-65250000D03*
X132850000Y-65750000D03*
X132850000Y-66250000D03*
X132850000Y-66750000D03*
X132850000Y-67250000D03*
X132850000Y-67750000D03*
D23*
X131250000Y-69350000D03*
X130750000Y-69350000D03*
X130250000Y-69350000D03*
X129750000Y-69350000D03*
X129250000Y-69350000D03*
X128750000Y-69350000D03*
X128250000Y-69350000D03*
X127750000Y-69350000D03*
X127250000Y-69350000D03*
X126750000Y-69350000D03*
X126250000Y-69350000D03*
X125750000Y-69350000D03*
D24*
X124150000Y-67750000D03*
X124150000Y-67250000D03*
X124150000Y-66750000D03*
X124150000Y-66250000D03*
X124150000Y-65750000D03*
X124150000Y-65250000D03*
X124150000Y-64750000D03*
X124150000Y-64250000D03*
X124150000Y-63750000D03*
X124150000Y-63250000D03*
X124150000Y-62750000D03*
X124150000Y-62250000D03*
G04 #@! TD*
D25*
G04 #@! TO.C,U201*
X102150000Y-76800000D03*
X96600000Y-71950000D03*
X96600000Y-76800000D03*
X102150000Y-71950000D03*
D26*
X102775000Y-83525000D03*
X101075000Y-83525000D03*
X99375000Y-83525000D03*
X97675000Y-83525000D03*
X95975000Y-83525000D03*
G04 #@! TD*
D27*
G04 #@! TO.C,C401*
X74050000Y-96300000D03*
X76550000Y-96300000D03*
G04 #@! TD*
G04 #@! TO.C,C402*
X86350000Y-96400000D03*
X83850000Y-96400000D03*
G04 #@! TD*
D18*
G04 #@! TO.C,U401*
X77450000Y-101050000D03*
X75550000Y-101050000D03*
X75550000Y-98350000D03*
X76500000Y-98350000D03*
X77450000Y-98350000D03*
G04 #@! TD*
G04 #@! TO.C,U402*
X87400000Y-98500000D03*
X86450000Y-98500000D03*
X85500000Y-98500000D03*
X85500000Y-101200000D03*
X87400000Y-101200000D03*
G04 #@! TD*
D28*
G04 #@! TO.C,Q404*
X81210000Y-103100000D03*
X79940000Y-103100000D03*
X78660000Y-103100000D03*
X77390000Y-103100000D03*
X77390000Y-108900000D03*
X78660000Y-108900000D03*
X79940000Y-108900000D03*
X81210000Y-108900000D03*
D29*
X79300000Y-106500000D03*
D30*
X80390000Y-107250000D03*
X78210000Y-107250000D03*
D31*
X80390000Y-105250000D03*
X78210000Y-105250000D03*
G04 #@! TD*
G04 #@! TO.C,Q408*
X88210000Y-105450000D03*
X90390000Y-105450000D03*
D30*
X88210000Y-107450000D03*
X90390000Y-107450000D03*
D29*
X89300000Y-106700000D03*
D28*
X91210000Y-109100000D03*
X89940000Y-109100000D03*
X88660000Y-109100000D03*
X87390000Y-109100000D03*
X87390000Y-103300000D03*
X88660000Y-103300000D03*
X89940000Y-103300000D03*
X91210000Y-103300000D03*
G04 #@! TD*
D20*
G04 #@! TO.C,C403*
X127200000Y-87750000D03*
X129100000Y-87750000D03*
G04 #@! TD*
D12*
G04 #@! TO.C,C404*
X119200000Y-87400000D03*
X119200000Y-89300000D03*
G04 #@! TD*
G04 #@! TO.C,C405*
X121900000Y-85400000D03*
X121900000Y-83500000D03*
G04 #@! TD*
D13*
G04 #@! TO.C,R401*
X118900000Y-91000000D03*
X121100000Y-91000000D03*
G04 #@! TD*
G04 #@! TO.C,R408*
X124000000Y-84800000D03*
X126200000Y-84800000D03*
G04 #@! TD*
D16*
G04 #@! TO.C,U403*
X126200000Y-92850000D03*
X126200000Y-91900000D03*
X126200000Y-90950000D03*
X123500000Y-90950000D03*
X123500000Y-92850000D03*
X123500000Y-91900000D03*
G04 #@! TD*
G04 #@! TO.C,U404*
X122450000Y-87150000D03*
X122450000Y-88100000D03*
X122450000Y-89050000D03*
X125150000Y-89050000D03*
X125150000Y-87150000D03*
G04 #@! TD*
D32*
G04 #@! TO.C,L201*
X128500000Y-102100000D03*
X128500000Y-99900000D03*
G04 #@! TD*
D33*
G04 #@! TO.C,L202*
X100850000Y-95350000D03*
X111450000Y-95350000D03*
G04 #@! TD*
D12*
G04 #@! TO.C,C406*
X128150000Y-92850000D03*
X128150000Y-90950000D03*
G04 #@! TD*
D34*
G04 #@! TO.C,D201*
X128450000Y-104900000D03*
X128450000Y-109900000D03*
G04 #@! TD*
D35*
G04 #@! TO.C,U102*
X130110000Y-84990000D03*
X131380000Y-84990000D03*
X132650000Y-84990000D03*
X133920000Y-84990000D03*
X133920000Y-77690000D03*
X132650000Y-77690000D03*
X131380000Y-77690000D03*
X130110000Y-77690000D03*
G04 #@! TD*
D36*
G04 #@! TO.C,R412*
X121560000Y-93080000D03*
X121560000Y-92180000D03*
G04 #@! TD*
M02*
