%TF.GenerationSoftware,KiCad,Pcbnew,(5.0.0)*%
%TF.CreationDate,2019-06-24T20:52:01+03:00*%
%TF.ProjectId,Telemetry,54656C656D657472792E6B696361645F,0.1*%
%TF.SameCoordinates,Original*%
%TF.FileFunction,Legend,Bot*%
%TF.FilePolarity,Positive*%
%FSLAX46Y46*%
G04 Gerber Fmt 4.6, Leading zero omitted, Abs format (unit mm)*
G04 Created by KiCad (PCBNEW (5.0.0)) date 06/24/19 20:52:01*
%MOMM*%
%LPD*%
G01*
G04 APERTURE LIST*
%ADD10C,0.300000*%
%ADD11C,0.400000*%
%ADD12C,0.500000*%
%ADD13O,1.670000X1.120000*%
%ADD14O,1.070000X1.370000*%
%ADD15C,8.160000*%
%ADD16R,1.120000X1.120000*%
%ADD17O,1.120000X1.120000*%
%ADD18C,1.660000*%
%ADD19R,1.660000X1.660000*%
%ADD20R,1.200000X1.200000*%
%ADD21O,1.200000X1.200000*%
%ADD22R,2.392000X2.392000*%
%ADD23O,2.392000X2.392000*%
%ADD24O,2.060000X2.060000*%
%ADD25R,2.060000X2.060000*%
%ADD26R,2.160000X3.960000*%
%ADD27O,2.160000X3.960000*%
%ADD28C,1.860000*%
%ADD29O,6.360000X10.360000*%
%ADD30O,2.087200X2.392000*%
%ADD31R,2.087200X2.392000*%
%ADD32R,11.120000X9.520000*%
%ADD33R,2.087200X2.087200*%
%ADD34O,2.087200X2.087200*%
%ADD35C,3.560000*%
%ADD36C,2.358980*%
%ADD37R,1.360000X1.360000*%
%ADD38O,1.360000X1.360000*%
%ADD39C,1.560000*%
%ADD40C,1.160000*%
%ADD41C,1.010000*%
G04 APERTURE END LIST*
D10*
X152228571Y-107367857D02*
X153371428Y-107367857D01*
X152800000Y-106796428D02*
X152800000Y-107939285D01*
X152228571Y-104817857D02*
X153371428Y-104817857D01*
X152228571Y-100567857D02*
X153371428Y-100567857D01*
X152800000Y-99996428D02*
X152800000Y-101139285D01*
X152228571Y-98017857D02*
X153371428Y-98017857D01*
X153371428Y-91432142D02*
X152228571Y-91432142D01*
X152800000Y-92003571D02*
X152800000Y-90860714D01*
X153371428Y-93982142D02*
X152228571Y-93982142D01*
X153371428Y-84832142D02*
X152228571Y-84832142D01*
X152800000Y-85403571D02*
X152800000Y-84260714D01*
X153371428Y-87382142D02*
X152228571Y-87382142D01*
X153371428Y-78132142D02*
X152228571Y-78132142D01*
X152800000Y-78703571D02*
X152800000Y-77560714D01*
X153371428Y-80682142D02*
X152228571Y-80682142D01*
X153371428Y-71532142D02*
X152228571Y-71532142D01*
X152800000Y-72103571D02*
X152800000Y-70960714D01*
X153371428Y-74082142D02*
X152228571Y-74082142D01*
X112528571Y-52403571D02*
X113242857Y-52403571D01*
X113242857Y-50903571D01*
X111742857Y-50903571D02*
X111457142Y-50903571D01*
X111314285Y-50975000D01*
X111171428Y-51117857D01*
X111100000Y-51403571D01*
X111100000Y-51903571D01*
X111171428Y-52189285D01*
X111314285Y-52332142D01*
X111457142Y-52403571D01*
X111742857Y-52403571D01*
X111885714Y-52332142D01*
X112028571Y-52189285D01*
X112100000Y-51903571D01*
X112100000Y-51403571D01*
X112028571Y-51117857D01*
X111885714Y-50975000D01*
X111742857Y-50903571D01*
X110528571Y-51975000D02*
X109814285Y-51975000D01*
X110671428Y-52403571D02*
X110171428Y-50903571D01*
X109671428Y-52403571D01*
X109171428Y-52403571D02*
X109171428Y-50903571D01*
X108814285Y-50903571D01*
X108600000Y-50975000D01*
X108457142Y-51117857D01*
X108385714Y-51260714D01*
X108314285Y-51546428D01*
X108314285Y-51760714D01*
X108385714Y-52046428D01*
X108457142Y-52189285D01*
X108600000Y-52332142D01*
X108814285Y-52403571D01*
X109171428Y-52403571D01*
X107742857Y-51046428D02*
X107671428Y-50975000D01*
X107528571Y-50903571D01*
X107171428Y-50903571D01*
X107028571Y-50975000D01*
X106957142Y-51046428D01*
X106885714Y-51189285D01*
X106885714Y-51332142D01*
X106957142Y-51546428D01*
X107814285Y-52403571D01*
X106885714Y-52403571D01*
X114457142Y-54382142D02*
X113314285Y-54382142D01*
X106885714Y-54382142D02*
X105742857Y-54382142D01*
X106314285Y-54953571D02*
X106314285Y-53810714D01*
X80428571Y-52403571D02*
X81142857Y-52403571D01*
X81142857Y-50903571D01*
X79642857Y-50903571D02*
X79357142Y-50903571D01*
X79214285Y-50975000D01*
X79071428Y-51117857D01*
X79000000Y-51403571D01*
X79000000Y-51903571D01*
X79071428Y-52189285D01*
X79214285Y-52332142D01*
X79357142Y-52403571D01*
X79642857Y-52403571D01*
X79785714Y-52332142D01*
X79928571Y-52189285D01*
X80000000Y-51903571D01*
X80000000Y-51403571D01*
X79928571Y-51117857D01*
X79785714Y-50975000D01*
X79642857Y-50903571D01*
X78428571Y-51975000D02*
X77714285Y-51975000D01*
X78571428Y-52403571D02*
X78071428Y-50903571D01*
X77571428Y-52403571D01*
X77071428Y-52403571D02*
X77071428Y-50903571D01*
X76714285Y-50903571D01*
X76500000Y-50975000D01*
X76357142Y-51117857D01*
X76285714Y-51260714D01*
X76214285Y-51546428D01*
X76214285Y-51760714D01*
X76285714Y-52046428D01*
X76357142Y-52189285D01*
X76500000Y-52332142D01*
X76714285Y-52403571D01*
X77071428Y-52403571D01*
X74785714Y-52403571D02*
X75642857Y-52403571D01*
X75214285Y-52403571D02*
X75214285Y-50903571D01*
X75357142Y-51117857D01*
X75500000Y-51260714D01*
X75642857Y-51332142D01*
X82357142Y-54382142D02*
X81214285Y-54382142D01*
X74785714Y-54382142D02*
X73642857Y-54382142D01*
X74214285Y-54953571D02*
X74214285Y-53810714D01*
D11*
X92649523Y-89804761D02*
X91982857Y-91804761D01*
X91316190Y-89804761D01*
X90268571Y-89804761D02*
X89887619Y-89804761D01*
X89697142Y-89900000D01*
X89506666Y-90090476D01*
X89411428Y-90471428D01*
X89411428Y-91138095D01*
X89506666Y-91519047D01*
X89697142Y-91709523D01*
X89887619Y-91804761D01*
X90268571Y-91804761D01*
X90459047Y-91709523D01*
X90649523Y-91519047D01*
X90744761Y-91138095D01*
X90744761Y-90471428D01*
X90649523Y-90090476D01*
X90459047Y-89900000D01*
X90268571Y-89804761D01*
X87601904Y-91804761D02*
X88554285Y-91804761D01*
X88554285Y-89804761D01*
X87220952Y-89804761D02*
X86078095Y-89804761D01*
X86649523Y-91804761D02*
X86649523Y-89804761D01*
X85506666Y-91233333D02*
X84554285Y-91233333D01*
X85697142Y-91804761D02*
X85030476Y-89804761D01*
X84363809Y-91804761D01*
X82649523Y-89900000D02*
X82840000Y-89804761D01*
X83125714Y-89804761D01*
X83411428Y-89900000D01*
X83601904Y-90090476D01*
X83697142Y-90280952D01*
X83792380Y-90661904D01*
X83792380Y-90947619D01*
X83697142Y-91328571D01*
X83601904Y-91519047D01*
X83411428Y-91709523D01*
X83125714Y-91804761D01*
X82935238Y-91804761D01*
X82649523Y-91709523D01*
X82554285Y-91614285D01*
X82554285Y-90947619D01*
X82935238Y-90947619D01*
X81697142Y-90757142D02*
X81030476Y-90757142D01*
X80744761Y-91804761D02*
X81697142Y-91804761D01*
X81697142Y-89804761D01*
X80744761Y-89804761D01*
X78363809Y-91804761D02*
X78363809Y-89804761D01*
X77411428Y-91804761D02*
X77411428Y-89804761D01*
X76268571Y-91804761D01*
X76268571Y-89804761D01*
X72744761Y-91804761D02*
X73887619Y-91804761D01*
X73316190Y-91804761D02*
X73316190Y-89804761D01*
X73506666Y-90090476D01*
X73697142Y-90280952D01*
X73887619Y-90376190D01*
X71982857Y-89995238D02*
X71887619Y-89900000D01*
X71697142Y-89804761D01*
X71220952Y-89804761D01*
X71030476Y-89900000D01*
X70935238Y-89995238D01*
X70840000Y-90185714D01*
X70840000Y-90376190D01*
X70935238Y-90661904D01*
X72078095Y-91804761D01*
X70840000Y-91804761D01*
X69982857Y-91042857D02*
X68459047Y-91042857D01*
X67601904Y-89995238D02*
X67506666Y-89900000D01*
X67316190Y-89804761D01*
X66840000Y-89804761D01*
X66649523Y-89900000D01*
X66554285Y-89995238D01*
X66459047Y-90185714D01*
X66459047Y-90376190D01*
X66554285Y-90661904D01*
X67697142Y-91804761D01*
X66459047Y-91804761D01*
X64744761Y-90471428D02*
X64744761Y-91804761D01*
X65220952Y-89709523D02*
X65697142Y-91138095D01*
X64459047Y-91138095D01*
X63982857Y-89804761D02*
X63316190Y-91804761D01*
X62649523Y-89804761D01*
D12*
X75223809Y-83585714D02*
X72176190Y-83585714D01*
X75023809Y-73585714D02*
X71976190Y-73585714D01*
X73500000Y-75109523D02*
X73500000Y-72061904D01*
D10*
X151107142Y-117378571D02*
X151107142Y-115878571D01*
X150464285Y-117378571D02*
X150464285Y-116592857D01*
X150535714Y-116450000D01*
X150678571Y-116378571D01*
X150892857Y-116378571D01*
X151035714Y-116450000D01*
X151107142Y-116521428D01*
X149964285Y-116378571D02*
X149392857Y-116378571D01*
X149750000Y-115878571D02*
X149750000Y-117164285D01*
X149678571Y-117307142D01*
X149535714Y-117378571D01*
X149392857Y-117378571D01*
X149107142Y-116378571D02*
X148535714Y-116378571D01*
X148892857Y-115878571D02*
X148892857Y-117164285D01*
X148821428Y-117307142D01*
X148678571Y-117378571D01*
X148535714Y-117378571D01*
X148035714Y-116378571D02*
X148035714Y-117878571D01*
X148035714Y-116450000D02*
X147892857Y-116378571D01*
X147607142Y-116378571D01*
X147464285Y-116450000D01*
X147392857Y-116521428D01*
X147321428Y-116664285D01*
X147321428Y-117092857D01*
X147392857Y-117235714D01*
X147464285Y-117307142D01*
X147607142Y-117378571D01*
X147892857Y-117378571D01*
X148035714Y-117307142D01*
X146750000Y-117307142D02*
X146607142Y-117378571D01*
X146321428Y-117378571D01*
X146178571Y-117307142D01*
X146107142Y-117164285D01*
X146107142Y-117092857D01*
X146178571Y-116950000D01*
X146321428Y-116878571D01*
X146535714Y-116878571D01*
X146678571Y-116807142D01*
X146750000Y-116664285D01*
X146750000Y-116592857D01*
X146678571Y-116450000D01*
X146535714Y-116378571D01*
X146321428Y-116378571D01*
X146178571Y-116450000D01*
X145464285Y-117235714D02*
X145392857Y-117307142D01*
X145464285Y-117378571D01*
X145535714Y-117307142D01*
X145464285Y-117235714D01*
X145464285Y-117378571D01*
X145464285Y-116450000D02*
X145392857Y-116521428D01*
X145464285Y-116592857D01*
X145535714Y-116521428D01*
X145464285Y-116450000D01*
X145464285Y-116592857D01*
X143678571Y-115807142D02*
X144964285Y-117735714D01*
X142107142Y-115807142D02*
X143392857Y-117735714D01*
X140964285Y-116378571D02*
X140964285Y-117592857D01*
X141035714Y-117735714D01*
X141107142Y-117807142D01*
X141250000Y-117878571D01*
X141464285Y-117878571D01*
X141607142Y-117807142D01*
X140964285Y-117307142D02*
X141107142Y-117378571D01*
X141392857Y-117378571D01*
X141535714Y-117307142D01*
X141607142Y-117235714D01*
X141678571Y-117092857D01*
X141678571Y-116664285D01*
X141607142Y-116521428D01*
X141535714Y-116450000D01*
X141392857Y-116378571D01*
X141107142Y-116378571D01*
X140964285Y-116450000D01*
X140250000Y-117378571D02*
X140250000Y-116378571D01*
X140250000Y-115878571D02*
X140321428Y-115950000D01*
X140250000Y-116021428D01*
X140178571Y-115950000D01*
X140250000Y-115878571D01*
X140250000Y-116021428D01*
X139750000Y-116378571D02*
X139178571Y-116378571D01*
X139535714Y-115878571D02*
X139535714Y-117164285D01*
X139464285Y-117307142D01*
X139321428Y-117378571D01*
X139178571Y-117378571D01*
X138678571Y-117378571D02*
X138678571Y-115878571D01*
X138035714Y-117378571D02*
X138035714Y-116592857D01*
X138107142Y-116450000D01*
X138250000Y-116378571D01*
X138464285Y-116378571D01*
X138607142Y-116450000D01*
X138678571Y-116521428D01*
X136678571Y-116378571D02*
X136678571Y-117378571D01*
X137321428Y-116378571D02*
X137321428Y-117164285D01*
X137250000Y-117307142D01*
X137107142Y-117378571D01*
X136892857Y-117378571D01*
X136749999Y-117307142D01*
X136678571Y-117235714D01*
X135964285Y-117378571D02*
X135964285Y-115878571D01*
X135964285Y-116450000D02*
X135821428Y-116378571D01*
X135535714Y-116378571D01*
X135392857Y-116450000D01*
X135321428Y-116521428D01*
X135249999Y-116664285D01*
X135249999Y-117092857D01*
X135321428Y-117235714D01*
X135392857Y-117307142D01*
X135535714Y-117378571D01*
X135821428Y-117378571D01*
X135964285Y-117307142D01*
X134607142Y-117235714D02*
X134535714Y-117307142D01*
X134607142Y-117378571D01*
X134678571Y-117307142D01*
X134607142Y-117235714D01*
X134607142Y-117378571D01*
X133249999Y-117307142D02*
X133392857Y-117378571D01*
X133678571Y-117378571D01*
X133821428Y-117307142D01*
X133892857Y-117235714D01*
X133964285Y-117092857D01*
X133964285Y-116664285D01*
X133892857Y-116521428D01*
X133821428Y-116450000D01*
X133678571Y-116378571D01*
X133392857Y-116378571D01*
X133249999Y-116450000D01*
X132392857Y-117378571D02*
X132535714Y-117307142D01*
X132607142Y-117235714D01*
X132678571Y-117092857D01*
X132678571Y-116664285D01*
X132607142Y-116521428D01*
X132535714Y-116450000D01*
X132392857Y-116378571D01*
X132178571Y-116378571D01*
X132035714Y-116450000D01*
X131964285Y-116521428D01*
X131892857Y-116664285D01*
X131892857Y-117092857D01*
X131964285Y-117235714D01*
X132035714Y-117307142D01*
X132178571Y-117378571D01*
X132392857Y-117378571D01*
X131249999Y-117378571D02*
X131249999Y-116378571D01*
X131249999Y-116521428D02*
X131178571Y-116450000D01*
X131035714Y-116378571D01*
X130821428Y-116378571D01*
X130678571Y-116450000D01*
X130607142Y-116592857D01*
X130607142Y-117378571D01*
X130607142Y-116592857D02*
X130535714Y-116450000D01*
X130392857Y-116378571D01*
X130178571Y-116378571D01*
X130035714Y-116450000D01*
X129964285Y-116592857D01*
X129964285Y-117378571D01*
X128178571Y-115807142D02*
X129464285Y-117735714D01*
X127892857Y-116378571D02*
X127321428Y-116378571D01*
X127678571Y-117378571D02*
X127678571Y-116092857D01*
X127607142Y-115950000D01*
X127464285Y-115878571D01*
X127321428Y-115878571D01*
X126821428Y-117378571D02*
X126821428Y-116378571D01*
X126821428Y-115878571D02*
X126892857Y-115950000D01*
X126821428Y-116021428D01*
X126749999Y-115950000D01*
X126821428Y-115878571D01*
X126821428Y-116021428D01*
X126107142Y-116378571D02*
X126107142Y-117378571D01*
X126107142Y-116521428D02*
X126035714Y-116450000D01*
X125892857Y-116378571D01*
X125678571Y-116378571D01*
X125535714Y-116450000D01*
X125464285Y-116592857D01*
X125464285Y-117378571D01*
X124107142Y-117378571D02*
X124107142Y-115878571D01*
X124107142Y-117307142D02*
X124249999Y-117378571D01*
X124535714Y-117378571D01*
X124678571Y-117307142D01*
X124749999Y-117235714D01*
X124821428Y-117092857D01*
X124821428Y-116664285D01*
X124749999Y-116521428D01*
X124678571Y-116450000D01*
X124535714Y-116378571D01*
X124249999Y-116378571D01*
X124107142Y-116450000D01*
X122821428Y-117307142D02*
X122964285Y-117378571D01*
X123249999Y-117378571D01*
X123392857Y-117307142D01*
X123464285Y-117164285D01*
X123464285Y-116592857D01*
X123392857Y-116450000D01*
X123249999Y-116378571D01*
X122964285Y-116378571D01*
X122821428Y-116450000D01*
X122749999Y-116592857D01*
X122749999Y-116735714D01*
X123464285Y-116878571D01*
X122107142Y-117378571D02*
X122107142Y-116378571D01*
X122107142Y-116664285D02*
X122035714Y-116521428D01*
X121964285Y-116450000D01*
X121821428Y-116378571D01*
X121678571Y-116378571D01*
X121249999Y-117307142D02*
X121107142Y-117378571D01*
X120821428Y-117378571D01*
X120678571Y-117307142D01*
X120607142Y-117164285D01*
X120607142Y-117092857D01*
X120678571Y-116950000D01*
X120821428Y-116878571D01*
X121035714Y-116878571D01*
X121178571Y-116807142D01*
X121249999Y-116664285D01*
X121249999Y-116592857D01*
X121178571Y-116450000D01*
X121035714Y-116378571D01*
X120821428Y-116378571D01*
X120678571Y-116450000D01*
X119392857Y-117307142D02*
X119535714Y-117378571D01*
X119821428Y-117378571D01*
X119964285Y-117307142D01*
X120035714Y-117164285D01*
X120035714Y-116592857D01*
X119964285Y-116450000D01*
X119821428Y-116378571D01*
X119535714Y-116378571D01*
X119392857Y-116450000D01*
X119321428Y-116592857D01*
X119321428Y-116735714D01*
X120035714Y-116878571D01*
X118107142Y-117307142D02*
X118249999Y-117378571D01*
X118535714Y-117378571D01*
X118678571Y-117307142D01*
X118749999Y-117164285D01*
X118749999Y-116592857D01*
X118678571Y-116450000D01*
X118535714Y-116378571D01*
X118249999Y-116378571D01*
X118107142Y-116450000D01*
X118035714Y-116592857D01*
X118035714Y-116735714D01*
X118749999Y-116878571D01*
X116321428Y-115807142D02*
X117607142Y-117735714D01*
X115821428Y-117378571D02*
X115821428Y-116378571D01*
X115821428Y-116664285D02*
X115749999Y-116521428D01*
X115678571Y-116450000D01*
X115535714Y-116378571D01*
X115392857Y-116378571D01*
X114249999Y-117307142D02*
X114392857Y-117378571D01*
X114678571Y-117378571D01*
X114821428Y-117307142D01*
X114892857Y-117235714D01*
X114964285Y-117092857D01*
X114964285Y-116664285D01*
X114892857Y-116521428D01*
X114821428Y-116450000D01*
X114678571Y-116378571D01*
X114392857Y-116378571D01*
X114249999Y-116450000D01*
X113821428Y-116378571D02*
X113249999Y-116378571D01*
X113607142Y-115878571D02*
X113607142Y-117164285D01*
X113535714Y-117307142D01*
X113392857Y-117378571D01*
X113249999Y-117378571D01*
X112178571Y-117307142D02*
X112321428Y-117378571D01*
X112607142Y-117378571D01*
X112749999Y-117307142D01*
X112821428Y-117164285D01*
X112821428Y-116592857D01*
X112749999Y-116450000D01*
X112607142Y-116378571D01*
X112321428Y-116378571D01*
X112178571Y-116450000D01*
X112107142Y-116592857D01*
X112107142Y-116735714D01*
X112821428Y-116878571D01*
X111249999Y-117378571D02*
X111392857Y-117307142D01*
X111464285Y-117164285D01*
X111464285Y-115878571D01*
X110107142Y-117307142D02*
X110249999Y-117378571D01*
X110535714Y-117378571D01*
X110678571Y-117307142D01*
X110749999Y-117164285D01*
X110749999Y-116592857D01*
X110678571Y-116450000D01*
X110535714Y-116378571D01*
X110249999Y-116378571D01*
X110107142Y-116450000D01*
X110035714Y-116592857D01*
X110035714Y-116735714D01*
X110749999Y-116878571D01*
X109392857Y-117378571D02*
X109392857Y-116378571D01*
X109392857Y-116521428D02*
X109321428Y-116450000D01*
X109178571Y-116378571D01*
X108964285Y-116378571D01*
X108821428Y-116450000D01*
X108749999Y-116592857D01*
X108749999Y-117378571D01*
X108749999Y-116592857D02*
X108678571Y-116450000D01*
X108535714Y-116378571D01*
X108321428Y-116378571D01*
X108178571Y-116450000D01*
X108107142Y-116592857D01*
X108107142Y-117378571D01*
X106821428Y-117307142D02*
X106964285Y-117378571D01*
X107249999Y-117378571D01*
X107392857Y-117307142D01*
X107464285Y-117164285D01*
X107464285Y-116592857D01*
X107392857Y-116450000D01*
X107249999Y-116378571D01*
X106964285Y-116378571D01*
X106821428Y-116450000D01*
X106749999Y-116592857D01*
X106749999Y-116735714D01*
X107464285Y-116878571D01*
X106321428Y-116378571D02*
X105749999Y-116378571D01*
X106107142Y-115878571D02*
X106107142Y-117164285D01*
X106035714Y-117307142D01*
X105892857Y-117378571D01*
X105749999Y-117378571D01*
X105249999Y-117378571D02*
X105249999Y-116378571D01*
X105249999Y-116664285D02*
X105178571Y-116521428D01*
X105107142Y-116450000D01*
X104964285Y-116378571D01*
X104821428Y-116378571D01*
X104464285Y-116378571D02*
X104107142Y-117378571D01*
X103749999Y-116378571D02*
X104107142Y-117378571D01*
X104249999Y-117735714D01*
X104321428Y-117807142D01*
X104464285Y-117878571D01*
%LPC*%
D13*
X155350000Y-52425000D03*
X155350000Y-59675000D03*
D14*
X152670000Y-53625000D03*
X152670000Y-58475000D03*
D15*
X115100000Y-46400000D03*
X105100000Y-46400000D03*
X83100000Y-46400000D03*
X73100000Y-46400000D03*
X65000000Y-73500000D03*
X65000000Y-83500000D03*
D16*
X129100000Y-57100000D03*
D17*
X129100000Y-55830000D03*
D18*
X117300000Y-105450000D03*
D19*
X114800000Y-105450000D03*
D20*
X127000000Y-51300000D03*
D21*
X128270000Y-51300000D03*
D22*
X138300000Y-59400000D03*
D23*
X135760000Y-59400000D03*
X149250000Y-67640000D03*
D22*
X149250000Y-65100000D03*
D24*
X148450000Y-107290000D03*
D25*
X148450000Y-104750000D03*
D24*
X148450000Y-93840000D03*
D25*
X148450000Y-91300000D03*
D24*
X148450000Y-100540000D03*
D25*
X148450000Y-98000000D03*
D26*
X77300000Y-115000000D03*
D27*
X81110000Y-115000000D03*
D25*
X148450000Y-84800000D03*
D24*
X148450000Y-87340000D03*
D25*
X148450000Y-78100000D03*
D24*
X148450000Y-80640000D03*
D25*
X148450000Y-71500000D03*
D24*
X148450000Y-74040000D03*
D28*
X118500000Y-58910000D03*
X118500000Y-55090000D03*
X118500000Y-57000000D03*
D29*
X97100000Y-51500000D03*
X97100000Y-62500000D03*
D28*
X86500000Y-58910000D03*
X86500000Y-55090000D03*
X86500000Y-57000000D03*
D29*
X65100000Y-51500000D03*
X65100000Y-62500000D03*
D27*
X91210000Y-115000000D03*
D26*
X87400000Y-115000000D03*
D19*
X110500000Y-82000000D03*
D18*
X108000000Y-82000000D03*
D19*
X110400000Y-73700000D03*
D18*
X107900000Y-73700000D03*
X88300000Y-76800000D03*
D19*
X90800000Y-76800000D03*
D30*
X137480000Y-67350000D03*
X140020000Y-67350000D03*
X142560000Y-67350000D03*
D31*
X145100000Y-67350000D03*
D32*
X99375000Y-74400000D03*
D33*
X132600000Y-55700000D03*
D34*
X132600000Y-53160000D03*
X135140000Y-55700000D03*
X135140000Y-53160000D03*
X137680000Y-55700000D03*
X137680000Y-53160000D03*
X140220000Y-55700000D03*
X140220000Y-53160000D03*
X142760000Y-55700000D03*
X142760000Y-53160000D03*
X145300000Y-55700000D03*
X145300000Y-53160000D03*
D35*
X64000000Y-42000000D03*
X64000000Y-116000000D03*
X156000000Y-42000000D03*
X156000000Y-116000000D03*
D25*
X119200000Y-82000000D03*
D24*
X119200000Y-84540000D03*
D36*
X140840000Y-44000000D03*
X143380000Y-44000000D03*
X148460000Y-44000000D03*
X151000000Y-44000000D03*
X145920000Y-44000000D03*
D37*
X153000000Y-48300000D03*
D38*
X153000000Y-47030000D03*
D33*
X152750000Y-62550000D03*
D34*
X155290000Y-62550000D03*
X152750000Y-65090000D03*
X155290000Y-65090000D03*
X152750000Y-67630000D03*
X155290000Y-67630000D03*
X137680000Y-46960000D03*
X137680000Y-49500000D03*
X135140000Y-46960000D03*
X135140000Y-49500000D03*
X132600000Y-46960000D03*
D33*
X132600000Y-49500000D03*
D39*
X99400000Y-78300000D03*
X99400000Y-70300000D03*
X104150000Y-74400000D03*
X94600000Y-74400000D03*
X94600000Y-78450000D03*
X94600000Y-70300000D03*
D40*
X116850000Y-77200000D03*
D39*
X104150000Y-70300000D03*
X104150000Y-78450000D03*
D41*
X131000000Y-70700000D03*
X131456193Y-63272459D03*
X141800000Y-62700000D03*
D40*
X126725003Y-59100000D03*
X86320000Y-86490000D03*
X84000000Y-81800000D03*
X72000000Y-78700000D03*
X70500000Y-77100000D03*
X74700000Y-70200000D03*
X85100000Y-70800000D03*
X90700000Y-73300000D03*
X93300000Y-101400000D03*
X74800000Y-109800000D03*
X61100000Y-79500000D03*
D39*
X140100000Y-88500000D03*
X140100000Y-95300000D03*
X143200000Y-96300000D03*
X143400000Y-89800000D03*
X143300000Y-82900000D03*
X139900000Y-81700000D03*
X143500000Y-76500000D03*
X140470000Y-76280000D03*
X145200000Y-75800000D03*
X145200000Y-82400000D03*
X145000000Y-89100000D03*
X138800000Y-93100000D03*
X145000000Y-95700000D03*
X82700000Y-98000000D03*
X73400000Y-97900000D03*
X85500000Y-103000000D03*
X75500000Y-103400000D03*
X81400000Y-101300000D03*
X80100000Y-101300000D03*
X78800000Y-101300000D03*
X88800000Y-101300000D03*
X90100000Y-101300000D03*
X91400000Y-101300000D03*
D41*
X124900000Y-98900000D03*
X133900000Y-81500000D03*
D39*
X112100000Y-108400000D03*
X103700000Y-106900000D03*
D40*
X123800000Y-95000000D03*
X123000000Y-95500000D03*
X120900000Y-101500000D03*
X120900000Y-102400000D03*
X121800000Y-101900000D03*
X108100000Y-104000000D03*
D41*
X123300000Y-101900000D03*
X124200000Y-74800000D03*
X122500000Y-79300000D03*
X130600000Y-87750000D03*
D39*
X130700000Y-110600000D03*
X130700000Y-108350000D03*
X126400000Y-108550000D03*
X126400000Y-110600000D03*
D41*
X121150000Y-88100000D03*
X89400000Y-40250000D03*
X89350000Y-48400000D03*
X91000000Y-52850000D03*
X89900000Y-54400000D03*
X121950000Y-42850000D03*
X123600000Y-54900000D03*
X122100000Y-56800000D03*
X123150000Y-41450000D03*
X117400000Y-67560000D03*
X118010000Y-68500000D03*
X122910916Y-65270984D03*
X129440000Y-75740000D03*
X125820000Y-93740000D03*
D39*
X105900000Y-70200000D03*
X105900000Y-74400000D03*
X105900000Y-78500000D03*
X105900000Y-77100000D03*
X105900000Y-75800000D03*
X105900000Y-73000000D03*
X105900000Y-71600000D03*
D41*
X136600000Y-104200000D03*
X136900000Y-96500000D03*
X138100000Y-70500000D03*
X125800000Y-59100000D03*
X129700000Y-51500000D03*
X133000000Y-69350000D03*
D39*
X127300000Y-94700000D03*
X128600000Y-94700000D03*
X130000000Y-94700000D03*
X131400000Y-94700000D03*
D41*
X136000000Y-62800000D03*
D40*
X119800000Y-73200000D03*
X117400000Y-62800000D03*
X122900000Y-61900000D03*
D41*
X128400000Y-79500000D03*
X121960000Y-67450000D03*
X122870000Y-66120000D03*
X136000010Y-101300000D03*
X138300000Y-44500000D03*
D39*
X92400000Y-58500000D03*
X85900000Y-94700000D03*
X81800000Y-96300000D03*
X108100000Y-109800000D03*
X106100000Y-110000000D03*
X69600000Y-62500000D03*
X69600000Y-61000000D03*
X69600000Y-59400000D03*
X69600000Y-64000000D03*
X68600000Y-58000000D03*
X69600000Y-65500000D03*
X68500000Y-66900000D03*
X92400000Y-62400000D03*
X92400000Y-61100000D03*
X92400000Y-59800000D03*
X92400000Y-63700000D03*
X92400000Y-65000000D03*
X68499999Y-70000001D03*
X68500000Y-77000000D03*
X70400000Y-73600000D03*
X69950000Y-71600000D03*
X69800000Y-75500000D03*
X110400000Y-75500000D03*
X110400000Y-76900000D03*
X110400000Y-78400000D03*
X110400000Y-79800000D03*
X111800000Y-79800000D03*
X111800000Y-78400000D03*
X111800000Y-76900000D03*
X111800000Y-75500000D03*
D41*
X123060135Y-94104774D03*
X77600000Y-74450000D03*
X111400000Y-69100000D03*
D40*
X90750000Y-57100000D03*
D39*
X116050000Y-72600000D03*
D41*
X94200000Y-40250000D03*
X126500000Y-44450000D03*
X126500000Y-86400000D03*
X131262902Y-65031998D03*
X128600000Y-81800000D03*
X127300000Y-73800000D03*
X129700000Y-74700000D03*
X135900000Y-66000000D03*
X139600000Y-72700000D03*
D39*
X65200000Y-45400000D03*
X66700000Y-45500000D03*
X63700000Y-45500000D03*
X69400000Y-51400000D03*
X69400000Y-52800000D03*
X69400000Y-54200000D03*
X69400000Y-50000000D03*
X101300000Y-52300000D03*
X101300000Y-49500000D03*
X101300000Y-53700000D03*
X101300000Y-50900000D03*
X95700000Y-45500000D03*
X98700000Y-45500000D03*
X97200000Y-45400000D03*
D41*
X126075000Y-61900000D03*
X87300000Y-49800000D03*
X125500000Y-67700000D03*
X121636330Y-51386330D03*
X125500000Y-71100000D03*
X101900000Y-108400000D03*
X150150000Y-57638360D03*
D40*
X93600000Y-84250000D03*
X104450000Y-83550000D03*
D41*
X126600000Y-75700000D03*
X131250000Y-64100000D03*
X122700000Y-63200000D03*
X123810000Y-71380000D03*
X120550000Y-89700000D03*
X120650000Y-86100000D03*
X125630000Y-63510000D03*
X122780000Y-92100000D03*
X129523619Y-61966381D03*
X122740000Y-93010000D03*
X134499990Y-79990000D03*
X130099625Y-58519341D03*
X134500000Y-67200000D03*
X134593948Y-69350000D03*
X139000000Y-69500000D03*
X146006859Y-65441157D03*
X148900000Y-61900000D03*
X137275000Y-88100000D03*
X137275000Y-90800000D03*
X127425000Y-61920000D03*
X133650000Y-74750000D03*
X136100000Y-65100000D03*
X134500000Y-62800000D03*
X132975000Y-74000000D03*
X128100000Y-64500000D03*
X134900000Y-76500000D03*
X129480760Y-67019240D03*
X133816699Y-75583496D03*
X130440380Y-67059620D03*
M02*
